<?xml version="1.0" encoding="UTF-8"?>
<!DOCTYPE svg PUBLIC "-//W3C//DTD SVG 1.1//EN" "http://www.w3.org/Graphics/SVG/1.1/DTD/svg11.dtd">
<svg version="1.1" xmlns="http://www.w3.org/2000/svg" xmlns:xlink="http://www.w3.org/1999/xlink" x="0" y="0" width="104.266" height="144.93" viewBox="0, 0, 104.266, 144.93">
  <g id="Layer_1" transform="translate(-0, -0)">
    <path d="M7,0 L97.266,0 C101.132,0 104.266,3.134 104.266,7 L104.266,137.93 C104.266,141.796 101.132,144.93 97.266,144.93 L7,144.93 C3.134,144.93 0,141.796 0,137.93 L0,7 C0,3.134 3.134,0 7,0 z" fill="#B7B19E"/>
    <path d="M51.291,91.523 L22.25,78.856 C20.792,78.22 19.851,76.78 19.851,75.189 L19.851,22.123 C19.851,20.798 20.924,19.723 22.25,19.723 L82.249,19.723 C83.576,19.723 84.65,20.798 84.65,22.123 L84.65,75.189 C84.65,76.78 83.707,78.22 82.248,78.856 L53.209,91.523 C52.597,91.79 51.903,91.79 51.291,91.523" fill="#131212"/>
    <path d="M27.398,48.069 L28.738,48.069 L31.221,51.585 C31.39,51.833 31.621,52.164 31.71,52.334 C31.71,52.088 31.689,51.252 31.689,50.881 L31.689,48.069 L33.071,48.069 L33.071,54.719 L31.819,54.719 L29.25,51.091 C29.08,50.844 28.849,50.511 28.761,50.34 C28.761,50.587 28.78,51.423 28.78,51.794 L28.78,54.719 L27.398,54.719 z M37.554,49.733 L36.751,51.973 L38.355,51.973 z M36.903,48.069 L38.262,48.069 L40.924,54.719 L39.384,54.719 L38.832,53.238 L36.272,53.238 L35.721,54.719 L34.224,54.719 z M40.68,48.069 L46.102,48.069 L46.102,49.38 L44.095,49.38 L44.095,54.719 L42.691,54.719 L42.691,49.38 L40.68,49.38 z M47.46,48.069 L48.861,48.069 L48.861,54.719 L47.46,54.719 z M53.343,49.286 C52.212,49.286 51.741,50.207 51.741,51.395 C51.741,52.583 52.212,53.505 53.343,53.505 C54.473,53.505 54.943,52.583 54.943,51.395 C54.943,50.207 54.473,49.286 53.343,49.286 M53.343,47.964 C55.254,47.964 56.384,49.371 56.384,51.395 C56.384,53.417 55.254,54.824 53.343,54.824 C51.429,54.824 50.301,53.417 50.301,51.395 C50.301,49.371 51.429,47.964 53.343,47.964 M57.635,48.069 L58.973,48.069 L61.456,51.585 C61.627,51.833 61.856,52.164 61.944,52.334 C61.944,52.088 61.925,51.252 61.925,50.881 L61.925,48.069 L63.308,48.069 L63.308,54.719 L62.056,54.719 L59.484,51.091 C59.315,50.844 59.088,50.511 58.995,50.34 C58.995,50.587 59.015,51.423 59.015,51.794 L59.015,54.719 L57.635,54.719 z M67.76,49.733 L66.959,51.973 L68.56,51.973 z M67.109,48.069 L68.468,48.069 L71.13,54.719 L69.588,54.719 L69.041,53.238 L66.48,53.238 L65.929,54.719 L64.428,54.719 z M72.188,48.069 L73.591,48.069 L73.591,53.408 L77.102,53.408 L77.102,54.719 L72.188,54.719 z M31.594,67.775 C28.849,67.775 27.009,65.676 27.009,62.364 C27.009,59.173 28.926,56.955 31.671,56.955 C33.812,56.955 34.951,57.959 35.64,59.577 L33.65,60.401 C33.257,59.622 32.778,59.037 31.64,59.037 C30.066,59.037 29.167,60.416 29.167,62.364 C29.167,64.298 30.081,65.72 31.654,65.72 C33.092,65.72 33.588,65.048 33.708,64.133 L32.044,64.133 L32.044,62.17 L35.806,62.17 L35.806,63.549 C35.806,66.245 34.023,67.775 31.594,67.775 M41.711,67.775 C39.18,67.775 37.467,66.066 37.467,63.009 L37.467,57.119 L39.568,57.119 L39.568,62.979 C39.568,64.658 40.377,65.72 41.711,65.72 C43.045,65.72 43.869,64.688 43.869,63.009 L43.869,57.119 L45.967,57.119 L45.967,62.979 C45.967,66.021 44.379,67.775 41.711,67.775 M52.366,61.376 C52.156,60.76 51.946,60.131 51.842,59.741 C51.738,60.131 51.527,60.76 51.317,61.376 L50.642,63.279 L53.04,63.279 z M54.584,67.61 L53.762,65.271 L49.925,65.271 L49.098,67.61 L46.852,67.61 L50.867,57.119 L52.905,57.119 L56.894,67.61 z M63.202,59.157 L60.46,59.157 L60.46,61.855 L63.202,61.855 C64.177,61.855 64.7,61.405 64.7,60.49 C64.7,59.547 64.131,59.157 63.202,59.157 M64.448,67.61 L62.573,63.834 L60.46,63.834 L60.46,67.61 L58.361,67.61 L58.361,57.119 L63.247,57.119 C65.224,57.119 66.86,58.214 66.86,60.446 C66.86,62.019 66.183,63.009 64.85,63.534 L66.86,67.61 z M72.16,59.157 L71.052,59.157 L71.052,65.571 L72.085,65.571 C74.289,65.571 75.292,64.284 75.292,62.364 C75.292,60.221 74.38,59.157 72.16,59.157 M72.085,67.61 L68.951,67.61 L68.951,57.119 L72.233,57.119 C75.234,57.119 77.45,58.527 77.45,62.364 C77.45,66.05 74.78,67.61 72.085,67.61" fill="#FFFFFD"/>
    <path d="M77.45,70.21 L27.05,70.21 L27.05,71.21 L77.45,71.21 z M77.45,32.324 L27.05,32.324 L27.05,31.324 L77.45,31.324 z M34.208,41.164 L31.571,41.164 L32.892,37.466 z M27.398,45.692 L29.875,45.692 L30.78,43.248 L35.003,43.248 L35.908,45.692 L38.449,45.692 L34.06,34.724 L31.819,34.724 z M47.654,38.25 C47.654,39.205 47.076,39.676 46.002,39.676 L42.984,39.676 L42.984,36.854 L46.002,36.854 C47.026,36.854 47.654,37.262 47.654,38.25 M40.676,45.692 L42.984,45.692 L42.984,41.743 L45.309,41.743 L47.373,45.692 L50.027,45.692 L47.819,41.429 C49.282,40.882 50.027,39.848 50.027,38.204 C50.027,35.869 48.229,34.724 46.052,34.724 L40.676,34.724 z M53.004,45.692 L55.265,45.692 L55.265,41.665 C55.265,41.069 55.231,39.676 55.231,39.252 C55.396,39.658 55.741,40.443 56.038,41.069 L58.383,45.942 L60.724,41.069 C61.02,40.443 61.37,39.658 61.532,39.252 C61.532,39.676 61.497,41.069 61.497,41.665 L61.497,45.692 L63.807,45.692 L63.807,34.724 L61.532,34.724 L59.206,39.691 C58.91,40.317 58.579,41.117 58.431,41.524 C58.282,41.133 57.937,40.301 57.64,39.691 L55.231,34.724 L53.004,34.724 z M70.086,41.398 L70.086,45.692 L72.396,45.692 L72.396,41.352 L76.765,34.724 L74.142,34.724 L71.258,39.471 L68.369,34.724 L65.716,34.724 z M54.341,80.718 L57.721,78.265 L53.54,78.265 L52.25,74.289 L50.96,78.265 L46.779,78.265 L50.16,80.718 L48.87,84.692 L52.25,82.236 L55.63,84.692 z" fill="#F8DC4A"/>
    <path d="M23.862,124.974 L23.862,122.63 C23.862,121.46 23.386,120.732 22.324,120.732 C21.891,120.732 21.542,120.896 21.353,121.096 L21.353,120.818 L20.26,120.818 L20.26,124.974 L21.353,124.974 L21.353,122.703 C21.353,121.981 21.613,121.761 22.064,121.761 C22.515,121.761 22.769,121.981 22.769,122.725 L22.769,124.974 z M27.986,124.974 L27.986,122.189 C27.986,121.254 27.304,120.732 26.299,120.732 C25.628,120.732 25.222,120.874 24.74,121.152 L25.16,121.91 C25.54,121.705 25.8,121.634 26.299,121.634 C26.695,121.634 26.893,121.872 26.893,122.165 L26.893,122.37 C26.718,122.283 26.473,122.203 26.093,122.203 C25.151,122.203 24.407,122.663 24.407,123.581 C24.407,124.585 25.184,125.062 25.959,125.062 C26.348,125.062 26.695,124.903 26.893,124.698 L26.893,124.974 z M26.893,123.756 C26.775,123.954 26.49,124.136 26.133,124.136 C25.666,124.136 25.5,123.874 25.5,123.581 C25.5,123.249 25.722,123.058 26.133,123.058 C26.52,123.058 26.704,123.116 26.893,123.232 z M31.206,123.7 C30.937,123.929 30.786,124.016 30.59,124.016 C30.33,124.016 30.188,123.914 30.188,123.518 L30.188,121.847 L31.184,121.847 L31.184,120.818 L30.188,120.818 L30.188,119.205 L29.095,119.75 L29.095,120.818 L28.395,120.818 L28.395,121.847 L29.095,121.847 L29.095,123.81 C29.095,124.538 29.53,125.062 30.202,125.062 C30.543,125.062 30.866,124.95 31.05,124.807 z M33.162,119.854 C33.162,119.514 32.877,119.227 32.537,119.227 C32.197,119.227 31.912,119.514 31.912,119.854 C31.912,120.194 32.197,120.478 32.537,120.478 C32.877,120.478 33.162,120.194 33.162,119.854 M33.082,120.818 L31.989,120.818 L31.989,124.976 L33.082,124.976 z M37.453,122.9 C37.453,121.625 36.653,120.732 35.568,120.732 C34.484,120.732 33.693,121.625 33.693,122.9 C33.693,124.176 34.484,125.062 35.568,125.062 C36.653,125.062 37.453,124.176 37.453,122.9 M36.344,122.9 C36.344,123.478 36.09,124.007 35.568,124.007 C35.046,124.007 34.801,123.542 34.801,122.9 C34.801,122.26 35.046,121.785 35.568,121.785 C36.09,121.785 36.344,122.267 36.344,122.9 M41.624,124.974 L41.624,122.63 C41.624,121.46 41.15,120.732 40.09,120.732 C39.654,120.732 39.304,120.896 39.115,121.096 L39.115,120.818 L38.022,120.818 L38.022,124.974 L39.115,124.974 L39.115,122.703 C39.115,121.981 39.375,121.761 39.828,121.761 C40.279,121.761 40.531,121.981 40.531,122.725 L40.531,124.974 z M45.748,124.974 L45.748,122.189 C45.748,121.254 45.068,120.732 44.063,120.732 C43.39,120.732 42.986,120.874 42.503,121.152 L42.921,121.91 C43.303,121.705 43.563,121.634 44.063,121.634 C44.459,121.634 44.655,121.872 44.655,122.165 L44.655,122.37 C44.483,122.283 44.237,122.203 43.857,122.203 C42.915,122.203 42.17,122.663 42.17,123.581 C42.17,124.585 42.946,125.062 43.721,125.062 C44.11,125.062 44.459,124.903 44.655,124.698 L44.655,124.974 z M44.655,123.756 C44.537,123.954 44.252,124.136 43.897,124.136 C43.428,124.136 43.263,123.874 43.263,123.581 C43.263,123.249 43.485,123.058 43.897,123.058 C44.285,123.058 44.466,123.116 44.655,123.232 z M47.624,124.974 L47.624,119.205 L46.532,119.75 L46.532,124.974 z M51.819,124.271 L51.819,120.818 L50.726,120.818 L50.726,121.056 C50.53,120.874 50.214,120.732 49.85,120.732 C48.821,120.732 48.234,121.603 48.234,122.845 C48.234,124.396 48.963,125.062 49.85,125.062 C50.245,125.062 50.521,124.896 50.726,124.714 C50.726,125.356 50.499,125.56 49.643,125.678 L50.03,126.502 C51.488,126.345 51.819,125.64 51.819,124.271 M50.726,123.685 C50.57,123.889 50.396,124.032 50.056,124.032 C49.628,124.032 49.343,123.676 49.343,122.822 C49.343,122.123 49.57,121.761 49.992,121.761 C50.308,121.761 50.561,121.887 50.726,122.118 z M56.181,124.974 L56.181,120.818 L55.09,120.818 L55.09,123.09 C55.09,123.81 54.828,124.032 54.376,124.032 C53.925,124.032 53.672,123.81 53.672,123.067 L53.672,120.818 L52.581,120.818 L52.581,123.162 C52.581,124.334 53.054,125.062 54.116,125.062 C54.55,125.062 54.9,124.896 55.09,124.698 L55.09,124.974 z M60.345,124.974 L60.345,122.189 C60.345,121.254 59.665,120.732 58.66,120.732 C57.987,120.732 57.583,120.874 57.099,121.152 L57.519,121.91 C57.899,121.705 58.161,121.634 58.66,121.634 C59.054,121.634 59.252,121.872 59.252,122.165 L59.252,122.37 C59.078,122.283 58.832,122.203 58.454,122.203 C57.512,122.203 56.767,122.663 56.767,123.581 C56.767,124.585 57.543,125.062 58.318,125.062 C58.707,125.062 59.054,124.903 59.252,124.698 L59.252,124.974 z M59.252,123.756 C59.134,123.954 58.849,124.136 58.494,124.136 C58.025,124.136 57.86,123.874 57.86,123.581 C57.86,123.249 58.083,123.058 58.494,123.058 C58.881,123.058 59.063,123.116 59.252,123.232 z M63.805,121.025 C63.661,120.874 63.392,120.732 63.036,120.732 C62.647,120.732 62.372,120.896 62.182,121.096 L62.182,120.818 L61.089,120.818 L61.089,124.974 L62.182,124.974 L62.182,122.725 C62.182,122.005 62.458,121.825 62.885,121.825 C63.132,121.825 63.345,121.934 63.519,122.094 z M67.455,124.974 L67.455,119.205 L66.362,119.75 L66.362,121.056 C66.164,120.874 65.847,120.732 65.483,120.732 C64.455,120.732 63.869,121.603 63.869,122.845 C63.869,124.396 64.598,125.062 65.483,125.062 C65.88,125.062 66.156,124.896 66.362,124.714 L66.362,124.974 z M66.362,123.685 C66.203,123.889 66.031,124.032 65.689,124.032 C65.261,124.032 64.976,123.676 64.976,122.822 C64.976,122.123 65.207,121.761 65.625,121.761 C65.942,121.761 66.196,121.887 66.362,122.118 z M69.544,124.318 C69.544,123.914 69.204,123.572 68.8,123.572 C68.396,123.572 68.057,123.914 68.057,124.318 C68.057,124.721 68.396,125.062 68.8,125.062 C69.204,125.062 69.544,124.721 69.544,124.318 M73.384,124.136 L72.688,123.478 C72.404,123.818 72.133,124.007 71.705,124.007 C71.182,124.007 70.842,123.565 70.842,122.9 C70.842,122.219 71.182,121.785 71.705,121.785 C72.149,121.785 72.409,122.029 72.655,122.378 L73.375,121.649 C73.028,121.119 72.522,120.732 71.731,120.732 C70.573,120.732 69.734,121.625 69.734,122.9 C69.734,124.176 70.598,125.062 71.684,125.062 C72.504,125.062 72.982,124.674 73.384,124.136 M77.375,122.9 C77.375,121.625 76.575,120.732 75.49,120.732 C74.406,120.732 73.613,121.625 73.613,122.9 C73.613,124.176 74.406,125.062 75.49,125.062 C76.575,125.062 77.375,124.176 77.375,122.9 M76.266,122.9 C76.266,123.478 76.013,124.007 75.49,124.007 C74.966,124.007 74.722,123.542 74.722,122.9 C74.722,122.26 74.966,121.785 75.49,121.785 C76.013,121.785 76.266,122.267 76.266,122.9 M83.897,124.974 L83.897,122.63 C83.897,121.46 83.477,120.732 82.415,120.732 C81.728,120.732 81.378,120.968 81.093,121.261 C80.786,120.883 80.477,120.732 79.946,120.732 C79.511,120.732 79.226,120.896 79.037,121.096 L79.037,120.818 L77.944,120.818 L77.944,124.974 L79.037,124.974 L79.037,122.703 C79.037,121.981 79.257,121.761 79.71,121.761 C80.16,121.761 80.373,121.981 80.373,122.725 L80.373,124.974 L81.466,124.974 L81.466,122.703 C81.466,121.981 81.688,121.761 82.139,121.761 C82.59,121.761 82.804,121.981 82.804,122.725 L82.804,124.974 z" fill="#131212"/>
    <path d="M21.978,117.363 L21.978,111.823 L21.06,111.823 C20.949,112.281 20.545,112.512 19.927,112.543 L19.927,113.356 L20.878,113.356 L20.878,117.363 z M25.136,113.943 L22.865,113.943 L22.865,115.036 L25.136,115.036 z M30.433,115.647 C30.433,114.941 29.98,114.554 29.554,114.356 C29.98,114.118 30.196,113.73 30.196,113.334 C30.196,112.25 29.207,111.736 28.114,111.736 C26.949,111.736 26.031,112.289 26.031,113.381 C26.031,113.792 26.278,114.142 26.673,114.356 C26.253,114.538 25.794,114.934 25.794,115.701 C25.794,116.794 26.68,117.451 28.114,117.451 C29.547,117.451 30.433,116.761 30.433,115.647 M29.087,113.356 C29.087,113.721 28.794,113.985 28.114,113.985 C27.473,113.985 27.14,113.707 27.14,113.35 C27.14,112.992 27.425,112.694 28.114,112.694 C28.842,112.694 29.087,113.001 29.087,113.356 M29.325,115.685 C29.325,116.192 28.873,116.476 28.114,116.476 C27.409,116.476 26.902,116.183 26.902,115.676 C26.902,115.203 27.282,114.894 28.114,114.894 C28.953,114.894 29.325,115.178 29.325,115.685 M35.665,114.578 C35.665,112.891 34.849,111.736 33.338,111.736 C31.827,111.736 31.011,112.907 31.011,114.592 C31.011,116.278 31.818,117.451 33.329,117.451 C34.842,117.451 35.665,116.263 35.665,114.578 M34.54,114.592 C34.54,115.583 34.185,116.367 33.338,116.367 C32.491,116.367 32.135,115.567 32.135,114.578 C32.135,113.587 32.482,112.82 33.329,112.82 C34.176,112.82 34.54,113.603 34.54,114.592 M40.833,114.578 C40.833,112.891 40.018,111.736 38.507,111.736 C36.995,111.736 36.18,112.907 36.18,114.592 C36.18,116.278 36.987,117.451 38.498,117.451 C40.011,117.451 40.833,116.263 40.833,114.578 M39.711,114.592 C39.711,115.583 39.353,116.367 38.507,116.367 C37.66,116.367 37.304,115.567 37.304,114.578 C37.304,113.587 37.651,112.82 38.498,112.82 C39.346,112.82 39.711,113.603 39.711,114.592 M43.7,113.943 L41.427,113.943 L41.427,115.036 L43.7,115.036 z M48.964,115.218 L48.964,114.491 L46.977,114.491 L46.977,115.525 L47.855,115.525 C47.791,116.011 47.531,116.367 46.771,116.367 C45.94,116.367 45.457,115.614 45.457,114.592 C45.457,113.565 45.931,112.836 46.764,112.836 C47.364,112.836 47.617,113.143 47.824,113.556 L48.875,113.121 C48.511,112.265 47.911,111.736 46.778,111.736 C45.329,111.736 44.317,112.907 44.317,114.592 C44.317,116.343 45.291,117.451 46.739,117.451 C48.022,117.451 48.964,116.643 48.964,115.218 M54.377,114.592 C54.377,112.907 53.484,111.736 51.972,111.736 C50.459,111.736 49.564,112.907 49.564,114.592 C49.564,116.278 50.459,117.451 51.972,117.451 C53.484,117.451 54.377,116.278 54.377,114.592 M53.239,114.592 C53.239,115.583 52.866,116.349 51.972,116.349 C51.077,116.349 50.706,115.583 50.706,114.592 C50.706,113.603 51.077,112.836 51.972,112.836 C52.866,112.836 53.239,113.603 53.239,114.592 M57.266,113.943 L54.995,113.943 L54.995,115.036 L57.266,115.036 z M62.532,115.218 L62.532,114.491 L60.545,114.491 L60.545,115.525 L61.423,115.525 C61.359,116.011 61.099,116.367 60.339,116.367 C59.506,116.367 59.026,115.614 59.026,114.592 C59.026,113.565 59.499,112.836 60.33,112.836 C60.932,112.836 61.186,113.143 61.39,113.556 L62.444,113.121 C62.079,112.265 61.479,111.736 60.346,111.736 C58.897,111.736 57.884,112.907 57.884,114.592 C57.884,116.343 58.857,117.451 60.306,117.451 C61.59,117.451 62.532,116.643 62.532,115.218 M67.874,114.918 L67.874,111.823 L66.766,111.823 L66.766,114.934 C66.766,115.819 66.33,116.367 65.626,116.367 C64.921,116.367 64.494,115.805 64.494,114.918 L64.494,111.823 L63.386,111.823 L63.386,114.934 C63.386,116.547 64.288,117.451 65.626,117.451 C67.035,117.451 67.874,116.525 67.874,114.918 M73.614,117.363 L71.508,111.823 L70.432,111.823 L68.31,117.363 L69.498,117.363 L69.934,116.127 L71.96,116.127 L72.396,117.363 z M71.581,115.076 L70.314,115.076 L70.67,114.071 C70.781,113.745 70.89,113.414 70.947,113.207 C71.001,113.414 71.112,113.745 71.223,114.071 z M78.854,117.363 L77.794,115.211 C78.498,114.934 78.854,114.411 78.854,113.579 C78.854,112.4 77.992,111.823 76.947,111.823 L74.367,111.823 L74.367,117.363 L75.476,117.363 L75.476,115.369 L76.591,115.369 L77.58,117.363 z M77.716,113.603 C77.716,114.085 77.438,114.323 76.923,114.323 L75.476,114.323 L75.476,112.898 L76.923,112.898 C77.414,112.898 77.716,113.105 77.716,113.603 M84.229,114.592 C84.229,112.565 83.058,111.823 81.476,111.823 L79.742,111.823 L79.742,117.363 L81.396,117.363 C82.82,117.363 84.229,116.539 84.229,114.592 M83.089,114.592 C83.089,115.605 82.56,116.287 81.396,116.287 L80.849,116.287 L80.849,112.898 L81.436,112.898 C82.607,112.898 83.089,113.461 83.089,114.592" fill="#131212"/>
  </g>
</svg>
