<?xml version="1.0" encoding="UTF-8"?>
<!DOCTYPE svg PUBLIC "-//W3C//DTD SVG 1.1//EN" "http://www.w3.org/Graphics/SVG/1.1/DTD/svg11.dtd">
<svg version="1.1" xmlns="http://www.w3.org/2000/svg" xmlns:xlink="http://www.w3.org/1999/xlink" x="0" y="0" width="64.8" height="72" viewBox="0, 0, 64.8, 72">
  <g id="Layer_1" transform="translate(-19.851, -19.723)">
    <path d="M51.291,91.523 L22.25,78.856 C20.792,78.22 19.851,76.78 19.851,75.189 L19.851,22.123 C19.851,20.799 20.924,19.723 22.25,19.723 L82.249,19.723 C83.576,19.723 84.65,20.799 84.65,22.123 L84.65,75.189 C84.65,76.78 83.707,78.22 82.248,78.856 L53.209,91.523 C52.597,91.79 51.903,91.79 51.291,91.523" fill="#131212"/>
    <path d="M27.398,48.069 L28.738,48.069 L31.221,51.585 C31.39,51.833 31.621,52.164 31.71,52.334 C31.71,52.088 31.689,51.252 31.689,50.881 L31.689,48.069 L33.071,48.069 L33.071,54.719 L31.819,54.719 L29.25,51.091 C29.08,50.844 28.849,50.511 28.761,50.34 C28.761,50.587 28.78,51.423 28.78,51.794 L28.78,54.719 L27.398,54.719 z M37.554,49.733 L36.751,51.973 L38.355,51.973 z M36.903,48.069 L38.262,48.069 L40.924,54.719 L39.384,54.719 L38.832,53.238 L36.272,53.238 L35.721,54.719 L34.224,54.719 z M40.68,48.069 L46.102,48.069 L46.102,49.38 L44.095,49.38 L44.095,54.719 L42.691,54.719 L42.691,49.38 L40.68,49.38 z M47.46,48.069 L48.861,48.069 L48.861,54.719 L47.46,54.719 z M53.343,49.286 C52.212,49.286 51.741,50.207 51.741,51.395 C51.741,52.583 52.212,53.505 53.343,53.505 C54.473,53.505 54.943,52.583 54.943,51.395 C54.943,50.207 54.473,49.286 53.343,49.286 M53.343,47.964 C55.254,47.964 56.384,49.371 56.384,51.395 C56.384,53.417 55.254,54.824 53.343,54.824 C51.429,54.824 50.301,53.417 50.301,51.395 C50.301,49.371 51.429,47.964 53.343,47.964 M57.635,48.069 L58.973,48.069 L61.456,51.585 C61.627,51.833 61.856,52.164 61.944,52.334 C61.944,52.088 61.925,51.252 61.925,50.881 L61.925,48.069 L63.308,48.069 L63.308,54.719 L62.056,54.719 L59.484,51.091 C59.315,50.844 59.088,50.511 58.995,50.34 C58.995,50.587 59.015,51.423 59.015,51.794 L59.015,54.719 L57.635,54.719 z M67.76,49.733 L66.959,51.973 L68.56,51.973 z M67.109,48.069 L68.468,48.069 L71.13,54.719 L69.588,54.719 L69.041,53.238 L66.48,53.238 L65.929,54.719 L64.428,54.719 z M72.188,48.069 L73.591,48.069 L73.591,53.408 L77.102,53.408 L77.102,54.719 L72.188,54.719 z M31.594,67.775 C28.849,67.775 27.009,65.676 27.009,62.364 C27.009,59.173 28.926,56.955 31.671,56.955 C33.812,56.955 34.951,57.959 35.64,59.577 L33.65,60.401 C33.257,59.622 32.778,59.037 31.64,59.037 C30.066,59.037 29.167,60.416 29.167,62.364 C29.167,64.298 30.081,65.72 31.654,65.72 C33.092,65.72 33.588,65.048 33.708,64.133 L32.044,64.133 L32.044,62.17 L35.806,62.17 L35.806,63.549 C35.806,66.245 34.023,67.775 31.594,67.775 M41.711,67.775 C39.18,67.775 37.467,66.066 37.467,63.009 L37.467,57.119 L39.568,57.119 L39.568,62.979 C39.568,64.658 40.377,65.72 41.711,65.72 C43.045,65.72 43.869,64.688 43.869,63.009 L43.869,57.119 L45.967,57.119 L45.967,62.979 C45.967,66.021 44.379,67.775 41.711,67.775 M52.366,61.376 C52.156,60.76 51.946,60.131 51.842,59.741 C51.738,60.131 51.527,60.76 51.317,61.376 L50.642,63.279 L53.04,63.279 z M54.584,67.61 L53.762,65.271 L49.925,65.271 L49.098,67.61 L46.852,67.61 L50.867,57.119 L52.905,57.119 L56.894,67.61 z M63.202,59.157 L60.46,59.157 L60.46,61.855 L63.202,61.855 C64.177,61.855 64.7,61.405 64.7,60.49 C64.7,59.547 64.131,59.157 63.202,59.157 M64.448,67.61 L62.573,63.834 L60.46,63.834 L60.46,67.61 L58.361,67.61 L58.361,57.119 L63.247,57.119 C65.224,57.119 66.86,58.214 66.86,60.446 C66.86,62.019 66.183,63.009 64.85,63.534 L66.86,67.61 z M72.16,59.157 L71.052,59.157 L71.052,65.571 L72.085,65.571 C74.289,65.571 75.292,64.284 75.292,62.364 C75.292,60.221 74.38,59.157 72.16,59.157 M72.085,67.61 L68.951,67.61 L68.951,57.119 L72.233,57.119 C75.234,57.119 77.45,58.527 77.45,62.364 C77.45,66.05 74.78,67.61 72.085,67.61" fill="#FFFFFD"/>
    <path d="M77.45,69.21 L27.05,69.21 L27.05,70.21 L77.45,70.21 z M77.45,31.324 L27.05,31.324 L27.05,30.324 L77.45,30.324 z M34.208,40.164 L31.571,40.164 L32.892,36.466 z M27.398,44.692 L29.875,44.692 L30.78,42.248 L35.003,42.248 L35.908,44.692 L38.449,44.692 L34.06,33.724 L31.819,33.724 z M47.654,37.25 C47.654,38.205 47.076,38.676 46.002,38.676 L42.984,38.676 L42.984,35.854 L46.002,35.854 C47.026,35.854 47.654,36.262 47.654,37.25 M40.676,44.692 L42.984,44.692 L42.984,40.743 L45.309,40.743 L47.373,44.692 L50.027,44.692 L47.819,40.429 C49.282,39.882 50.027,38.848 50.027,37.204 C50.027,34.869 48.229,33.724 46.052,33.724 L40.676,33.724 z M53.004,44.692 L55.265,44.692 L55.265,40.665 C55.265,40.069 55.231,38.676 55.231,38.252 C55.396,38.658 55.741,39.443 56.038,40.069 L58.383,44.942 L60.724,40.069 C61.02,39.443 61.37,38.658 61.532,38.252 C61.532,38.676 61.497,40.069 61.497,40.665 L61.497,44.692 L63.807,44.692 L63.807,33.724 L61.532,33.724 L59.206,38.691 C58.91,39.317 58.579,40.117 58.431,40.524 C58.282,40.133 57.937,39.301 57.64,38.691 L55.231,33.724 L53.004,33.724 z M70.086,40.398 L70.086,44.692 L72.396,44.692 L72.396,40.352 L76.765,33.724 L74.142,33.724 L71.258,38.471 L68.369,33.724 L65.716,33.724 z M54.341,79.718 L57.721,77.265 L53.54,77.265 L52.25,73.289 L50.96,77.265 L46.779,77.265 L50.16,79.718 L48.87,83.692 L52.25,81.236 L55.63,83.692 z" fill="#F8DC4A"/>
  </g>
</svg>
