<?xml version="1.0" encoding="UTF-8"?>
<!DOCTYPE svg PUBLIC "-//W3C//DTD SVG 1.1//EN" "http://www.w3.org/Graphics/SVG/1.1/DTD/svg11.dtd">
<svg version="1.1" xmlns="http://www.w3.org/2000/svg" xmlns:xlink="http://www.w3.org/1999/xlink" x="0" y="0" width="383.56" height="54.78" viewBox="0, 0, 383.56, 54.78">
  <g id="Layer_1" transform="translate(-208.458, -277.22)">
    <g>
      <path d="M566.113,331.94 L566.113,318.246 L395.68,318.246 L395.68,290.914 L566.113,290.914 L566.113,277.22 L592.018,304.581 z" fill="#4F83FF"/>
      <path d="M234.363,332 L234.363,318.306 L397.68,318.306 L397.68,290.974 L234.363,290.974 L234.363,277.28 L208.458,304.64 z" fill="#4F83FF"/>
      <g>
        <path d="M353.093,297.924 L353.093,311.404 L356.153,311.404 L356.153,297.924 z" fill="#FFFFFF"/>
        <path d="M370.393,311.404 L373.373,311.404 L372.633,297.924 L368.653,297.924 L367.213,302.404 C366.773,303.904 366.313,305.684 365.933,307.244 L365.873,307.244 C365.573,305.664 365.153,303.964 364.733,302.424 L363.413,297.924 L359.353,297.924 L358.493,311.404 L361.313,311.404 L361.553,306.284 C361.653,304.604 361.713,302.524 361.793,300.704 L361.833,300.704 C362.153,302.464 362.613,304.384 363.053,305.984 L364.493,311.184 L366.873,311.184 L368.513,305.924 C369.033,304.344 369.593,302.424 370.013,300.704 L370.073,300.704 C370.073,302.664 370.133,304.624 370.193,306.244 z" fill="#FFFFFF"/>
        <path d="M375.713,311.404 L378.733,311.404 L378.733,306.584 C379.013,306.624 379.373,306.644 379.773,306.644 C381.573,306.644 383.113,306.204 384.153,305.224 C384.953,304.464 385.393,303.344 385.393,302.024 C385.393,300.704 384.813,299.584 383.953,298.904 C383.053,298.184 381.713,297.824 379.833,297.824 C377.973,297.824 376.653,297.944 375.713,298.104 z M378.733,300.244 C378.953,300.184 379.373,300.124 379.993,300.124 C381.513,300.124 382.373,300.864 382.373,302.104 C382.373,303.484 381.373,304.304 379.753,304.304 C379.313,304.304 378.993,304.284 378.733,304.224 z" fill="#FFFFFF"/>
        <path d="M393.273,297.704 C389.293,297.704 386.713,300.724 386.713,304.764 C386.713,308.604 389.053,311.624 393.053,311.624 C396.993,311.624 399.673,308.944 399.673,304.524 C399.673,300.804 397.413,297.704 393.273,297.704 z M393.193,300.124 C395.293,300.124 396.453,302.204 396.453,304.624 C396.453,307.244 395.273,309.204 393.213,309.204 C391.173,309.204 389.933,307.344 389.933,304.704 C389.933,302.084 391.133,300.124 393.193,300.124 z" fill="#FFFFFF"/>
        <path d="M401.673,311.404 L404.693,311.404 L404.693,306.104 L405.613,306.104 C406.853,306.124 407.433,306.584 407.793,308.264 C408.193,309.924 408.513,311.004 408.733,311.404 L411.853,311.404 C411.593,310.884 411.173,309.124 410.753,307.604 C410.413,306.364 409.893,305.464 408.953,305.084 L408.953,305.024 C410.113,304.604 411.333,303.424 411.333,301.704 C411.333,300.464 410.893,299.524 410.093,298.884 C409.133,298.124 407.733,297.824 405.733,297.824 C404.113,297.824 402.653,297.944 401.673,298.104 z M404.693,300.184 C404.913,300.144 405.333,300.084 406.073,300.084 C407.473,300.104 408.313,300.724 408.313,301.964 C408.313,303.144 407.413,303.904 405.893,303.904 L404.693,303.904 z" fill="#FFFFFF"/>
        <path d="M416.133,311.404 L419.193,311.404 L419.193,300.484 L422.873,300.484 L422.873,297.924 L412.513,297.924 L412.513,300.484 L416.133,300.484 z" fill="#FFFFFF"/>
        <path d="M430.053,307.944 L431.093,311.404 L434.373,311.404 L430.193,297.924 L426.193,297.924 L422.073,311.404 L425.233,311.404 L426.193,307.944 z M426.633,305.664 L427.433,302.804 C427.653,302.024 427.853,301.004 428.053,300.204 L428.093,300.204 C428.293,301.004 428.533,302.004 428.773,302.804 L429.613,305.664 z" fill="#FFFFFF"/>
        <path d="M438.973,311.404 L438.973,307.344 C438.973,305.144 438.933,303.244 438.853,301.464 L438.913,301.444 C439.573,303.024 440.453,304.764 441.253,306.204 L444.133,311.404 L447.333,311.404 L447.333,297.924 L444.533,297.924 L444.533,301.844 C444.533,303.884 444.593,305.704 444.793,307.484 L444.733,307.484 C444.133,305.964 443.333,304.284 442.533,302.864 L439.733,297.924 L436.173,297.924 L436.173,311.404 z" fill="#FFFFFF"/>
        <path d="M459.413,308.644 C458.813,308.884 457.793,309.084 456.873,309.084 C454.153,309.084 452.553,307.384 452.553,304.684 C452.553,301.684 454.433,300.224 456.853,300.224 C457.933,300.224 458.793,300.464 459.413,300.724 L460.033,298.304 C459.493,298.024 458.293,297.704 456.713,297.704 C452.633,297.704 449.353,300.264 449.353,304.864 C449.353,308.704 451.753,311.624 456.413,311.624 C458.053,311.624 459.313,311.304 459.873,311.024 z" fill="#FFFFFF"/>
        <path d="M469.893,303.224 L464.933,303.224 L464.933,300.424 L470.193,300.424 L470.193,297.924 L461.873,297.924 L461.873,311.404 L470.473,311.404 L470.473,308.904 L464.933,308.904 L464.933,305.704 L469.893,305.704 z" fill="#FFFFFF"/>
      </g>
      <g>
        <path d="M238.503,310.386 L238.503,306.732 C238.503,304.752 238.467,303.042 238.395,301.44 L238.449,301.422 C239.043,302.844 239.835,304.41 240.555,305.706 L243.147,310.386 L246.027,310.386 L246.027,298.254 L243.507,298.254 L243.507,301.782 C243.507,303.618 243.561,305.256 243.741,306.858 L243.687,306.858 C243.147,305.49 242.427,303.978 241.707,302.7 L239.187,298.254 L235.983,298.254 L235.983,310.386 z" fill="#FFFFFF"/>
        <path d="M252.453,301.386 C249.627,301.386 247.755,303.204 247.755,306.048 C247.755,308.892 249.735,310.584 252.309,310.584 C254.667,310.584 256.953,309.108 256.953,305.886 C256.953,303.24 255.153,301.386 252.453,301.386 z M252.381,303.33 C253.623,303.33 254.127,304.662 254.127,305.976 C254.127,307.56 253.443,308.622 252.381,308.622 C251.211,308.622 250.581,307.488 250.581,305.976 C250.581,304.68 251.067,303.33 252.381,303.33 z" fill="#FFFFFF"/>
        <path d="M259.023,299.928 L259.023,301.584 L257.853,301.584 L257.853,303.6 L259.023,303.6 L259.023,307.2 C259.023,308.442 259.275,309.288 259.779,309.81 C260.211,310.26 260.949,310.584 261.831,310.584 C262.605,310.584 263.253,310.476 263.613,310.332 L263.595,308.262 C263.325,308.316 263.163,308.334 262.785,308.334 C261.957,308.334 261.705,307.848 261.705,306.786 L261.705,303.6 L263.667,303.6 L263.667,301.584 L261.705,301.584 L261.705,299.19 z" fill="#FFFFFF"/>
        <path d="M276.231,305.184 C276.231,303.114 275.295,301.386 272.361,301.386 C270.759,301.386 269.553,301.818 268.941,302.16 L269.445,303.924 C270.021,303.564 270.975,303.258 271.875,303.258 C273.225,303.258 273.477,303.924 273.477,304.392 L273.477,304.518 C270.363,304.5 268.311,305.598 268.311,307.884 C268.311,309.288 269.373,310.584 271.155,310.584 C272.199,310.584 273.099,310.206 273.675,309.504 L273.729,309.504 L273.891,310.386 L276.357,310.386 C276.267,309.9 276.231,309.09 276.231,308.244 z M273.567,307.182 C273.567,307.344 273.549,307.506 273.513,307.65 C273.333,308.208 272.775,308.658 272.091,308.658 C271.479,308.658 271.011,308.316 271.011,307.614 C271.011,306.552 272.127,306.21 273.567,306.228 z" fill="#FFFFFF"/>
        <path d="M278.625,299.928 L278.625,301.584 L277.455,301.584 L277.455,303.6 L278.625,303.6 L278.625,307.2 C278.625,308.442 278.877,309.288 279.381,309.81 C279.813,310.26 280.551,310.584 281.433,310.584 C282.207,310.584 282.855,310.476 283.215,310.332 L283.197,308.262 C282.927,308.316 282.765,308.334 282.387,308.334 C281.559,308.334 281.307,307.848 281.307,306.786 L281.307,303.6 L283.269,303.6 L283.269,301.584 L281.307,301.584 L281.307,299.19 z" fill="#FFFFFF"/>
        <path d="M294.879,307.272 L295.815,310.386 L298.767,310.386 L295.005,298.254 L291.405,298.254 L287.697,310.386 L290.541,310.386 L291.405,307.272 z M291.801,305.22 L292.521,302.646 C292.719,301.944 292.899,301.026 293.079,300.306 L293.115,300.306 C293.295,301.026 293.511,301.926 293.727,302.646 L294.483,305.22 z" fill="#FFFFFF"/>
        <path d="M300.189,310.386 L302.925,310.386 L302.925,297.606 L300.189,297.606 z" fill="#FFFFFF"/>
        <path d="M305.139,310.386 L307.875,310.386 L307.875,297.606 L305.139,297.606 z" fill="#FFFFFF"/>
      </g>
      <g>
        <path d="M534.655,309.856 L538.741,297.724 L535.825,297.724 L534.277,302.908 C533.863,304.294 533.485,305.734 533.179,307.192 L533.125,307.192 C532.837,305.68 532.459,304.294 532.045,302.854 L530.569,297.724 L527.563,297.724 L531.451,309.856 z" fill="#FFFFFF"/>
        <path d="M546.967,306.328 C547.003,306.13 547.057,305.716 547.057,305.248 C547.057,303.07 545.977,300.856 543.133,300.856 C540.073,300.856 538.687,303.322 538.687,305.554 C538.687,308.308 540.397,310.054 543.385,310.054 C544.573,310.054 545.671,309.856 546.571,309.496 L546.211,307.642 C545.473,307.876 544.717,308.002 543.781,308.002 C542.503,308.002 541.387,307.462 541.297,306.328 z M541.279,304.456 C541.351,303.718 541.819,302.674 542.971,302.674 C544.231,302.674 544.519,303.79 544.519,304.456 z" fill="#FFFFFF"/>
        <path d="M548.695,309.856 L551.431,309.856 L551.431,305.392 C551.431,305.176 551.449,304.96 551.485,304.78 C551.665,303.934 552.349,303.394 553.357,303.394 C553.663,303.394 553.897,303.43 554.095,303.484 L554.095,300.892 C553.897,300.856 553.771,300.856 553.519,300.856 C552.673,300.856 551.593,301.396 551.143,302.674 L551.071,302.674 L550.981,301.054 L548.623,301.054 C548.659,301.81 548.695,302.656 548.695,303.952 z" fill="#FFFFFF"/>
        <path d="M554.869,301.054 L558.091,309.1 C558.199,309.316 558.217,309.46 558.217,309.55 C558.217,309.676 558.163,309.82 558.073,309.946 C557.803,310.396 557.353,310.828 556.939,311.044 C556.525,311.296 556.093,311.458 555.751,311.512 L556.327,313.834 C557.011,313.744 558.019,313.456 558.973,312.628 C559.963,311.746 560.809,310.342 562.069,306.85 L564.121,301.054 L561.187,301.054 L560.107,305.374 C559.981,305.878 559.837,306.544 559.711,307.012 L559.657,307.012 C559.549,306.544 559.369,305.896 559.225,305.374 L557.911,301.054 z" fill="#FFFFFF"/>
      </g>
    </g>
  </g>
</svg>
