<?xml version="1.0" encoding="UTF-8"?>
<!DOCTYPE svg PUBLIC "-//W3C//DTD SVG 1.1//EN" "http://www.w3.org/Graphics/SVG/1.1/DTD/svg11.dtd">
<svg version="1.1" xmlns="http://www.w3.org/2000/svg" xmlns:xlink="http://www.w3.org/1999/xlink" x="0" y="0" width="377.439" height="323.675" viewBox="0, 0, 377.439, 323.675">
  <g id="Layer_1" transform="translate(-528.347, -291.222)">
    <path d="M652.514,358.494 C652.514,358.494 654.999,358.971 656.404,359.187 C658.057,359.437 659.876,359.123 661.551,359.187 C663.961,359.281 665.855,360.06 668.472,359.83 C668.779,356.162 668.311,352.504 669.202,349.094 C670.004,346.019 671.349,342.279 672.69,339.275 C673.627,337.178 674.601,335.34 675.594,333.32 C676.035,332.428 676.011,331.945 676.442,331.262 C677.053,330.295 677.987,329.535 678.567,328.469 C680.502,324.908 683.608,322.765 686.177,319.625 C688.529,316.752 692.405,315.361 695.731,313.529 C699.496,311.449 702.874,310.164 706.997,309.457 C708.191,309.254 711.913,308.558 713.357,308.508 C714.341,308.469 717.756,308.394 718.74,308.394 C720.399,308.394 722.804,308.851 724.464,308.851 C729.361,308.851 728.462,309.142 733.164,310.111 C734.891,310.471 736.836,310.783 738.317,311.256 C740.508,311.955 742.254,312.617 744.523,313.295 C747.707,314.242 750.719,316.752 753.522,318.414 C759.809,322.144 764.842,328.785 766.948,335.795 C768.082,339.58 769.733,342.045 770.94,345.666 C772.323,349.816 772.941,354.258 772.934,358.613 C772.928,362.297 773.185,366.051 772.934,369.723 C772.688,373.314 771.399,375.668 770.111,378.738 C769.738,379.629 769.885,380.412 769.357,381.379 C768.868,382.264 768.273,382.998 767.702,383.902 C766.546,385.738 765.837,387.279 764.426,388.84 C762.976,390.447 760.181,394.031 760.181,394.031 C760.181,394.031 758.269,396.762 757.32,397.695 C756.274,398.724 754.726,400.185 753.518,400.777 C751.83,401.611 749.716,403.037 747.607,404.182 C745.769,405.178 744.151,406.758 742.272,407.662 C740.858,408.342 740.23,408.74 738.774,409.144 C737.702,409.447 735.773,410.969 734.652,411.205 C734.393,410.021 735.614,406.877 735.614,406.877 L735.77,403.139 C735.77,403.139 736.368,401.473 736.256,399.068 C735.125,401.215 734.596,401.348 733.849,402.504 C732.904,403.973 732.181,404.807 730.646,406.168 C729.025,407.609 728.482,408.863 726.752,410.174 C725.364,411.228 722.518,414.525 722.518,414.525 L716.677,420.478 C716.677,420.478 718.511,421.976 720.455,423.469 C722.58,425.098 723.475,426.238 724.992,428.336 C726.488,430.404 727.565,431.437 729.082,433.254 C730.573,435.035 732.463,436.045 733.622,438.07 C733.535,434.244 733.311,430.211 733.658,426.412 C735.371,426.232 737.743,425.842 739.461,425.629 C741.772,425.344 743.535,424.822 745.756,423.683 C748.66,422.189 750.813,421.629 753.452,419.998 C756.653,418.023 759.597,416.115 761.785,414.41 C762.931,413.517 764.471,412.301 765.641,411.506 C766.721,410.769 768.301,408.842 769.165,407.871 C770.497,406.373 771.832,405.24 772.89,403.646 C773.827,402.24 774.571,401.238 775.639,399.869 C776.571,398.676 776.912,397.81 778.043,396.435 C779.645,394.49 780.455,392.512 781.705,390.596 C783.643,387.633 784.4,384.748 785.485,381.668 C786.669,378.301 786.866,374.748 787.773,371.363 C788.537,368.517 788.704,364.957 788.919,361.976 C789.207,358.01 787.905,353.418 787.571,349.449 C787.304,346.318 786.289,343.537 785.828,340.389 C785.36,337.172 784.705,335.582 783.31,332.664 C782.643,331.271 781.806,328.465 781.02,327.17 C780.073,325.623 778.486,323.953 777.814,322.244 C776.612,319.197 774.598,316.826 772.318,314.576 C769.769,312.06 767.43,309.762 764.568,307.621 C762.938,306.402 761.261,304.871 759.688,303.564 C758.043,302.205 756.676,301.797 754.807,300.816 C750.834,298.738 748.781,297.928 744.498,296.83 C743.266,296.514 740.689,295.416 739.461,295.228 C738.065,295.017 735.471,294.033 734.196,293.623 C732.238,292.998 728.461,292.894 726.41,292.482 C722.348,291.654 719.927,293.064 715.71,293.064 C713.678,293.064 712.136,293.045 710.289,293.607 C708.077,294.279 706.024,294.877 703.668,295.133 C699.908,295.539 696.285,297.058 693.183,298.398 C689.766,299.875 686.51,300.594 683.228,302.547 C679.859,304.551 677.757,307.226 674.457,309.498 C672.994,310.506 671.44,311.556 670.168,312.816 C669.042,313.931 668.663,315.176 667.681,316.295 C666.288,317.883 664.329,319.019 663.228,321.244 C662.273,323.168 661.332,325.014 660.005,326.883 C657.375,330.594 656.629,334.519 655.039,338.656 C653.59,342.422 653.273,346.801 652.785,350.834 C652.392,354.074 652.514,358.494 652.514,358.494" fill="#8BC751"/>
    <path d="M652.514,358.494 C652.514,358.494 654.999,358.971 656.404,359.187 C658.057,359.437 659.876,359.123 661.551,359.187 C663.961,359.281 665.855,360.06 668.472,359.83 C668.779,356.162 668.311,352.504 669.202,349.094 C670.004,346.019 671.349,342.279 672.69,339.275 C673.627,337.178 674.601,335.34 675.594,333.32 C676.035,332.428 676.011,331.945 676.442,331.262 C677.053,330.295 677.987,329.535 678.567,328.469 C680.502,324.908 683.608,322.765 686.177,319.625 C688.529,316.752 692.405,315.361 695.731,313.529 C699.496,311.449 702.874,310.164 706.997,309.457 C708.191,309.254 711.913,308.558 713.357,308.508 C714.341,308.469 717.756,308.394 718.74,308.394 C720.399,308.394 722.804,308.851 724.464,308.851 C729.361,308.851 728.462,309.142 733.164,310.111 C734.891,310.471 736.836,310.783 738.317,311.256 C740.508,311.955 742.254,312.617 744.523,313.295 C747.707,314.242 750.719,316.752 753.522,318.414 C759.809,322.144 764.842,328.785 766.948,335.795 C768.082,339.58 769.733,342.045 770.94,345.666 C772.323,349.816 772.941,354.258 772.934,358.613 C772.928,362.297 773.185,366.051 772.934,369.723 C772.688,373.314 771.399,375.668 770.111,378.738 C769.738,379.629 769.885,380.412 769.357,381.379 C768.868,382.264 768.273,382.998 767.702,383.902 C766.546,385.738 765.837,387.279 764.426,388.84 C762.976,390.447 760.181,394.031 760.181,394.031 C760.181,394.031 758.269,396.762 757.32,397.695 C756.274,398.724 754.726,400.185 753.518,400.777 C751.83,401.611 749.716,403.037 747.607,404.182 C745.769,405.178 744.151,406.758 742.272,407.662 C740.858,408.342 740.23,408.74 738.774,409.144 C737.702,409.447 735.773,410.969 734.652,411.205 C734.393,410.021 735.614,406.877 735.614,406.877 L735.77,403.139 C735.77,403.139 736.368,401.473 736.256,399.068 C735.125,401.215 734.596,401.348 733.849,402.504 C732.904,403.973 732.181,404.807 730.646,406.168 C729.025,407.609 728.482,408.863 726.752,410.174 C725.364,411.228 722.518,414.525 722.518,414.525 L716.677,420.478 C716.677,420.478 718.511,421.976 720.455,423.469 C722.58,425.098 723.475,426.238 724.992,428.336 C726.488,430.404 727.565,431.437 729.082,433.254 C730.573,435.035 732.463,436.045 733.622,438.07 C733.535,434.244 733.311,430.211 733.658,426.412 C735.371,426.232 737.743,425.842 739.461,425.629 C741.772,425.344 743.535,424.822 745.756,423.683 C748.66,422.189 750.813,421.629 753.452,419.998 C756.653,418.023 759.597,416.115 761.785,414.41 C762.931,413.517 764.471,412.301 765.641,411.506 C766.721,410.769 768.301,408.842 769.165,407.871 C770.497,406.373 771.832,405.24 772.89,403.646 C773.827,402.24 774.571,401.238 775.639,399.869 C776.571,398.676 776.912,397.81 778.043,396.435 C779.645,394.49 780.455,392.512 781.705,390.596 C783.643,387.633 784.4,384.748 785.485,381.668 C786.669,378.301 786.866,374.748 787.773,371.363 C788.537,368.517 788.704,364.957 788.919,361.976 C789.207,358.01 787.905,353.418 787.571,349.449 C787.304,346.318 786.289,343.537 785.828,340.389 C785.36,337.172 784.705,335.582 783.31,332.664 C782.643,331.271 781.806,328.465 781.02,327.17 C780.073,325.623 778.486,323.953 777.814,322.244 C776.612,319.197 774.598,316.826 772.318,314.576 C769.769,312.06 767.43,309.762 764.568,307.621 C762.938,306.402 761.261,304.871 759.688,303.564 C758.043,302.205 756.676,301.797 754.807,300.816 C750.834,298.738 748.781,297.928 744.498,296.83 C743.266,296.514 740.689,295.416 739.461,295.228 C738.065,295.017 735.471,294.033 734.196,293.623 C732.238,292.998 728.461,292.894 726.41,292.482 C722.348,291.654 719.927,293.064 715.71,293.064 C713.678,293.064 712.136,293.045 710.289,293.607 C708.077,294.279 706.024,294.877 703.668,295.133 C699.908,295.539 696.285,297.058 693.183,298.398 C689.766,299.875 686.51,300.594 683.228,302.547 C679.859,304.551 677.757,307.226 674.457,309.498 C672.994,310.506 671.44,311.556 670.168,312.816 C669.042,313.931 668.663,315.176 667.681,316.295 C666.288,317.883 664.329,319.019 663.228,321.244 C662.273,323.168 661.332,325.014 660.005,326.883 C657.375,330.594 656.629,334.519 655.039,338.656 C653.59,342.422 653.273,346.801 652.785,350.834 C652.392,354.074 652.514,358.494 652.514,358.494 z" fill-opacity="0" stroke="#00A651" stroke-width="1.088"/>
    <path d="M711.525,414.633 C711.525,414.633 705.003,408.69 701.677,406.856 C697.91,404.779 698.816,403.899 694.693,403.192 C693.501,402.99 688.007,401.299 686.565,401.246 C685.58,401.207 682.171,400.553 681.187,400.553 C679.528,400.553 677.694,400.322 676.034,400.322 C671.137,400.322 666.311,401.301 661.609,402.268 C659.882,402.629 657.25,403.858 655.77,404.33 C653.579,405.029 652.866,405.783 650.595,406.461 C647.411,407.408 644.399,409.918 641.598,411.58 C635.31,415.311 630.275,421.951 628.171,428.961 C627.036,432.746 625.385,435.211 624.179,438.832 C622.795,442.983 622.178,447.424 622.185,451.779 C622.19,455.463 623.114,459.168 623.365,462.84 C623.611,466.432 625.629,469.276 626.917,472.344 C627.289,473.235 628.56,474.924 629.09,475.895 C629.578,476.778 630.582,478.651 631.151,479.557 C632.308,481.391 632.717,482.233 634.128,483.793 C635.579,485.403 637.418,488.01 638.365,488.944 C639.412,489.973 641.279,492.473 642.486,493.067 C644.173,493.899 645.402,496.203 647.511,497.348 C649.351,498.344 650.969,499.924 652.845,500.828 C654.26,501.508 655.881,501.641 657.337,502.045 C658.41,502.346 659.296,502.908 660.417,503.141 C660.675,501.959 659.785,501.153 659.504,500.043 C659.203,498.856 659.531,497.504 659.348,496.303 C659.32,496.117 659.355,495.856 658.513,492.149 C660.573,493.871 660.349,493.881 661.377,495.471 C662.353,496.988 663.453,497.778 664.81,498.981 C666.43,500.422 667.941,501.426 669.671,502.735 C671.059,503.787 671.452,504.858 673.644,507.045 C676.259,509.666 677.289,510.012 680.949,513.211 C678.649,514.176 676.607,515.141 674.662,516.635 C672.539,518.264 671.643,519.403 670.129,521.5 C668.631,523.569 667.554,524.604 666.037,526.418 C664.546,528.201 662.655,529.209 661.497,531.237 C661.582,527.41 661.807,523.377 661.461,519.578 C659.747,519.399 657.486,518.352 655.767,518.139 C653.457,517.854 650.89,516.188 648.668,515.049 C645.763,513.555 643.178,512.785 640.54,511.154 C637.855,509.498 635.736,508.664 633.151,506.649 C632.005,505.756 630.946,504.395 629.777,503.6 C628.698,502.865 627.435,501.133 626.571,500.164 C625.238,498.664 624.28,497.799 623.221,496.207 C622.286,494.801 621.098,493.469 620.03,492.1 C619.098,490.906 618.428,490.524 617.917,488.821 C617.293,486.76 616.639,485.322 615.389,483.408 C613.454,480.444 612.211,477.719 611.127,474.639 C609.94,471.274 609.501,468.028 608.592,464.643 C607.828,461.795 607.783,458.139 607.568,455.158 C607.281,451.19 607.213,446.584 607.549,442.612 C607.814,439.483 608.831,436.703 609.29,433.555 C609.758,430.336 611.322,429.113 612.718,426.197 C613.385,424.803 613.535,422.567 614.322,421.274 C615.267,419.729 616.97,418.287 617.643,416.578 C618.845,413.531 620.974,410.586 623.253,408.336 C625.802,405.82 627.687,402.928 630.55,400.789 C632.181,399.569 633.857,398.035 635.43,396.731 C637.076,395.371 638.442,394.963 640.311,393.983 C644.284,391.904 645.191,390.555 649.472,389.455 C650.706,389.139 655.114,387.235 656.341,387.047 C657.74,386.838 660.448,385.963 661.724,385.555 C663.679,384.93 667.906,384.524 670.998,384.408 C675.141,384.254 675.252,384.295 679.468,384.295 C681.501,384.295 685.408,384.762 687.254,385.324 C689.466,385.998 693.369,387.703 695.724,387.957 C699.483,388.365 700.977,389.258 704.081,390.6 C707.498,392.076 708.608,393.76 711.89,395.713 C713.863,396.887 722.972,403.192 722.972,403.192 z" fill="#5B7FAD"/>
    <path d="M711.525,414.633 C711.525,414.633 705.003,408.69 701.677,406.856 C697.91,404.779 698.816,403.899 694.693,403.192 C693.501,402.99 688.007,401.299 686.565,401.246 C685.58,401.207 682.171,400.553 681.187,400.553 C679.528,400.553 677.694,400.322 676.034,400.322 C671.137,400.322 666.311,401.301 661.609,402.268 C659.882,402.629 657.25,403.858 655.77,404.33 C653.579,405.029 652.866,405.783 650.595,406.461 C647.411,407.408 644.399,409.918 641.598,411.58 C635.31,415.311 630.275,421.951 628.171,428.961 C627.036,432.746 625.385,435.211 624.179,438.832 C622.795,442.983 622.178,447.424 622.185,451.779 C622.19,455.463 623.114,459.168 623.365,462.84 C623.611,466.432 625.629,469.276 626.917,472.344 C627.289,473.235 628.56,474.924 629.09,475.895 C629.578,476.778 630.582,478.651 631.151,479.557 C632.308,481.391 632.717,482.233 634.128,483.793 C635.579,485.403 637.418,488.01 638.365,488.944 C639.412,489.973 641.279,492.473 642.486,493.067 C644.173,493.899 645.402,496.203 647.511,497.348 C649.351,498.344 650.969,499.924 652.845,500.828 C654.26,501.508 655.881,501.641 657.337,502.045 C658.41,502.346 659.296,502.908 660.417,503.141 C660.675,501.959 659.785,501.153 659.504,500.043 C659.203,498.856 659.531,497.504 659.348,496.303 C659.32,496.117 659.355,495.856 658.513,492.149 C660.573,493.871 660.349,493.881 661.377,495.471 C662.353,496.988 663.453,497.778 664.81,498.981 C666.43,500.422 667.941,501.426 669.671,502.735 C671.059,503.787 671.452,504.858 673.644,507.045 C676.259,509.666 677.289,510.012 680.949,513.211 C678.649,514.176 676.607,515.141 674.662,516.635 C672.539,518.264 671.643,519.403 670.129,521.5 C668.631,523.569 667.554,524.604 666.037,526.418 C664.546,528.201 662.655,529.209 661.497,531.237 C661.582,527.41 661.807,523.377 661.461,519.578 C659.747,519.399 657.486,518.352 655.767,518.139 C653.457,517.854 650.89,516.188 648.668,515.049 C645.763,513.555 643.178,512.785 640.54,511.154 C637.855,509.498 635.736,508.664 633.151,506.649 C632.005,505.756 630.946,504.395 629.777,503.6 C628.698,502.865 627.435,501.133 626.571,500.164 C625.238,498.664 624.28,497.799 623.221,496.207 C622.286,494.801 621.098,493.469 620.03,492.1 C619.098,490.906 618.428,490.524 617.917,488.821 C617.293,486.76 616.639,485.322 615.389,483.408 C613.454,480.444 612.211,477.719 611.127,474.639 C609.94,471.274 609.501,468.028 608.592,464.643 C607.828,461.795 607.783,458.139 607.568,455.158 C607.281,451.19 607.213,446.584 607.549,442.612 C607.814,439.483 608.831,436.703 609.29,433.555 C609.758,430.336 611.322,429.113 612.718,426.197 C613.385,424.803 613.535,422.567 614.322,421.274 C615.267,419.729 616.97,418.287 617.643,416.578 C618.845,413.531 620.974,410.586 623.253,408.336 C625.802,405.82 627.687,402.928 630.55,400.789 C632.181,399.569 633.857,398.035 635.43,396.731 C637.076,395.371 638.442,394.963 640.311,393.983 C644.284,391.904 645.191,390.555 649.472,389.455 C650.706,389.139 655.114,387.235 656.341,387.047 C657.74,386.838 660.448,385.963 661.724,385.555 C663.679,384.93 667.906,384.524 670.998,384.408 C675.141,384.254 675.252,384.295 679.468,384.295 C681.501,384.295 685.408,384.762 687.254,385.324 C689.466,385.998 693.369,387.703 695.724,387.957 C699.483,388.365 700.977,389.258 704.081,390.6 C707.498,392.076 708.608,393.76 711.89,395.713 C713.863,396.887 722.972,403.192 722.972,403.192 L711.525,414.633 z" fill-opacity="0" stroke="#005F94" stroke-width="1.088"/>
    <path d="M768.524,522.717 C767.186,521.221 767.067,518.516 766.074,516.899 C764.931,515.049 759.75,508.764 757.976,507.504 C756.703,506.6 752.052,502.227 750.343,501.422 C747.642,500.154 740.289,496.58 739.381,495.971 C737.482,494.699 735.158,494.276 733.181,493.354 C731.498,492.565 729.206,492.502 727.31,492.315 C725.761,492.162 723.967,492.153 722.402,492.262 C720.52,492.395 718.634,492.592 716.753,492.846 C715.822,492.971 714.841,492.735 713.921,492.887 C713.184,493.01 712.98,493.182 712.307,493.305 C710.938,493.563 709.358,493.125 708.005,493.498 C706.68,493.862 705.321,494.475 703.922,494.871 C700.947,495.719 697.98,496.504 695.224,497.977 C692.883,499.231 690.543,500.619 688.851,502.547 C687.707,503.85 686.351,504.549 685.526,506.149 C683.866,504.871 681.962,503.231 680.257,501.668 C679.334,500.819 675.531,498.793 675.53,497.621 C674.871,497.242 673.762,496.586 673.673,495.787 C673.554,494.731 675.468,493.336 676.295,492.578 C678.583,490.481 681.174,489.367 683.685,487.627 C684.811,486.842 686.092,486.172 687.017,485.127 C688.243,483.748 697.207,479.91 700.817,479.199 C706.005,478.178 709.841,476.928 714.601,476.953 C718.925,476.973 722.969,477.571 727.214,478.227 C729.479,478.576 731.759,479.084 734.008,479.651 C737.301,480.483 740.795,480.6 744.203,481.106 C746.143,481.391 747.207,482.125 748.784,483.174 C751.205,484.778 753.75,486.309 756.39,487.588 C757.866,488.303 759.005,488.774 760.353,489.83 C762.437,491.457 764.385,491.828 766.279,493.703 C768.53,495.934 770.962,498.801 773.427,500.651 C775.399,502.131 776.253,505.483 778.183,506.934 C779.429,507.867 780.878,510.276 780.989,511.887 L781.118,512.002 C782.107,513.41 782.802,515.803 783.768,517.242 C785.07,519.17 785.495,522.199 786.095,524.627 C786.875,527.799 787.988,530.258 788.491,533.317 C788.999,536.43 789.762,538.572 789.937,541.848 C790.016,543.297 789.681,544.99 789.845,546.395 C790.002,547.692 789.52,549.78 789.358,551.067 C789.101,553.061 789.078,554.348 788.57,556.19 C788.123,557.822 787.897,559.59 787.564,561.295 C787.278,562.783 787.425,563.539 786.475,565.041 C785.328,566.865 784.674,568.299 784.049,570.5 C783.083,573.906 781.842,576.629 780.228,579.471 C778.466,582.574 776.306,585.037 774.347,587.942 C772.698,590.385 769.971,592.819 767.859,594.938 C765.053,597.758 761.625,600.83 758.408,603.182 C755.869,605.035 753.107,606.092 750.429,607.811 C747.69,609.567 745.746,609.194 742.626,610.053 C741.134,610.461 739.35,611.817 737.859,612.071 C736.071,612.371 733.866,612.031 732.136,612.647 C729.046,613.737 725.428,614.063 722.234,613.821 C718.665,613.545 715.242,614.022 711.752,613.266 C709.763,612.832 707.505,612.574 705.486,612.246 C703.382,611.895 702.174,611.133 700.209,610.362 C696.034,608.727 694.42,608.93 690.783,606.422 C689.74,605.696 685.411,603.619 684.461,602.813 C683.384,601.897 680.945,600.424 679.802,599.731 C678.045,598.666 674.964,595.742 672.849,593.485 C670.018,590.461 669.976,590.35 667.209,587.168 C665.874,585.633 663.663,582.381 662.878,580.615 C661.932,578.508 660.664,574.44 659.308,572.496 C657.146,569.391 656.842,567.68 655.818,564.457 C654.693,560.91 655.232,558.969 654.553,555.207 C654.145,552.949 652.929,541.936 652.929,541.936 L669.074,543.071 C669.074,543.071 668.869,551.891 669.661,555.606 C670.568,559.813 669.309,559.703 671.48,563.281 C672.113,564.313 674.44,569.569 675.347,570.688 C675.961,571.457 677.705,574.463 678.347,575.207 C679.439,576.457 680.468,577.992 681.557,579.246 C684.766,582.942 688.673,585.938 692.491,588.856 C693.895,589.922 696.554,591.1 697.878,591.906 C699.843,593.104 700.879,593.147 702.879,594.414 C705.685,596.197 709.556,596.824 712.647,597.846 C719.586,600.143 727.904,599.59 734.572,596.574 C738.172,594.947 741.118,594.578 744.64,593.112 C748.682,591.434 752.438,588.987 755.72,586.123 C758.498,583.703 760.689,580.574 763.295,577.971 C765.842,575.432 766.668,572.045 768.137,569.061 C768.564,568.194 769.005,566.123 769.388,565.092 C769.734,564.143 770.492,562.156 770.8,561.131 C771.429,559.055 771.791,558.194 772.047,556.108 C772.308,553.953 773.069,550.858 773.153,549.528 C773.241,548.063 773.904,545.012 773.56,543.715 C773.084,541.891 774.015,539.455 773.496,537.112 C773.039,535.069 773.17,532.811 772.619,530.805 C772.208,529.289 771.246,527.979 770.593,526.615 C770.115,525.608 769.957,524.569 769.402,523.572 z" fill="#F1626E"/>
    <path d="M768.524,522.717 C767.186,521.221 767.067,518.516 766.074,516.899 C764.931,515.049 759.75,508.764 757.976,507.504 C756.703,506.6 752.052,502.227 750.343,501.422 C747.642,500.154 740.289,496.58 739.381,495.971 C737.482,494.699 735.158,494.276 733.181,493.354 C731.498,492.565 729.206,492.502 727.31,492.315 C725.761,492.162 723.967,492.153 722.402,492.262 C720.52,492.395 718.634,492.592 716.753,492.846 C715.822,492.971 714.841,492.735 713.921,492.887 C713.184,493.01 712.98,493.182 712.307,493.305 C710.938,493.563 709.358,493.125 708.005,493.498 C706.68,493.862 705.321,494.475 703.922,494.871 C700.947,495.719 697.98,496.504 695.224,497.977 C692.883,499.231 690.543,500.619 688.851,502.547 C687.707,503.85 686.351,504.549 685.526,506.149 C683.866,504.871 681.962,503.231 680.257,501.668 C679.334,500.819 675.531,498.793 675.53,497.621 C674.871,497.242 673.762,496.586 673.673,495.787 C673.554,494.731 675.468,493.336 676.295,492.578 C678.583,490.481 681.174,489.367 683.685,487.627 C684.811,486.842 686.092,486.172 687.017,485.127 C688.243,483.748 697.207,479.91 700.817,479.199 C706.005,478.178 709.841,476.928 714.601,476.953 C718.925,476.973 722.969,477.571 727.214,478.227 C729.479,478.576 731.759,479.084 734.008,479.651 C737.301,480.483 740.795,480.6 744.203,481.106 C746.143,481.391 747.207,482.125 748.784,483.174 C751.205,484.778 753.75,486.309 756.39,487.588 C757.866,488.303 759.005,488.774 760.353,489.83 C762.437,491.457 764.385,491.828 766.279,493.703 C768.53,495.934 770.962,498.801 773.427,500.651 C775.399,502.131 776.253,505.483 778.183,506.934 C779.429,507.867 780.878,510.276 780.989,511.887 L781.118,512.002 C782.107,513.41 782.802,515.803 783.768,517.242 C785.07,519.17 785.495,522.199 786.095,524.627 C786.875,527.799 787.988,530.258 788.491,533.317 C788.999,536.43 789.762,538.572 789.937,541.848 C790.016,543.297 789.681,544.99 789.845,546.395 C790.002,547.692 789.52,549.78 789.358,551.067 C789.101,553.061 789.078,554.348 788.57,556.19 C788.123,557.822 787.897,559.59 787.564,561.295 C787.278,562.783 787.425,563.539 786.475,565.041 C785.328,566.865 784.674,568.299 784.049,570.5 C783.083,573.906 781.842,576.629 780.228,579.471 C778.466,582.574 776.306,585.037 774.347,587.942 C772.698,590.385 769.971,592.819 767.859,594.938 C765.053,597.758 761.625,600.83 758.408,603.182 C755.869,605.035 753.107,606.092 750.429,607.811 C747.69,609.567 745.746,609.194 742.626,610.053 C741.134,610.461 739.35,611.817 737.859,612.071 C736.071,612.371 733.866,612.031 732.136,612.647 C729.046,613.737 725.428,614.063 722.234,613.821 C718.665,613.545 715.242,614.022 711.752,613.266 C709.763,612.832 707.505,612.574 705.486,612.246 C703.382,611.895 702.174,611.133 700.209,610.362 C696.034,608.727 694.42,608.93 690.783,606.422 C689.74,605.696 685.411,603.619 684.461,602.813 C683.384,601.897 680.945,600.424 679.802,599.731 C678.045,598.666 674.964,595.742 672.849,593.485 C670.018,590.461 669.976,590.35 667.209,587.168 C665.874,585.633 663.663,582.381 662.878,580.615 C661.932,578.508 660.664,574.44 659.308,572.496 C657.146,569.391 656.842,567.68 655.818,564.457 C654.693,560.91 655.232,558.969 654.553,555.207 C654.145,552.949 652.929,541.936 652.929,541.936 L669.074,543.071 C669.074,543.071 668.869,551.891 669.661,555.606 C670.568,559.813 669.309,559.703 671.48,563.281 C672.113,564.313 674.44,569.569 675.347,570.688 C675.961,571.457 677.705,574.463 678.347,575.207 C679.439,576.457 680.468,577.992 681.557,579.246 C684.766,582.942 688.673,585.938 692.491,588.856 C693.895,589.922 696.554,591.1 697.878,591.906 C699.843,593.104 700.879,593.147 702.879,594.414 C705.685,596.197 709.556,596.824 712.647,597.846 C719.586,600.143 727.904,599.59 734.572,596.574 C738.172,594.947 741.118,594.578 744.64,593.112 C748.682,591.434 752.438,588.987 755.72,586.123 C758.498,583.703 760.689,580.574 763.295,577.971 C765.842,575.432 766.668,572.045 768.137,569.061 C768.564,568.194 769.005,566.123 769.388,565.092 C769.734,564.143 770.492,562.156 770.8,561.131 C771.429,559.055 771.791,558.194 772.047,556.108 C772.308,553.953 773.069,550.858 773.153,549.528 C773.241,548.063 773.904,545.012 773.56,543.715 C773.084,541.891 774.015,539.455 773.496,537.112 C773.039,535.069 773.17,532.811 772.619,530.805 C772.208,529.289 771.246,527.979 770.593,526.615 C770.115,525.608 769.957,524.569 769.402,523.572 L768.524,522.717 z" fill-opacity="0" stroke="#ED1C24" stroke-width="1.088"/>
    <path d="M692.474,340.794 L699.049,340.794 L699.049,342.789 L694.915,342.789 L694.915,345.247 L698.778,345.247 L698.778,347.227 L694.915,347.227 L694.915,351.552 L692.474,351.552 z" fill="#000000"/>
    <path d="M700.487,346.316 C700.487,345.168 700.455,344.417 700.424,343.747 L702.514,343.747 L702.593,345.183 L702.658,345.183 C703.056,344.049 704.014,343.571 704.764,343.571 C704.988,343.571 705.099,343.571 705.275,343.603 L705.275,345.901 C705.099,345.853 704.892,345.822 704.621,345.822 C703.727,345.822 703.121,346.3 702.961,347.05 C702.929,347.211 702.913,347.402 702.913,347.593 L702.913,351.551 L700.487,351.551 z" fill="#000000"/>
    <path d="M706.554,343.747 L708.98,343.747 L708.98,351.552 L706.554,351.552 z M706.554,351.552 M709.06,341.576 C709.06,342.247 708.549,342.789 707.751,342.789 C706.984,342.789 706.474,342.247 706.49,341.576 C706.474,340.874 706.984,340.348 707.767,340.348 C708.549,340.348 709.044,340.874 709.06,341.576" fill="#000000"/>
    <path d="M715.652,346.764 C715.652,346.173 715.396,345.184 714.279,345.184 C713.257,345.184 712.842,346.11 712.779,346.764 z M712.795,348.424 C712.875,349.429 713.864,349.909 714.998,349.909 C715.828,349.909 716.498,349.796 717.152,349.589 L717.471,351.233 C716.673,351.552 715.7,351.728 714.646,351.728 C711.997,351.728 710.48,350.179 710.48,347.738 C710.48,345.758 711.71,343.572 714.423,343.572 C716.945,343.572 717.902,345.535 717.902,347.466 C717.902,347.881 717.854,348.248 717.822,348.424 z" fill="#000000"/>
    <path d="M719.357,346.237 C719.357,345.263 719.325,344.433 719.294,343.747 L721.4,343.747 L721.511,344.816 L721.559,344.816 C721.878,344.321 722.676,343.571 723.969,343.571 C725.566,343.571 726.762,344.625 726.762,346.923 L726.762,351.551 L724.336,351.551 L724.336,347.226 C724.336,346.22 723.986,345.534 723.108,345.534 C722.437,345.534 722.039,345.997 721.878,346.444 C721.815,346.603 721.783,346.827 721.783,347.05 L721.783,351.551 L719.357,351.551 z" fill="#000000"/>
    <path d="M733.852,347.051 C733.852,346.923 733.835,346.748 733.82,346.62 C733.676,345.966 733.15,345.423 732.399,345.423 C731.298,345.423 730.723,346.412 730.723,347.642 C730.723,348.966 731.377,349.796 732.383,349.796 C733.085,349.796 733.644,349.318 733.788,348.631 C733.835,348.455 733.852,348.28 733.852,348.072 z M736.278,340.22 L736.278,349.222 C736.278,350.1 736.31,351.026 736.341,351.552 L734.187,351.552 L734.075,350.403 L734.043,350.403 C733.548,351.28 732.607,351.728 731.601,351.728 C729.749,351.728 728.265,350.148 728.265,347.721 C728.249,345.088 729.893,343.572 731.761,343.572 C732.718,343.572 733.468,343.906 733.82,344.449 L733.852,344.449 L733.852,340.22 z" fill="#000000"/>
    <path d="M738.227,340.22 L740.653,340.22 L740.653,351.552 L738.227,351.552 z" fill="#000000"/>
    <path d="M744.437,343.747 L745.602,347.577 C745.729,348.04 745.888,348.615 745.984,349.03 L746.034,349.03 C746.145,348.615 746.273,348.024 746.383,347.577 L747.341,343.747 L749.943,343.747 L748.125,348.887 C747.005,351.982 746.255,353.227 745.378,354.01 C744.533,354.744 743.638,354.999 743.033,355.079 L742.521,353.02 C742.825,352.973 743.208,352.828 743.576,352.605 C743.942,352.414 744.341,352.03 744.581,351.632 C744.661,351.519 744.708,351.393 744.708,351.28 C744.708,351.2 744.693,351.073 744.596,350.882 L741.74,343.747 z" fill="#000000"/>
    <path d="M691.985,359.04 L691.985,361.163 L693.725,361.163 L693.725,362.95 L691.985,362.95 L691.985,365.775 C691.985,366.718 692.209,367.148 692.943,367.148 C693.278,367.148 693.422,367.132 693.662,367.084 L693.677,368.92 C693.358,369.048 692.784,369.144 692.097,369.144 C691.315,369.144 690.661,368.856 690.278,368.457 C689.831,367.994 689.607,367.244 689.607,366.143 L689.607,362.95 L688.57,362.95 L688.57,361.163 L689.607,361.163 L689.607,359.694 z" fill="#000000"/>
    <path d="M699.776,364.18 C699.776,363.589 699.52,362.6 698.403,362.6 C697.381,362.6 696.966,363.526 696.903,364.18 z M696.919,365.84 C696.999,366.845 697.988,367.325 699.122,367.325 C699.951,367.325 700.622,367.212 701.276,367.005 L701.595,368.649 C700.797,368.968 699.824,369.144 698.77,369.144 C696.121,369.144 694.604,367.595 694.604,365.154 C694.604,363.174 695.834,360.988 698.547,360.988 C701.069,360.988 702.026,362.951 702.026,364.882 C702.026,365.297 701.978,365.664 701.946,365.84 z" fill="#000000"/>
    <path d="M707.63,365.281 C706.354,365.264 705.364,365.568 705.364,366.51 C705.364,367.132 705.778,367.435 706.321,367.435 C706.928,367.435 707.423,367.036 707.582,366.542 C707.614,366.414 707.63,366.27 707.63,366.127 z M709.992,367.068 C709.992,367.818 710.025,368.537 710.105,368.968 L707.918,368.968 L707.774,368.185 L707.726,368.185 C707.215,368.808 706.417,369.143 705.491,369.143 C703.911,369.143 702.97,367.994 702.97,366.749 C702.97,364.722 704.789,363.749 707.551,363.764 L707.551,363.653 C707.551,363.238 707.327,362.647 706.13,362.647 C705.332,362.647 704.486,362.919 703.976,363.238 L703.528,361.674 C704.071,361.37 705.141,360.987 706.561,360.987 C709.162,360.987 709.992,362.519 709.992,364.355 z" fill="#000000"/>
    <path d="M711.894,366.845 C712.34,367.116 713.266,367.436 713.985,367.436 C714.718,367.436 715.022,367.18 715.022,366.782 C715.022,366.382 714.783,366.191 713.873,365.888 C712.261,365.345 711.638,364.467 711.654,363.557 C711.654,362.089 712.899,360.988 714.831,360.988 C715.74,360.988 716.554,361.196 717.033,361.435 L716.602,363.111 C716.25,362.919 715.581,362.663 714.911,362.663 C714.32,362.663 713.985,362.903 713.985,363.302 C713.985,363.669 714.288,363.861 715.246,364.196 C716.73,364.706 717.352,365.456 717.369,366.606 C717.369,368.058 716.219,369.144 713.985,369.144 C712.964,369.144 712.053,368.905 711.462,368.585 z" fill="#000000"/>
    <path d="M718.838,361.163 L721.264,361.163 L721.264,368.968 L718.838,368.968 z M718.838,368.968 M721.344,358.992 C721.344,359.663 720.833,360.205 720.035,360.205 C719.269,360.205 718.758,359.663 718.774,358.992 C718.758,358.29 719.269,357.764 720.051,357.764 C720.833,357.764 721.328,358.29 721.344,358.992" fill="#000000"/>
    <path d="M723.212,363.653 C723.212,362.679 723.18,361.849 723.149,361.163 L725.255,361.163 L725.366,362.232 L725.414,362.232 C725.733,361.737 726.531,360.987 727.824,360.987 C729.421,360.987 730.617,362.041 730.617,364.339 L730.617,368.967 L728.191,368.967 L728.191,364.642 C728.191,363.636 727.841,362.95 726.963,362.95 C726.292,362.95 725.894,363.413 725.733,363.86 C725.67,364.019 725.638,364.243 725.638,364.466 L725.638,368.967 L723.212,368.967 z" fill="#000000"/>
    <path d="M737.531,364.339 C737.531,364.18 737.515,364.02 737.483,363.893 C737.307,363.254 736.844,362.823 736.175,362.823 C735.297,362.823 734.578,363.621 734.578,365.041 C734.578,366.207 735.153,367.116 736.175,367.116 C736.797,367.116 737.292,366.701 737.451,366.127 C737.515,365.951 737.531,365.696 737.531,365.488 z M739.957,367.835 C739.957,369.335 739.654,370.564 738.776,371.346 C737.914,372.08 736.749,372.304 735.599,372.304 C734.578,372.304 733.493,372.096 732.791,371.697 L733.269,369.861 C733.764,370.149 734.626,370.452 735.536,370.452 C736.685,370.452 737.563,369.83 737.563,368.394 L737.563,367.883 L737.531,367.883 C737.068,368.537 736.318,368.904 735.424,368.904 C733.493,368.904 732.12,367.34 732.12,365.089 C732.12,362.584 733.748,360.987 735.664,360.987 C736.733,360.987 737.403,361.45 737.802,362.089 L737.834,362.089 L737.914,361.163 L740.021,361.163 C739.989,361.658 739.957,362.313 739.957,363.478 z" fill="#000000"/>
    <path d="M742.863,369.144 C742.05,369.144 741.459,368.521 741.459,367.675 C741.459,366.814 742.05,366.191 742.895,366.191 C743.741,366.191 744.316,366.797 744.316,367.675 C744.316,368.521 743.741,369.144 742.88,369.144 z" fill="#000000"/>
    <path d="M747.015,369.144 C746.202,369.144 745.611,368.521 745.611,367.675 C745.611,366.814 746.202,366.191 747.047,366.191 C747.893,366.191 748.468,366.797 748.468,367.675 C748.468,368.521 747.893,369.144 747.032,369.144 z" fill="#000000"/>
    <path d="M751.165,369.144 C750.352,369.144 749.761,368.521 749.761,367.675 C749.761,366.814 750.352,366.191 751.197,366.191 C752.043,366.191 752.618,366.797 752.618,367.675 C752.618,368.521 752.043,369.144 751.182,369.144 z" fill="#000000"/>
    <path d="M639.204,436.894 L641.63,436.894 L641.63,444.699 L639.204,444.699 z M639.204,444.698 M641.71,434.723 C641.71,435.394 641.199,435.936 640.401,435.936 C639.635,435.936 639.124,435.394 639.141,434.723 C639.124,434.021 639.635,433.494 640.417,433.494 C641.199,433.494 641.694,434.021 641.71,434.723" fill="#000000"/>
    <path d="M643.85,444.698 L643.85,438.68 L642.829,438.68 L642.829,436.893 L643.85,436.893 L643.85,436.59 C643.85,435.648 644.137,434.611 644.839,433.972 C645.446,433.398 646.291,433.19 646.995,433.19 C647.537,433.19 647.952,433.255 648.287,433.35 L648.191,435.218 C647.984,435.153 647.728,435.105 647.409,435.105 C646.611,435.105 646.276,435.728 646.276,436.494 L646.276,436.893 L647.84,436.893 L647.84,438.68 L646.291,438.68 L646.291,444.698 z" fill="#000000"/>
    <path d="M657.386,440.197 C657.386,440.069 657.369,439.894 657.354,439.766 C657.21,439.112 656.684,438.569 655.933,438.569 C654.832,438.569 654.257,439.558 654.257,440.788 C654.257,442.112 654.911,442.942 655.917,442.942 C656.619,442.942 657.178,442.464 657.322,441.777 C657.369,441.601 657.386,441.426 657.386,441.218 z M659.812,433.366 L659.812,442.368 C659.812,443.246 659.844,444.172 659.875,444.698 L657.721,444.698 L657.609,443.549 L657.577,443.549 C657.082,444.426 656.141,444.874 655.135,444.874 C653.283,444.874 651.799,443.294 651.799,440.867 C651.783,438.234 653.427,436.718 655.295,436.718 C656.252,436.718 657.002,437.052 657.354,437.595 L657.386,437.595 L657.386,433.366 z" fill="#000000"/>
    <path d="M663.819,440.788 C663.819,442.129 664.378,443.134 665.416,443.134 C666.357,443.134 666.964,442.192 666.964,440.788 C666.964,439.623 666.516,438.441 665.416,438.441 C664.251,438.441 663.819,439.639 663.819,440.788 M669.469,440.708 C669.469,443.565 667.442,444.874 665.351,444.874 C663.069,444.874 661.313,443.373 661.313,440.851 C661.313,438.33 662.973,436.718 665.479,436.718 C667.874,436.718 669.469,438.362 669.469,440.708" fill="#000000"/>
    <path d="M670.973,439.384 C670.973,438.41 670.941,437.58 670.91,436.894 L673.016,436.894 L673.127,437.963 L673.175,437.963 C673.494,437.468 674.292,436.718 675.585,436.718 C677.182,436.718 678.378,437.772 678.378,440.07 L678.378,444.698 L675.952,444.698 L675.952,440.373 C675.952,439.367 675.602,438.681 674.724,438.681 C674.053,438.681 673.655,439.144 673.494,439.591 C673.431,439.75 673.399,439.974 673.399,440.197 L673.399,444.698 L670.973,444.698 z" fill="#000000"/>
    <path d="M685.053,439.91 C685.053,439.319 684.797,438.33 683.68,438.33 C682.658,438.33 682.243,439.256 682.18,439.91 z M682.196,441.57 C682.276,442.575 683.265,443.055 684.399,443.055 C685.229,443.055 685.899,442.942 686.553,442.735 L686.872,444.379 C686.074,444.698 685.101,444.874 684.047,444.874 C681.398,444.874 679.881,443.325 679.881,440.884 C679.881,438.904 681.111,436.718 683.824,436.718 C686.346,436.718 687.303,438.681 687.303,440.612 C687.303,441.027 687.255,441.394 687.223,441.57 z" fill="#000000"/>
    <path d="M694.694,434.77 L694.694,436.893 L696.434,436.893 L696.434,438.68 L694.694,438.68 L694.694,441.505 C694.694,442.448 694.918,442.878 695.652,442.878 C695.987,442.878 696.131,442.862 696.371,442.814 L696.386,444.65 C696.067,444.779 695.493,444.874 694.806,444.874 C694.024,444.874 693.37,444.586 692.987,444.188 C692.54,443.724 692.316,442.974 692.316,441.874 L692.316,438.68 L691.279,438.68 L691.279,436.893 L692.316,436.893 L692.316,435.424 z" fill="#000000"/>
    <path d="M699.819,440.788 C699.819,442.129 700.378,443.134 701.416,443.134 C702.357,443.134 702.964,442.192 702.964,440.788 C702.964,439.623 702.516,438.441 701.416,438.441 C700.251,438.441 699.819,439.639 699.819,440.788 M705.469,440.708 C705.469,443.565 703.442,444.874 701.351,444.874 C699.069,444.874 697.313,443.373 697.313,440.851 C697.313,438.33 698.973,436.718 701.479,436.718 C703.874,436.718 705.469,438.362 705.469,440.708" fill="#000000"/>
    <path d="M709.078,440.788 C709.078,442.129 709.637,443.134 710.675,443.134 C711.616,443.134 712.223,442.192 712.223,440.788 C712.223,439.623 711.775,438.441 710.675,438.441 C709.51,438.441 709.078,439.639 709.078,440.788 M714.728,440.708 C714.728,443.565 712.701,444.874 710.61,444.874 C708.328,444.874 706.572,443.373 706.572,440.851 C706.572,438.33 708.232,436.718 710.738,436.718 C713.133,436.718 714.728,438.362 714.728,440.708" fill="#000000"/>
    <path d="M634.694,462.114 L634.694,456.096 L633.673,456.096 L633.673,454.309 L634.694,454.309 L634.694,454.006 C634.694,453.064 634.981,452.027 635.683,451.388 C636.29,450.814 637.135,450.606 637.839,450.606 C638.381,450.606 638.796,450.671 639.131,450.766 L639.035,452.634 C638.828,452.569 638.572,452.521 638.253,452.521 C637.455,452.521 637.12,453.144 637.12,453.91 L637.12,454.309 L638.684,454.309 L638.684,456.096 L637.135,456.096 L637.135,462.114 z" fill="#000000"/>
    <path d="M639.866,456.879 C639.866,455.731 639.834,454.98 639.803,454.31 L641.893,454.31 L641.972,455.746 L642.037,455.746 C642.435,454.612 643.393,454.134 644.143,454.134 C644.367,454.134 644.478,454.134 644.654,454.166 L644.654,456.464 C644.478,456.416 644.271,456.385 644,456.385 C643.106,456.385 642.5,456.863 642.34,457.613 C642.308,457.774 642.292,457.965 642.292,458.156 L642.292,462.114 L639.866,462.114 z" fill="#000000"/>
    <path d="M650.529,457.326 C650.529,456.735 650.273,455.746 649.156,455.746 C648.134,455.746 647.719,456.672 647.656,457.326 z M647.672,458.986 C647.752,459.991 648.741,460.471 649.875,460.471 C650.705,460.471 651.375,460.358 652.029,460.151 L652.348,461.795 C651.55,462.114 650.577,462.29 649.523,462.29 C646.874,462.29 645.357,460.741 645.357,458.3 C645.357,456.32 646.587,454.134 649.3,454.134 C651.822,454.134 652.779,456.097 652.779,458.028 C652.779,458.443 652.731,458.81 652.699,458.986 z" fill="#000000"/>
    <path d="M659.374,457.581 C659.374,457.454 659.357,457.31 659.326,457.183 C659.198,456.56 658.672,456.018 657.937,456.018 C656.82,456.018 656.262,456.959 656.262,458.22 C656.262,459.528 656.884,460.375 657.905,460.375 C658.592,460.375 659.15,459.912 659.31,459.273 C659.357,459.113 659.374,458.906 659.374,458.746 z M659.374,461.141 L659.342,461.141 C658.847,461.875 658.064,462.29 657.027,462.29 C655.336,462.29 653.787,460.806 653.787,458.315 C653.787,455.522 655.575,454.134 657.235,454.134 C658.24,454.134 658.975,454.501 659.405,455.219 L659.437,455.219 L659.501,454.31 L661.848,454.31 C661.832,455.06 661.8,455.842 661.8,456.655 L661.8,465.274 L659.374,465.274 z" fill="#000000"/>
    <path d="M671.091,459.608 C671.091,460.629 671.123,461.46 671.155,462.114 L669.048,462.114 L668.937,461.012 L668.889,461.012 C668.585,461.492 667.852,462.29 666.446,462.29 C664.866,462.29 663.701,461.299 663.701,458.89 L663.701,454.309 L666.144,454.309 L666.144,458.506 C666.144,459.64 666.511,460.326 667.357,460.326 C668.027,460.326 668.41,459.864 668.57,459.48 C668.633,459.337 668.65,459.145 668.65,458.954 L668.65,454.309 L671.091,454.309 z" fill="#000000"/>
    <path d="M677.765,457.326 C677.765,456.735 677.509,455.746 676.392,455.746 C675.37,455.746 674.955,456.672 674.892,457.326 z M674.908,458.986 C674.988,459.991 675.977,460.471 677.111,460.471 C677.94,460.471 678.611,460.358 679.265,460.151 L679.584,461.795 C678.786,462.114 677.813,462.29 676.759,462.29 C674.11,462.29 672.593,460.741 672.593,458.3 C672.593,456.32 673.823,454.134 676.536,454.134 C679.058,454.134 680.015,456.097 680.015,458.028 C680.015,458.443 679.967,458.81 679.935,458.986 z" fill="#000000"/>
    <path d="M681.47,456.8 C681.47,455.826 681.438,454.996 681.407,454.31 L683.513,454.31 L683.624,455.379 L683.672,455.379 C683.991,454.884 684.789,454.134 686.082,454.134 C687.679,454.134 688.875,455.188 688.875,457.486 L688.875,462.114 L686.449,462.114 L686.449,457.789 C686.449,456.783 686.099,456.097 685.221,456.097 C684.55,456.097 684.152,456.56 683.991,457.007 C683.928,457.166 683.896,457.39 683.896,457.613 L683.896,462.114 L681.47,462.114 z" fill="#000000"/>
    <path d="M693.441,452.186 L693.441,454.31 L695.181,454.31 L695.181,456.096 L693.441,456.096 L693.441,458.922 C693.441,459.865 693.665,460.294 694.399,460.294 C694.734,460.294 694.878,460.279 695.117,460.23 L695.133,462.066 C694.814,462.195 694.24,462.29 693.553,462.29 C692.771,462.29 692.117,462.003 691.734,461.604 C691.287,461.141 691.063,460.391 691.063,459.29 L691.063,456.096 L690.026,456.096 L690.026,454.31 L691.063,454.31 L691.063,452.841 z" fill="#000000"/>
    <path d="M696.588,450.782 L699.014,450.782 L699.014,462.114 L696.588,462.114 z" fill="#000000"/>
    <path d="M702.797,454.31 L703.962,458.14 C704.09,458.603 704.249,459.178 704.346,459.593 L704.394,459.593 C704.505,459.178 704.633,458.587 704.744,458.14 L705.702,454.31 L708.304,454.31 L706.485,459.45 C705.367,462.545 704.616,463.79 703.738,464.573 C702.893,465.307 701.999,465.562 701.393,465.642 L700.882,463.583 C701.185,463.536 701.568,463.391 701.936,463.168 C702.303,462.977 702.701,462.593 702.941,462.195 C703.021,462.082 703.068,461.956 703.068,461.843 C703.068,461.763 703.053,461.636 702.957,461.445 L700.1,454.31 z" fill="#000000"/>
    <path d="M709.789,462.29 C708.976,462.29 708.385,461.667 708.385,460.821 C708.385,459.96 708.976,459.337 709.821,459.337 C710.667,459.337 711.242,459.943 711.242,460.821 C711.242,461.667 710.667,462.29 709.806,462.29 z" fill="#000000"/>
    <path d="M713.94,462.29 C713.127,462.29 712.536,461.667 712.536,460.821 C712.536,459.96 713.127,459.337 713.971,459.337 C714.818,459.337 715.393,459.943 715.393,460.821 C715.393,461.667 714.818,462.29 713.956,462.29 z" fill="#000000"/>
    <path d="M718.091,462.29 C717.278,462.29 716.687,461.667 716.687,460.821 C716.687,459.96 717.278,459.337 718.123,459.337 C718.969,459.337 719.544,459.943 719.544,460.821 C719.544,461.667 718.969,462.29 718.108,462.29 z" fill="#000000"/>
    <path d="M678.398,532.456 C678.398,531.482 678.365,530.652 678.335,529.966 L680.377,529.966 L680.489,531.019 L680.536,531.019 C680.872,530.524 681.557,529.79 682.898,529.79 C683.904,529.79 684.703,530.301 685.038,531.115 L685.07,531.115 C685.357,530.7 685.708,530.396 686.075,530.173 C686.505,529.918 686.984,529.79 687.559,529.79 C689.06,529.79 690.193,530.844 690.193,533.174 L690.193,537.77 L687.831,537.77 L687.831,533.525 C687.831,532.392 687.463,531.737 686.68,531.737 C686.122,531.737 685.724,532.12 685.564,532.583 C685.5,532.759 685.468,533.015 685.468,533.206 L685.468,537.77 L683.106,537.77 L683.106,533.397 C683.106,532.408 682.755,531.737 681.989,531.737 C681.367,531.737 681,532.216 680.856,532.615 C680.776,532.807 680.76,533.03 680.76,533.222 L680.76,537.77 L678.398,537.77 z" fill="#000000"/>
    <path d="M696.276,534.084 C695,534.067 694.01,534.371 694.01,535.313 C694.01,535.935 694.424,536.238 694.967,536.238 C695.574,536.238 696.069,535.839 696.228,535.345 C696.26,535.217 696.276,535.073 696.276,534.93 z M698.638,535.871 C698.638,536.621 698.671,537.34 698.751,537.771 L696.564,537.771 L696.42,536.988 L696.372,536.988 C695.861,537.611 695.063,537.946 694.137,537.946 C692.557,537.946 691.616,536.797 691.616,535.552 C691.616,533.525 693.435,532.552 696.197,532.567 L696.197,532.456 C696.197,532.041 695.973,531.45 694.776,531.45 C693.978,531.45 693.132,531.722 692.622,532.041 L692.174,530.477 C692.717,530.173 693.787,529.79 695.207,529.79 C697.808,529.79 698.638,531.322 698.638,533.158 z" fill="#000000"/>
    <path d="M702.184,529.966 L703.349,533.796 C703.477,534.259 703.636,534.834 703.733,535.249 L703.781,535.249 C703.892,534.834 704.02,534.243 704.131,533.796 L705.089,529.966 L707.691,529.966 L705.872,535.106 C704.754,538.201 704.003,539.446 703.125,540.229 C702.28,540.963 701.386,541.218 700.78,541.298 L700.269,539.239 C700.572,539.192 700.955,539.047 701.323,538.824 C701.69,538.633 702.088,538.249 702.328,537.851 C702.408,537.738 702.455,537.612 702.455,537.499 C702.455,537.419 702.44,537.292 702.344,537.101 L699.487,529.966 z" fill="#000000"/>
    <path d="M712.21,537.771 L712.21,531.753 L711.189,531.753 L711.189,529.966 L712.21,529.966 L712.21,529.663 C712.21,528.721 712.497,527.684 713.199,527.044 C713.806,526.471 714.651,526.263 715.355,526.263 C715.897,526.263 716.312,526.328 716.647,526.423 L716.551,528.291 C716.344,528.226 716.088,528.177 715.769,528.177 C714.971,528.177 714.636,528.801 714.636,529.567 L714.636,529.966 L716.2,529.966 L716.2,531.753 L714.651,531.753 L714.651,537.771 z" fill="#000000"/>
    <path d="M721.947,532.982 C721.947,532.391 721.691,531.402 720.574,531.402 C719.552,531.402 719.137,532.328 719.074,532.982 z M719.09,534.642 C719.17,535.647 720.159,536.127 721.293,536.127 C722.123,536.127 722.793,536.014 723.447,535.807 L723.766,537.451 C722.968,537.77 721.995,537.946 720.941,537.946 C718.292,537.946 716.775,536.397 716.775,533.956 C716.775,531.976 718.005,529.79 720.718,529.79 C723.24,529.79 724.197,531.753 724.197,533.684 C724.197,534.099 724.149,534.466 724.117,534.642 z" fill="#000000"/>
    <path d="M730.376,532.982 C730.376,532.391 730.12,531.402 729.003,531.402 C727.981,531.402 727.566,532.328 727.503,532.982 z M727.519,534.642 C727.599,535.647 728.588,536.127 729.722,536.127 C730.551,536.127 731.222,536.014 731.876,535.807 L732.195,537.451 C731.397,537.77 730.424,537.946 729.37,537.946 C726.721,537.946 725.204,536.397 725.204,533.956 C725.204,531.976 726.434,529.79 729.147,529.79 C731.669,529.79 732.626,531.753 732.626,533.684 C732.626,534.099 732.578,534.466 732.546,534.642 z" fill="#000000"/>
    <path d="M734.081,526.438 L736.507,526.438 L736.507,537.77 L734.081,537.77 z" fill="#000000"/>
    <path d="M741.695,526.438 L744.121,526.438 L744.121,537.77 L741.695,537.77 z" fill="#000000"/>
    <path d="M746.086,529.966 L748.512,529.966 L748.512,537.771 L746.086,537.771 z M746.086,537.771 M748.592,527.795 C748.592,528.466 748.081,529.008 747.283,529.008 C746.517,529.008 746.006,528.466 746.022,527.795 C746.006,527.093 746.517,526.566 747.299,526.566 C748.081,526.566 748.576,527.093 748.592,527.795" fill="#000000"/>
    <path d="M752.886,533.254 L752.918,533.254 C753.094,532.935 753.285,532.615 753.477,532.312 L755.057,529.966 L757.978,529.966 L755.185,533.126 L758.376,537.771 L755.392,537.771 L753.509,534.563 L752.886,535.328 L752.886,537.771 L750.46,537.771 L750.46,526.439 L752.886,526.439 z" fill="#000000"/>
    <path d="M763.613,532.982 C763.613,532.391 763.357,531.402 762.24,531.402 C761.218,531.402 760.803,532.328 760.74,532.982 z M760.756,534.642 C760.836,535.647 761.825,536.127 762.959,536.127 C763.789,536.127 764.459,536.014 765.113,535.807 L765.432,537.451 C764.634,537.77 763.661,537.946 762.607,537.946 C759.958,537.946 758.441,536.397 758.441,533.956 C758.441,531.976 759.671,529.79 762.384,529.79 C764.906,529.79 765.863,531.753 765.863,533.684 C765.863,534.099 765.815,534.466 765.783,534.642 z" fill="#000000"/>
    <path d="M688.655,560.247 C688.961,560.288 689.326,560.288 689.854,560.288 C691.257,560.288 692.497,559.739 692.497,558.316 C692.497,556.934 691.257,556.386 689.713,556.386 L688.655,556.386 z M688.655,554.17 L689.672,554.17 C691.298,554.17 692.172,553.5 692.172,552.483 C692.172,551.446 691.379,550.898 689.976,550.898 C689.305,550.898 688.92,550.938 688.655,550.979 z M685.587,548.927 C686.399,548.764 688.046,548.642 689.591,548.642 C691.48,548.642 692.639,548.825 693.634,549.414 C694.591,549.922 695.281,550.857 695.281,552.097 C695.281,553.316 694.57,554.455 693.025,555.023 L693.025,555.064 C694.591,555.491 695.749,556.67 695.749,558.438 C695.749,559.678 695.179,560.654 694.326,561.345 C693.33,562.138 691.664,562.585 688.94,562.585 C687.416,562.585 686.277,562.483 685.587,562.382 z" fill="#000000"/>
    <path d="M707.127,559.251 C707.127,560.552 707.168,561.609 707.208,562.442 L704.525,562.442 L704.383,561.04 L704.322,561.04 C703.937,561.649 703.001,562.666 701.213,562.666 C699.2,562.666 697.717,561.406 697.717,558.337 L697.717,552.504 L700.826,552.504 L700.826,557.849 C700.826,559.292 701.294,560.166 702.371,560.166 C703.225,560.166 703.713,559.576 703.916,559.089 C703.997,558.906 704.018,558.662 704.018,558.418 L704.018,552.504 L707.127,552.504 z" fill="#000000"/>
    <path d="M709.603,548.012 L712.692,548.012 L712.692,562.443 L709.603,562.443 z" fill="#000000"/>
    <path d="M715.19,548.012 L718.279,548.012 L718.279,562.443 L715.19,562.443 z" fill="#000000"/>
    <path d="M723.094,552.504 L724.578,557.382 C724.74,557.971 724.944,558.703 725.066,559.232 L725.126,559.232 C725.269,558.703 725.432,557.95 725.573,557.382 L726.793,552.504 L730.106,552.504 L727.789,559.048 C726.366,562.991 725.411,564.576 724.293,565.572 C723.216,566.508 722.078,566.832 721.306,566.935 L720.656,564.313 C721.041,564.251 721.53,564.068 721.996,563.784 C722.464,563.54 722.972,563.052 723.278,562.544 C723.379,562.401 723.44,562.239 723.44,562.097 C723.44,561.995 723.419,561.833 723.297,561.589 L719.659,552.504 z" fill="#000000"/>
    <path d="M731.404,552.504 L734.493,552.504 L734.493,562.442 L731.404,562.442 z M731.404,562.442 M734.595,549.739 C734.595,550.593 733.944,551.284 732.928,551.284 C731.953,551.284 731.303,550.593 731.322,549.739 C731.303,548.845 731.953,548.175 732.948,548.175 C733.944,548.175 734.574,548.845 734.595,549.739" fill="#000000"/>
    <path d="M736.971,555.674 C736.971,554.435 736.93,553.378 736.889,552.504 L739.573,552.504 L739.714,553.865 L739.776,553.865 C740.182,553.236 741.199,552.28 742.844,552.28 C744.877,552.28 746.402,553.621 746.402,556.548 L746.402,562.443 L743.312,562.443 L743.312,556.935 C743.312,555.654 742.865,554.78 741.746,554.78 C740.893,554.78 740.385,555.369 740.182,555.939 C740.101,556.142 740.06,556.426 740.06,556.711 L740.06,562.443 L736.971,562.443 z" fill="#000000"/>
    <path d="M755.198,556.548 C755.198,556.345 755.177,556.142 755.137,555.98 C754.914,555.166 754.324,554.617 753.47,554.617 C752.353,554.617 751.438,555.634 751.438,557.443 C751.438,558.926 752.17,560.085 753.47,560.085 C754.263,560.085 754.893,559.557 755.096,558.824 C755.177,558.601 755.198,558.276 755.198,558.012 z M758.288,560.999 C758.288,562.91 757.901,564.475 756.784,565.471 C755.686,566.405 754.202,566.691 752.739,566.691 C751.438,566.691 750.056,566.426 749.162,565.918 L749.771,563.58 C750.402,563.946 751.499,564.333 752.658,564.333 C754.121,564.333 755.239,563.54 755.239,561.711 L755.239,561.061 L755.198,561.061 C754.609,561.894 753.654,562.361 752.515,562.361 C750.056,562.361 748.308,560.369 748.308,557.504 C748.308,554.313 750.382,552.28 752.82,552.28 C754.182,552.28 755.036,552.869 755.544,553.683 L755.585,553.683 L755.686,552.504 L758.369,552.504 C758.328,553.134 758.288,553.967 758.288,555.451 z" fill="#000000"/>
    <path d="M804.708,537.266 L803.838,541.845 L808.103,541.845 L808.974,537.266 L811.48,537.266 L809.252,549 L806.745,549 L807.668,544.074 L803.42,544.074 L802.479,549 L799.973,549 L802.201,537.266 z" fill="#000000"/>
    <path d="M814.356,545.622 C814.356,546.615 814.843,547.276 815.714,547.276 C817.089,547.276 817.856,545.274 817.856,543.811 C817.856,543.028 817.525,542.192 816.515,542.192 C815.07,542.192 814.338,544.299 814.356,545.622 M820.45,543.794 C820.45,546.911 818.326,549.191 815.366,549.191 C813.208,549.191 811.762,547.781 811.762,545.675 C811.762,542.715 813.817,540.295 816.846,540.295 C819.127,540.295 820.45,541.861 820.45,543.794" fill="#000000"/>
    <path d="M824.249,540.486 L824.267,544.09 C824.267,545.065 824.231,545.866 824.18,546.806 L824.214,546.806 C824.511,545.901 824.894,545.048 825.259,544.194 L826.931,540.486 L828.984,540.486 L829.193,544.073 C829.228,545.065 829.264,545.901 829.211,546.806 L829.264,546.806 C829.542,545.866 829.838,545.012 830.203,544.038 L831.648,540.486 L834.173,540.486 L830.029,549 L827.679,549 L827.436,546.04 C827.383,545.152 827.365,544.334 827.365,543.306 L827.331,543.306 C826.878,544.507 826.669,545.152 826.321,545.918 L824.876,549 L822.508,549 L821.707,540.486 z" fill="#000000"/>
    <path d="M841.82,538.171 L841.385,540.486 L843.196,540.486 L842.83,542.384 L841.019,542.384 L840.445,545.275 C840.376,545.606 840.305,546.058 840.305,546.354 C840.305,546.772 840.48,547.067 841.019,547.067 C841.246,547.067 841.49,547.067 841.716,547.032 L841.42,549 C841.106,549.122 840.48,549.192 839.94,549.192 C838.443,549.192 837.729,548.408 837.729,547.346 C837.729,546.876 837.781,546.423 837.903,545.762 L838.564,542.384 L837.485,542.384 L837.834,540.486 L838.93,540.486 L839.244,538.885 z" fill="#000000"/>
    <path d="M843.076,549 L845.409,536.639 L847.916,536.639 L846.975,541.565 L847.011,541.583 C847.707,540.8 848.595,540.295 849.726,540.295 C851.05,540.295 851.868,541.131 851.868,542.593 C851.868,542.993 851.799,543.638 851.712,544.125 L850.789,549 L848.281,549 L849.152,544.334 C849.222,544.003 849.274,543.638 849.274,543.272 C849.274,542.715 849.03,542.314 848.403,542.314 C847.533,542.314 846.645,543.377 846.314,545.1 L845.583,549 z" fill="#000000"/>
    <path d="M858.713,542.837 C858.713,542.419 858.365,542.123 857.79,542.123 C856.624,542.123 855.962,543.08 855.788,543.882 C857.738,543.899 858.713,543.62 858.713,542.855 z M860.001,548.513 C859.009,549.018 857.773,549.191 856.833,549.191 C854.396,549.191 853.142,547.799 853.142,545.588 C853.142,542.993 855.023,540.295 858.104,540.295 C859.827,540.295 861.064,541.252 861.064,542.837 C861.064,545.013 858.957,545.797 855.544,545.709 C855.544,545.953 855.632,546.336 855.806,546.58 C856.137,547.016 856.711,547.241 857.442,547.241 C858.365,547.241 859.149,547.032 859.827,546.702 z" fill="#000000"/>
    <path d="M867.7,545.622 C867.7,546.615 868.187,547.276 869.058,547.276 C870.433,547.276 871.2,545.274 871.2,543.811 C871.2,543.028 870.869,542.192 869.859,542.192 C868.414,542.192 867.682,544.299 867.7,545.622 M873.794,543.794 C873.794,546.911 871.67,549.191 868.71,549.191 C866.552,549.191 865.106,547.781 865.106,545.675 C865.106,542.715 867.161,540.295 870.19,540.295 C872.471,540.295 873.794,541.861 873.794,543.794" fill="#000000"/>
    <path d="M879.351,538.171 L878.916,540.486 L880.727,540.486 L880.361,542.384 L878.55,542.384 L877.976,545.275 C877.907,545.606 877.836,546.058 877.836,546.354 C877.836,546.772 878.011,547.067 878.55,547.067 C878.777,547.067 879.021,547.067 879.247,547.032 L878.951,549 C878.637,549.122 878.011,549.192 877.471,549.192 C875.974,549.192 875.26,548.408 875.26,547.346 C875.26,546.876 875.312,546.423 875.434,545.762 L876.095,542.384 L875.016,542.384 L875.365,540.486 L876.461,540.486 L876.775,538.885 z" fill="#000000"/>
    <path d="M880.606,549 L882.939,536.639 L885.446,536.639 L884.505,541.565 L884.541,541.583 C885.237,540.8 886.125,540.295 887.256,540.295 C888.58,540.295 889.398,541.131 889.398,542.593 C889.398,542.993 889.329,543.638 889.242,544.125 L888.319,549 L885.811,549 L886.682,544.334 C886.752,544.003 886.804,543.638 886.804,543.272 C886.804,542.715 886.56,542.314 885.933,542.314 C885.063,542.314 884.175,543.377 883.844,545.1 L883.113,549 z" fill="#000000"/>
    <path d="M896.243,542.837 C896.243,542.419 895.895,542.123 895.32,542.123 C894.154,542.123 893.492,543.08 893.318,543.882 C895.268,543.899 896.243,543.62 896.243,542.855 z M897.531,548.513 C896.539,549.018 895.303,549.191 894.363,549.191 C891.926,549.191 890.672,547.799 890.672,545.588 C890.672,542.993 892.553,540.295 895.634,540.295 C897.357,540.295 898.594,541.252 898.594,542.837 C898.594,545.013 896.487,545.797 893.074,545.709 C893.074,545.953 893.162,546.336 893.336,546.58 C893.667,547.016 894.241,547.241 894.972,547.241 C895.895,547.241 896.679,547.032 897.357,546.702 z" fill="#000000"/>
    <path d="M899.137,549 L900.094,543.934 C900.338,542.646 900.443,541.218 900.53,540.486 L902.706,540.486 C902.654,541.061 902.602,541.636 902.549,542.228 L902.602,542.228 C903.194,541.096 904.151,540.295 905.318,540.295 C905.474,540.295 905.631,540.295 905.787,540.312 L905.3,542.75 C905.178,542.75 905.039,542.732 904.9,542.732 C903.298,542.732 902.549,544.16 902.236,545.831 L901.644,549 z" fill="#000000"/>
    <path d="M802.758,565.743 C803.036,566.004 803.42,566.161 803.907,566.161 C805.248,566.161 806.292,564.246 806.292,562.574 C806.292,561.895 806.014,561.181 805.196,561.181 C804.255,561.181 803.385,562.244 803.071,563.915 z M799.189,571.314 L800.825,562.644 C801.017,561.635 801.226,560.154 801.33,559.284 L803.576,559.284 L803.42,560.59 L803.454,560.59 C804.151,559.667 805.161,559.162 806.188,559.162 C808.033,559.162 808.921,560.641 808.921,562.383 C808.921,565.343 806.954,568.058 803.994,568.058 C803.298,568.058 802.706,567.885 802.41,567.711 L802.375,567.711 L801.679,571.314 z" fill="#000000"/>
    <path d="M815.574,561.704 C815.574,561.286 815.226,560.99 814.651,560.99 C813.485,560.99 812.823,561.947 812.649,562.749 C814.599,562.766 815.574,562.487 815.574,561.722 z M816.862,567.38 C815.87,567.885 814.634,568.058 813.694,568.058 C811.257,568.058 810.003,566.666 810.003,564.455 C810.003,561.86 811.884,559.162 814.965,559.162 C816.688,559.162 817.925,560.119 817.925,561.704 C817.925,563.88 815.818,564.664 812.405,564.576 C812.405,564.82 812.493,565.203 812.667,565.447 C812.998,565.883 813.572,566.108 814.303,566.108 C815.226,566.108 816.01,565.899 816.688,565.569 z" fill="#000000"/>
    <path d="M818.468,567.867 L819.425,562.801 C819.669,561.513 819.774,560.085 819.861,559.353 L822.037,559.353 C821.985,559.928 821.933,560.503 821.88,561.095 L821.933,561.095 C822.525,559.963 823.482,559.162 824.649,559.162 C824.805,559.162 824.962,559.162 825.118,559.179 L824.631,561.617 C824.509,561.617 824.369,561.599 824.231,561.599 C822.629,561.599 821.88,563.027 821.567,564.698 L820.975,567.867 z" fill="#000000"/>
    <path d="M825.225,565.621 C825.712,565.865 826.635,566.213 827.454,566.213 C828.167,566.213 828.533,565.865 828.533,565.447 C828.533,565.029 828.254,564.733 827.471,564.35 C826.478,563.863 825.66,563.149 825.66,562.087 C825.66,560.328 827.209,559.162 829.403,559.162 C830.396,559.162 831.179,559.353 831.597,559.598 L831.005,561.373 C830.639,561.199 830.047,560.99 829.298,560.99 C828.637,560.99 828.184,561.286 828.184,561.738 C828.184,562.087 828.533,562.383 829.229,562.714 C830.152,563.183 831.126,563.863 831.126,565.047 C831.126,566.997 829.473,568.076 827.227,568.059 C826.148,568.023 825.121,567.763 824.616,567.38 z" fill="#000000"/>
    <path d="M835.046,564.489 C835.046,565.482 835.533,566.143 836.404,566.143 C837.779,566.143 838.546,564.141 838.546,562.678 C838.546,561.895 838.215,561.059 837.205,561.059 C835.76,561.059 835.028,563.166 835.046,564.489 M841.14,562.661 C841.14,565.778 839.016,568.058 836.056,568.058 C833.898,568.058 832.452,566.648 832.452,564.542 C832.452,561.582 834.507,559.162 837.536,559.162 C839.817,559.162 841.14,560.728 841.14,562.661" fill="#000000"/>
    <path d="M841.892,567.867 L842.971,562.122 C843.18,561.042 843.32,560.102 843.424,559.353 L845.653,559.353 L845.478,560.763 L845.513,560.763 C846.314,559.649 847.376,559.162 848.507,559.162 C849.901,559.162 850.684,560.015 850.684,561.477 C850.684,561.86 850.615,562.505 850.544,562.923 L849.605,567.867 L847.097,567.867 L847.986,563.149 C848.038,562.853 848.073,562.505 848.073,562.191 C848.073,561.599 847.864,561.181 847.237,561.181 C846.418,561.181 845.461,562.209 845.113,564.089 L844.399,567.867 z" fill="#000000"/>
    <path d="M855.196,567.867 L856.432,561.251 L855.335,561.251 L855.701,559.353 L856.798,559.353 L856.884,558.901 C857.058,557.908 857.459,556.846 858.312,556.133 C858.991,555.541 859.896,555.314 860.732,555.314 C861.342,555.314 861.795,555.401 862.073,555.523 L861.637,557.525 C861.411,557.421 861.15,557.386 860.819,557.386 C860.018,557.386 859.513,558.083 859.357,558.935 L859.27,559.353 L860.959,559.353 L860.593,561.251 L858.922,561.251 L857.685,567.867 z" fill="#000000"/>
    <path d="M866.462,561.704 C866.462,561.286 866.114,560.99 865.539,560.99 C864.373,560.99 863.711,561.947 863.537,562.749 C865.487,562.766 866.462,562.487 866.462,561.722 z M867.75,567.38 C866.758,567.885 865.522,568.058 864.582,568.058 C862.145,568.058 860.891,566.666 860.891,564.455 C860.891,561.86 862.772,559.162 865.853,559.162 C867.576,559.162 868.813,560.119 868.813,561.704 C868.813,563.88 866.706,564.664 863.293,564.576 C863.293,564.82 863.381,565.203 863.555,565.447 C863.886,565.883 864.46,566.108 865.191,566.108 C866.114,566.108 866.898,565.899 867.576,565.569 z" fill="#000000"/>
    <path d="M875.257,561.704 C875.257,561.286 874.909,560.99 874.334,560.99 C873.168,560.99 872.506,561.947 872.332,562.749 C874.282,562.766 875.257,562.487 875.257,561.722 z M876.545,567.38 C875.553,567.885 874.317,568.058 873.377,568.058 C870.94,568.058 869.686,566.666 869.686,564.455 C869.686,561.86 871.567,559.162 874.648,559.162 C876.371,559.162 877.608,560.119 877.608,561.704 C877.608,563.88 875.501,564.664 872.088,564.576 C872.088,564.82 872.176,565.203 872.35,565.447 C872.681,565.883 873.255,566.108 873.986,566.108 C874.909,566.108 875.693,565.899 876.371,565.569 z" fill="#000000"/>
    <path d="M878.15,567.867 L880.517,555.506 L883.025,555.506 L880.657,567.867 z" fill="#000000"/>
    <path d="M883.079,565.621 C883.566,565.865 884.489,566.213 885.308,566.213 C886.021,566.213 886.387,565.865 886.387,565.447 C886.387,565.029 886.108,564.733 885.324,564.35 C884.332,563.863 883.514,563.149 883.514,562.087 C883.514,560.328 885.063,559.162 887.257,559.162 C888.25,559.162 889.033,559.353 889.451,559.598 L888.859,561.373 C888.493,561.199 887.901,560.99 887.152,560.99 C886.491,560.99 886.038,561.286 886.038,561.738 C886.038,562.087 886.387,562.383 887.083,562.714 C888.006,563.183 888.98,563.863 888.98,565.047 C888.98,566.997 887.327,568.076 885.081,568.059 C884.002,568.023 882.975,567.763 882.47,567.38 z" fill="#000000"/>
    <path d="M799.868,586.733 L800.93,580.988 C801.121,579.908 801.261,578.968 801.365,578.219 L803.524,578.219 L803.367,579.594 L803.402,579.594 C804.168,578.498 805.213,578.028 806.309,578.028 C807.668,578.028 808.26,578.881 808.329,579.629 C809.096,578.533 810.157,578.028 811.254,578.028 C812.577,578.028 813.344,578.864 813.344,580.308 C813.344,580.674 813.273,581.336 813.186,581.771 L812.264,586.733 L809.844,586.733 L810.697,582.085 C810.766,581.736 810.819,581.371 810.819,581.04 C810.819,580.448 810.557,580.03 809.966,580.03 C809.13,580.03 808.311,581.162 807.981,582.868 L807.267,586.733 L804.847,586.733 L805.718,582.049 C805.787,581.702 805.84,581.371 805.84,581.075 C805.84,580.501 805.648,580.03 805.039,580.03 C804.185,580.03 803.298,581.231 802.984,582.903 L802.288,586.733 z" fill="#000000"/>
    <path d="M820.644,579.996 C820.452,579.961 820.208,579.926 819.964,579.926 C818.345,579.926 817.162,581.911 817.162,583.495 C817.162,584.331 817.493,584.905 818.189,584.905 C818.937,584.905 819.86,584.052 820.243,581.963 z M819.913,586.733 C819.93,586.228 819.982,585.654 820.035,585.045 L819.982,585.045 C819.199,586.455 818.119,586.925 817.126,586.925 C815.594,586.925 814.55,585.741 814.55,583.965 C814.55,581.093 816.448,578.028 820.644,578.028 C821.654,578.028 822.75,578.22 823.464,578.446 L822.559,582.903 C822.35,584 822.193,585.671 822.228,586.733 z" fill="#000000"/>
    <path d="M828.846,575.904 L828.411,578.219 L830.222,578.219 L829.856,580.117 L828.045,580.117 L827.471,583.008 C827.402,583.339 827.331,583.791 827.331,584.087 C827.331,584.505 827.506,584.8 828.045,584.8 C828.272,584.8 828.516,584.8 828.742,584.765 L828.446,586.733 C828.132,586.855 827.506,586.925 826.966,586.925 C825.469,586.925 824.755,586.141 824.755,585.079 C824.755,584.609 824.807,584.156 824.929,583.495 L825.59,580.117 L824.511,580.117 L824.86,578.219 L825.956,578.219 L826.27,576.618 z" fill="#000000"/>
    <path d="M834.906,575.904 L834.471,578.219 L836.282,578.219 L835.916,580.117 L834.105,580.117 L833.531,583.008 C833.462,583.339 833.391,583.791 833.391,584.087 C833.391,584.505 833.566,584.8 834.105,584.8 C834.332,584.8 834.576,584.8 834.802,584.765 L834.506,586.733 C834.192,586.855 833.566,586.925 833.026,586.925 C831.529,586.925 830.815,586.141 830.815,585.079 C830.815,584.609 830.867,584.156 830.989,583.495 L831.65,580.117 L830.571,580.117 L830.92,578.219 L832.016,578.219 L832.33,576.618 z" fill="#000000"/>
    <path d="M841.907,580.57 C841.907,580.152 841.559,579.856 840.984,579.856 C839.818,579.856 839.156,580.813 838.982,581.615 C840.932,581.632 841.907,581.353 841.907,580.588 z M843.195,586.246 C842.203,586.751 840.967,586.924 840.027,586.924 C837.59,586.924 836.336,585.532 836.336,583.321 C836.336,580.726 838.217,578.028 841.298,578.028 C843.021,578.028 844.258,578.985 844.258,580.57 C844.258,582.746 842.151,583.53 838.738,583.442 C838.738,583.686 838.826,584.069 839,584.313 C839.331,584.749 839.905,584.974 840.636,584.974 C841.559,584.974 842.343,584.765 843.021,584.435 z" fill="#000000"/>
    <path d="M844.801,586.733 L845.758,581.667 C846.002,580.379 846.107,578.951 846.194,578.219 L848.37,578.219 C848.318,578.794 848.266,579.369 848.213,579.961 L848.266,579.961 C848.858,578.829 849.815,578.028 850.982,578.028 C851.138,578.028 851.295,578.028 851.451,578.045 L850.964,580.483 C850.842,580.483 850.703,580.465 850.564,580.465 C848.962,580.465 848.213,581.893 847.9,583.564 L847.308,586.733 z" fill="#000000"/>
    <path d="M851.558,584.487 C852.045,584.731 852.968,585.079 853.787,585.079 C854.5,585.079 854.866,584.731 854.866,584.313 C854.866,583.895 854.587,583.599 853.803,583.216 C852.811,582.729 851.993,582.015 851.993,580.953 C851.993,579.194 853.542,578.028 855.736,578.028 C856.729,578.028 857.512,578.219 857.93,578.464 L857.338,580.239 C856.972,580.065 856.38,579.856 855.631,579.856 C854.97,579.856 854.517,580.152 854.517,580.605 C854.517,580.953 854.866,581.249 855.562,581.58 C856.485,582.049 857.459,582.729 857.459,583.913 C857.459,585.863 855.806,586.942 853.56,586.925 C852.481,586.889 851.454,586.629 850.949,586.246 z" fill="#000000"/>
    <path d="M859.533,582.886 L860.665,574.999 L863.364,574.999 L861.466,582.886 z M859.899,586.925 C859.063,586.925 858.507,586.316 858.507,585.497 C858.507,584.574 859.203,583.756 860.178,583.756 C861.031,583.756 861.623,584.365 861.623,585.219 C861.623,586.211 860.891,586.925 859.917,586.925 z" fill="#000000"/>
    <path d="M536.966,306.288 C536.339,306.567 535.277,306.81 533.866,306.81 C530.768,306.81 528.679,304.913 528.679,301.813 C528.679,299.184 529.862,297.131 531.638,295.946 C532.857,295.094 534.302,294.693 535.956,294.693 C537.227,294.693 538.185,294.989 538.515,295.198 L537.836,297.235 C537.488,297.06 536.722,296.851 535.712,296.851 C534.702,296.851 533.745,297.165 533.031,297.757 C532.038,298.559 531.412,299.898 531.412,301.535 C531.412,303.398 532.456,304.651 534.528,304.651 C535.347,304.651 536.165,304.513 536.757,304.268 z" fill="#000000"/>
    <path d="M540.99,303.241 C540.99,304.234 541.477,304.895 542.348,304.895 C543.723,304.895 544.49,302.893 544.49,301.43 C544.49,300.647 544.159,299.811 543.149,299.811 C541.704,299.811 540.972,301.918 540.99,303.241 M547.084,301.413 C547.084,304.53 544.96,306.81 542,306.81 C539.842,306.81 538.396,305.4 538.396,303.294 C538.396,300.334 540.451,297.914 543.48,297.914 C545.761,297.914 547.084,299.48 547.084,301.413" fill="#000000"/>
    <path d="M557.08,298.105 L555.983,303.85 C555.774,304.93 555.653,305.853 555.531,306.62 L553.32,306.62 L553.476,305.227 L553.441,305.227 C552.571,306.34 551.526,306.81 550.499,306.81 C549.142,306.81 548.323,306.044 548.323,304.426 C548.323,303.956 548.375,303.451 548.497,302.858 L549.385,298.105 L551.892,298.105 L551.039,302.667 C550.97,303.049 550.917,303.467 550.917,303.781 C550.917,304.339 551.126,304.773 551.77,304.773 C552.623,304.773 553.494,303.746 553.825,302.04 L554.573,298.105 z" fill="#000000"/>
    <path d="M557.589,306.619 L559.956,294.258 L562.464,294.258 L560.096,306.619 z" fill="#000000"/>
    <path d="M568.594,300.107 C568.403,299.951 568.019,299.811 567.601,299.811 C566.104,299.811 565.042,301.552 565.042,303.189 C565.042,304.216 565.494,304.791 566.226,304.791 C566.94,304.791 567.827,304.025 568.158,302.406 z M572.198,294.257 L570.474,303.311 C570.265,304.39 570.109,305.609 570.073,306.619 L567.776,306.619 L567.898,305.244 L567.863,305.244 C567.114,306.375 566.07,306.81 565.076,306.81 C563.632,306.81 562.431,305.661 562.431,303.589 C562.431,300.629 564.572,297.914 567.793,297.914 C568.141,297.914 568.594,297.965 568.959,298.105 L569.691,294.257 z" fill="#000000"/>
    <path d="M578.329,298.105 L578.851,301.814 C578.974,302.685 579.06,303.294 579.131,303.835 L579.165,303.835 C579.356,303.328 579.548,302.772 579.914,301.849 L581.464,298.105 L584.109,298.105 L581.062,304.216 C579.932,306.479 578.922,308.03 577.79,309.091 C576.798,310.031 575.613,310.449 575.057,310.536 L574.499,308.395 C574.899,308.273 575.457,308.065 575.944,307.716 C576.518,307.315 577.007,306.811 577.319,306.237 C577.407,306.115 577.407,306.009 577.372,305.819 L575.683,298.105 z" fill="#000000"/>
    <path d="M586.532,303.241 C586.532,304.234 587.019,304.895 587.89,304.895 C589.265,304.895 590.032,302.893 590.032,301.43 C590.032,300.647 589.701,299.811 588.691,299.811 C587.246,299.811 586.514,301.918 586.532,303.241 M592.626,301.413 C592.626,304.53 590.502,306.81 587.542,306.81 C585.384,306.81 583.938,305.4 583.938,303.294 C583.938,300.334 585.993,297.914 589.022,297.914 C591.303,297.914 592.626,299.48 592.626,301.413" fill="#000000"/>
    <path d="M602.623,298.105 L601.525,303.85 C601.316,304.93 601.195,305.853 601.073,306.62 L598.862,306.62 L599.019,305.227 L598.983,305.227 C598.113,306.34 597.068,306.81 596.041,306.81 C594.684,306.81 593.865,306.044 593.865,304.426 C593.865,303.956 593.917,303.451 594.039,302.858 L594.927,298.105 L597.435,298.105 L596.581,302.667 C596.512,303.049 596.459,303.467 596.459,303.781 C596.459,304.339 596.668,304.773 597.312,304.773 C598.166,304.773 599.036,303.746 599.367,302.04 L600.115,298.105 z" fill="#000000"/>
    <path d="M603.131,306.619 L604.088,301.553 C604.332,300.265 604.437,298.837 604.524,298.105 L606.7,298.105 C606.648,298.68 606.596,299.255 606.543,299.847 L606.596,299.847 C607.188,298.715 608.145,297.914 609.312,297.914 C609.468,297.914 609.625,297.914 609.781,297.931 L609.294,300.369 C609.172,300.369 609.033,300.351 608.894,300.351 C607.292,300.351 606.543,301.779 606.23,303.45 L605.638,306.619 z" fill="#000000"/>
    <path d="M532.856,314.657 L532.421,316.972 L534.232,316.972 L533.866,318.87 L532.055,318.87 L531.481,321.761 C531.412,322.092 531.341,322.544 531.341,322.84 C531.341,323.258 531.516,323.553 532.055,323.553 C532.282,323.553 532.526,323.553 532.752,323.518 L532.456,325.486 C532.142,325.608 531.516,325.678 530.976,325.678 C529.479,325.678 528.765,324.894 528.765,323.832 C528.765,323.362 528.817,322.909 528.939,322.248 L529.6,318.87 L528.521,318.87 L528.87,316.972 L529.966,316.972 L530.28,315.371 z" fill="#000000"/>
    <path d="M539.857,319.323 C539.857,318.905 539.509,318.609 538.934,318.609 C537.768,318.609 537.106,319.566 536.932,320.368 C538.882,320.385 539.857,320.106 539.857,319.341 z M541.145,324.999 C540.153,325.504 538.917,325.677 537.977,325.677 C535.54,325.677 534.286,324.285 534.286,322.074 C534.286,319.479 536.167,316.781 539.248,316.781 C540.971,316.781 542.208,317.738 542.208,319.323 C542.208,321.499 540.101,322.283 536.688,322.195 C536.688,322.439 536.776,322.822 536.95,323.066 C537.281,323.502 537.855,323.727 538.586,323.727 C539.509,323.727 540.293,323.518 540.971,323.188 z" fill="#000000"/>
    <path d="M549.054,318.749 C548.862,318.714 548.618,318.679 548.374,318.679 C546.755,318.679 545.572,320.664 545.572,322.248 C545.572,323.084 545.903,323.658 546.599,323.658 C547.347,323.658 548.27,322.805 548.653,320.716 z M548.323,325.486 C548.34,324.981 548.392,324.407 548.445,323.798 L548.392,323.798 C547.609,325.208 546.529,325.678 545.536,325.678 C544.004,325.678 542.96,324.494 542.96,322.718 C542.96,319.846 544.858,316.781 549.054,316.781 C550.064,316.781 551.16,316.973 551.874,317.199 L550.969,321.656 C550.76,322.753 550.603,324.424 550.638,325.486 z" fill="#000000"/>
    <path d="M552.713,323.24 C553.2,323.484 554.123,323.832 554.942,323.832 C555.655,323.832 556.021,323.484 556.021,323.066 C556.021,322.648 555.742,322.352 554.959,321.969 C553.966,321.482 553.148,320.768 553.148,319.706 C553.148,317.947 554.697,316.781 556.891,316.781 C557.884,316.781 558.667,316.972 559.085,317.217 L558.493,318.992 C558.127,318.818 557.535,318.609 556.786,318.609 C556.125,318.609 555.672,318.905 555.672,319.357 C555.672,319.706 556.021,320.002 556.717,320.333 C557.64,320.802 558.614,321.482 558.614,322.666 C558.614,324.616 556.961,325.695 554.715,325.678 C553.636,325.642 552.609,325.382 552.104,324.999 z" fill="#000000"/>
    <path d="M565.477,319.323 C565.477,318.905 565.129,318.609 564.554,318.609 C563.388,318.609 562.726,319.566 562.552,320.368 C564.502,320.385 565.477,320.106 565.477,319.341 z M566.765,324.999 C565.773,325.504 564.537,325.677 563.597,325.677 C561.16,325.677 559.906,324.285 559.906,322.074 C559.906,319.479 561.787,316.781 564.868,316.781 C566.591,316.781 567.828,317.738 567.828,319.323 C567.828,321.499 565.721,322.283 562.308,322.195 C562.308,322.439 562.396,322.822 562.57,323.066 C562.901,323.502 563.475,323.727 564.206,323.727 C565.129,323.727 565.913,323.518 566.591,323.188 z" fill="#000000"/>
    <path d="M571.87,325.486 L573.106,318.87 L572.009,318.87 L572.375,316.972 L573.472,316.972 L573.558,316.52 C573.732,315.527 574.133,314.465 574.986,313.752 C575.665,313.16 576.57,312.933 577.406,312.933 C578.016,312.933 578.469,313.02 578.747,313.142 L578.311,315.144 C578.085,315.04 577.824,315.005 577.493,315.005 C576.692,315.005 576.187,315.702 576.031,316.554 L575.944,316.972 L577.633,316.972 L577.267,318.87 L575.596,318.87 L574.359,325.486 z" fill="#000000"/>
    <path d="M583.136,319.323 C583.136,318.905 582.788,318.609 582.213,318.609 C581.047,318.609 580.385,319.566 580.211,320.368 C582.161,320.385 583.136,320.106 583.136,319.341 z M584.424,324.999 C583.432,325.504 582.196,325.677 581.256,325.677 C578.819,325.677 577.565,324.285 577.565,322.074 C577.565,319.479 579.446,316.781 582.527,316.781 C584.25,316.781 585.487,317.738 585.487,319.323 C585.487,321.499 583.38,322.283 579.967,322.195 C579.967,322.439 580.055,322.822 580.229,323.066 C580.56,323.502 581.134,323.727 581.865,323.727 C582.788,323.727 583.572,323.518 584.25,323.188 z" fill="#000000"/>
    <path d="M591.931,319.323 C591.931,318.905 591.583,318.609 591.008,318.609 C589.842,318.609 589.18,319.566 589.006,320.368 C590.956,320.385 591.931,320.106 591.931,319.341 z M593.219,324.999 C592.227,325.504 590.991,325.677 590.051,325.677 C587.614,325.677 586.36,324.285 586.36,322.074 C586.36,319.479 588.241,316.781 591.322,316.781 C593.045,316.781 594.282,317.738 594.282,319.323 C594.282,321.499 592.175,322.283 588.762,322.195 C588.762,322.439 588.85,322.822 589.024,323.066 C589.355,323.502 589.929,323.727 590.66,323.727 C591.583,323.727 592.367,323.518 593.045,323.188 z" fill="#000000"/>
    <path d="M594.824,325.486 L597.191,313.125 L599.699,313.125 L597.331,325.486 z" fill="#000000"/>
    <path d="M602.644,325.486 L605.011,313.125 L607.519,313.125 L605.151,325.486 z" fill="#000000"/>
    <path d="M610.427,315.911 C609.748,315.911 609.226,315.44 609.226,314.692 C609.243,313.839 609.906,313.265 610.671,313.265 C611.403,313.265 611.925,313.752 611.925,314.5 C611.925,315.389 611.245,315.911 610.445,315.911 z M607.259,325.486 L608.878,316.973 L611.385,316.973 L609.766,325.486 z" fill="#000000"/>
    <path d="M611.874,325.486 L614.207,313.125 L616.696,313.125 L615.304,320.524 L615.339,320.524 C615.6,320.193 615.86,319.863 616.104,319.549 L618.281,316.972 L621.362,316.972 L617.741,320.472 L620.108,325.486 L617.323,325.486 L615.826,321.847 L614.886,322.753 L614.363,325.486 z" fill="#000000"/>
    <path d="M626.52,319.323 C626.52,318.905 626.172,318.609 625.596,318.609 C624.431,318.609 623.768,319.566 623.595,320.368 C625.544,320.385 626.52,320.106 626.52,319.341 z M627.807,324.999 C626.815,325.504 625.58,325.677 624.64,325.677 C622.203,325.677 620.948,324.285 620.948,322.074 C620.948,319.479 622.83,316.781 625.911,316.781 C627.634,316.781 628.871,317.738 628.871,319.323 C628.871,321.499 626.763,322.283 623.351,322.195 C623.351,322.439 623.439,322.822 623.612,323.066 C623.944,323.502 624.518,323.727 625.249,323.727 C626.172,323.727 626.956,323.518 627.634,323.188 z" fill="#000000"/>
    <path d="M531.133,340.766 C531.081,341.045 531.029,341.341 531.046,341.706 C531.064,342.316 531.429,342.647 532.004,342.647 C533.448,342.647 534.493,340.627 534.493,339.147 C534.493,338.312 534.146,337.667 533.379,337.667 C532.474,337.667 531.586,338.59 531.29,340.07 z M532.892,331.992 L531.882,336.849 L531.917,336.849 C532.543,336.1 533.501,335.648 534.546,335.648 C536.321,335.648 537.122,337.093 537.122,338.608 C537.122,341.375 535.312,344.544 531.482,344.544 C529.462,344.544 528.452,343.674 528.452,342.16 C528.452,341.637 528.539,341.115 528.644,340.592 L530.367,331.992 z" fill="#000000"/>
    <path d="M547.049,335.839 L545.952,341.584 C545.743,342.664 545.622,343.587 545.5,344.353 L543.289,344.353 L543.445,342.96 L543.41,342.96 C542.54,344.074 541.495,344.544 540.468,344.544 C539.111,344.544 538.292,343.778 538.292,342.159 C538.292,341.689 538.344,341.184 538.466,340.592 L539.354,335.839 L541.861,335.839 L541.008,340.401 C540.939,340.783 540.886,341.201 540.886,341.515 C540.886,342.072 541.095,342.507 541.739,342.507 C542.592,342.507 543.463,341.48 543.794,339.774 L544.542,335.839 z" fill="#000000"/>
    <path d="M547.558,344.353 L549.925,331.992 L552.433,331.992 L550.065,344.353 z" fill="#000000"/>
    <path d="M552.173,344.353 L554.54,331.992 L557.048,331.992 L554.68,344.353 z" fill="#000000"/>
    <path d="M560.025,335.839 L560.547,339.547 C560.67,340.418 560.756,341.027 560.827,341.567 L560.861,341.567 C561.052,341.062 561.244,340.505 561.61,339.582 L563.16,335.839 L565.805,335.839 L562.759,341.95 C561.628,344.213 560.618,345.763 559.486,346.825 C558.494,347.765 557.309,348.183 556.753,348.27 L556.195,346.128 C556.595,346.007 557.153,345.798 557.64,345.449 C558.214,345.049 558.703,344.544 559.015,343.97 C559.103,343.848 559.103,343.743 559.068,343.552 L557.379,335.839 z" fill="#000000"/>
    <path d="M568.681,334.777 C568.002,334.777 567.48,334.306 567.48,333.558 C567.497,332.705 568.16,332.131 568.925,332.131 C569.657,332.131 570.179,332.618 570.179,333.366 C570.179,334.255 569.499,334.777 568.699,334.777 z M565.513,344.352 L567.132,335.839 L569.639,335.839 L568.02,344.352 z" fill="#000000"/>
    <path d="M570.128,344.353 L571.207,338.608 C571.416,337.527 571.556,336.587 571.66,335.839 L573.889,335.839 L573.714,337.249 L573.749,337.249 C574.55,336.134 575.612,335.647 576.743,335.647 C578.137,335.647 578.92,336.5 578.92,337.962 C578.92,338.345 578.851,338.991 578.78,339.409 L577.841,344.353 L575.333,344.353 L576.222,339.634 C576.274,339.337 576.309,338.991 576.309,338.677 C576.309,338.085 576.1,337.667 575.473,337.667 C574.654,337.667 573.697,338.694 573.349,340.574 L572.635,344.353 z" fill="#000000"/>
    <path d="M586.34,337.719 C586.148,337.632 585.782,337.563 585.434,337.563 C583.919,337.563 582.84,339.251 582.84,340.87 C582.84,341.724 583.223,342.351 583.989,342.351 C584.808,342.351 585.643,341.446 585.904,340 z M580.489,345.536 C580.96,345.816 582.004,346.007 582.718,346.007 C583.972,346.007 584.912,345.449 585.26,343.743 L585.4,343.03 L585.364,343.03 C584.703,343.883 583.937,344.283 582.927,344.283 C581.238,344.283 580.211,342.907 580.194,341.254 C580.194,338.433 582.195,335.648 585.904,335.648 C587.106,335.648 588.167,335.857 589.056,336.24 L587.767,343.256 C587.471,344.823 587.001,346.216 585.974,347.034 C585.051,347.765 583.815,347.991 582.684,347.991 C581.552,347.991 580.489,347.782 579.915,347.451 z" fill="#000000"/>
    <path d="M597.659,333.523 L597.224,335.838 L599.035,335.838 L598.669,337.736 L596.858,337.736 L596.284,340.627 C596.215,340.958 596.144,341.41 596.144,341.706 C596.144,342.124 596.319,342.419 596.858,342.419 C597.085,342.419 597.329,342.419 597.555,342.384 L597.259,344.352 C596.945,344.474 596.319,344.544 595.779,344.544 C594.282,344.544 593.568,343.76 593.568,342.698 C593.568,342.228 593.62,341.775 593.742,341.114 L594.403,337.736 L593.324,337.736 L593.673,335.838 L594.769,335.838 L595.083,334.237 z" fill="#000000"/>
    <path d="M601.718,340.975 C601.718,341.968 602.205,342.629 603.076,342.629 C604.451,342.629 605.218,340.627 605.218,339.164 C605.218,338.381 604.887,337.545 603.877,337.545 C602.432,337.545 601.7,339.652 601.718,340.975 M607.812,339.147 C607.812,342.264 605.688,344.544 602.728,344.544 C600.57,344.544 599.124,343.134 599.124,341.028 C599.124,338.068 601.179,335.648 604.208,335.648 C606.489,335.648 607.812,337.214 607.812,339.147" fill="#000000"/>
    <path d="M616.572,333.523 L616.137,335.838 L617.948,335.838 L617.582,337.736 L615.771,337.736 L615.197,340.627 C615.128,340.958 615.057,341.41 615.057,341.706 C615.057,342.124 615.232,342.419 615.771,342.419 C615.998,342.419 616.242,342.419 616.468,342.384 L616.172,344.352 C615.858,344.474 615.232,344.544 614.692,344.544 C613.195,344.544 612.481,343.76 612.481,342.698 C612.481,342.228 612.533,341.775 612.655,341.114 L613.316,337.736 L612.237,337.736 L612.586,335.838 L613.682,335.838 L613.996,334.237 z" fill="#000000"/>
    <path d="M617.828,344.353 L620.161,331.992 L622.668,331.992 L621.727,336.918 L621.763,336.936 C622.459,336.152 623.347,335.647 624.478,335.647 C625.802,335.647 626.62,336.483 626.62,337.945 C626.62,338.345 626.551,338.991 626.464,339.478 L625.541,344.353 L623.033,344.353 L623.904,339.686 C623.974,339.355 624.026,338.991 624.026,338.625 C624.026,338.068 623.782,337.667 623.155,337.667 C622.285,337.667 621.397,338.729 621.066,340.453 L620.335,344.353 z" fill="#000000"/>
    <path d="M633.465,338.19 C633.465,337.772 633.117,337.476 632.542,337.476 C631.376,337.476 630.714,338.433 630.54,339.234 C632.49,339.251 633.465,338.973 633.465,338.208 z M634.753,343.866 C633.761,344.371 632.525,344.544 631.585,344.544 C629.148,344.544 627.894,343.152 627.894,340.941 C627.894,338.346 629.775,335.648 632.856,335.648 C634.579,335.648 635.816,336.605 635.816,338.19 C635.816,340.366 633.709,341.15 630.296,341.062 C630.296,341.306 630.384,341.689 630.558,341.933 C630.889,342.368 631.463,342.594 632.194,342.594 C633.117,342.594 633.901,342.385 634.579,342.055 z" fill="#000000"/>
    <path d="M530.941,359.842 C530.941,360.835 531.428,361.496 532.299,361.496 C533.674,361.496 534.441,359.494 534.441,358.031 C534.441,357.248 534.11,356.412 533.1,356.412 C531.655,356.412 530.923,358.519 530.941,359.842 M537.035,358.014 C537.035,361.131 534.911,363.411 531.951,363.411 C529.793,363.411 528.347,362.001 528.347,359.895 C528.347,356.935 530.402,354.515 533.431,354.515 C535.712,354.515 537.035,356.081 537.035,358.014" fill="#000000"/>
    <path d="M542.592,352.391 L542.157,354.706 L543.968,354.706 L543.602,356.604 L541.791,356.604 L541.217,359.495 C541.148,359.826 541.077,360.278 541.077,360.574 C541.077,360.992 541.252,361.287 541.791,361.287 C542.018,361.287 542.262,361.287 542.488,361.252 L542.192,363.22 C541.878,363.342 541.252,363.412 540.712,363.412 C539.215,363.412 538.501,362.628 538.501,361.566 C538.501,361.096 538.553,360.643 538.675,359.982 L539.336,356.604 L538.257,356.604 L538.606,354.706 L539.702,354.706 L540.016,353.105 z" fill="#000000"/>
    <path d="M543.848,363.22 L546.181,350.859 L548.688,350.859 L547.747,355.785 L547.783,355.803 C548.479,355.02 549.367,354.515 550.498,354.515 C551.822,354.515 552.64,355.351 552.64,356.813 C552.64,357.213 552.571,357.858 552.484,358.345 L551.561,363.22 L549.053,363.22 L549.924,358.554 C549.994,358.223 550.046,357.858 550.046,357.492 C550.046,356.935 549.802,356.534 549.175,356.534 C548.305,356.534 547.417,357.597 547.086,359.321 L546.355,363.22 z" fill="#000000"/>
    <path d="M559.484,357.057 C559.484,356.639 559.136,356.343 558.561,356.343 C557.395,356.343 556.733,357.3 556.559,358.102 C558.509,358.119 559.484,357.84 559.484,357.075 z M560.772,362.733 C559.78,363.238 558.544,363.411 557.604,363.411 C555.167,363.411 553.913,362.019 553.913,359.808 C553.913,357.213 555.794,354.515 558.875,354.515 C560.598,354.515 561.835,355.472 561.835,357.057 C561.835,359.233 559.728,360.017 556.315,359.929 C556.315,360.173 556.403,360.556 556.577,360.8 C556.908,361.236 557.482,361.461 558.213,361.461 C559.136,361.461 559.92,361.252 560.598,360.922 z" fill="#000000"/>
    <path d="M562.378,363.22 L563.335,358.154 C563.579,356.866 563.684,355.438 563.771,354.706 L565.947,354.706 C565.895,355.281 565.843,355.856 565.79,356.448 L565.843,356.448 C566.435,355.316 567.392,354.515 568.559,354.515 C568.715,354.515 568.872,354.515 569.028,354.532 L568.541,356.97 C568.419,356.97 568.279,356.952 568.141,356.952 C566.539,356.952 565.79,358.38 565.477,360.051 L564.885,363.22 z" fill="#000000"/>
    <path d="M574.915,361.096 C575.193,361.357 575.577,361.514 576.064,361.514 C577.405,361.514 578.449,359.599 578.449,357.927 C578.449,357.248 578.171,356.534 577.353,356.534 C576.412,356.534 575.542,357.597 575.228,359.268 z M571.346,366.667 L572.982,357.997 C573.174,356.988 573.383,355.507 573.487,354.637 L575.733,354.637 L575.577,355.943 L575.611,355.943 C576.308,355.02 577.318,354.515 578.345,354.515 C580.19,354.515 581.078,355.994 581.078,357.736 C581.078,360.696 579.111,363.411 576.151,363.411 C575.455,363.411 574.863,363.238 574.567,363.064 L574.532,363.064 L573.836,366.667 z" fill="#000000"/>
    <path d="M587.731,357.057 C587.731,356.639 587.383,356.343 586.808,356.343 C585.642,356.343 584.98,357.3 584.806,358.102 C586.756,358.119 587.731,357.84 587.731,357.075 z M589.019,362.733 C588.027,363.238 586.791,363.411 585.851,363.411 C583.414,363.411 582.16,362.019 582.16,359.808 C582.16,357.213 584.041,354.515 587.122,354.515 C588.845,354.515 590.082,355.472 590.082,357.057 C590.082,359.233 587.975,360.017 584.562,359.929 C584.562,360.173 584.65,360.556 584.824,360.8 C585.155,361.236 585.729,361.461 586.46,361.461 C587.383,361.461 588.167,361.252 588.845,360.922 z" fill="#000000"/>
    <path d="M590.625,363.22 L591.582,358.154 C591.826,356.866 591.931,355.438 592.018,354.706 L594.194,354.706 C594.142,355.281 594.09,355.856 594.037,356.448 L594.09,356.448 C594.682,355.316 595.639,354.515 596.806,354.515 C596.962,354.515 597.119,354.515 597.275,354.532 L596.788,356.97 C596.666,356.97 596.527,356.952 596.388,356.952 C594.786,356.952 594.037,358.38 593.724,360.051 L593.132,363.22 z" fill="#000000"/>
    <path d="M597.382,360.974 C597.869,361.218 598.792,361.566 599.611,361.566 C600.324,361.566 600.69,361.218 600.69,360.8 C600.69,360.382 600.411,360.086 599.627,359.703 C598.635,359.216 597.817,358.502 597.817,357.44 C597.817,355.681 599.366,354.515 601.56,354.515 C602.553,354.515 603.336,354.706 603.754,354.951 L603.162,356.726 C602.796,356.552 602.204,356.343 601.455,356.343 C600.794,356.343 600.341,356.639 600.341,357.092 C600.341,357.44 600.69,357.736 601.386,358.067 C602.309,358.536 603.283,359.216 603.283,360.4 C603.283,362.35 601.63,363.429 599.384,363.412 C598.305,363.376 597.278,363.116 596.773,362.733 z" fill="#000000"/>
    <path d="M607.203,359.842 C607.203,360.835 607.69,361.496 608.561,361.496 C609.936,361.496 610.703,359.494 610.703,358.031 C610.703,357.248 610.372,356.412 609.362,356.412 C607.917,356.412 607.185,358.519 607.203,359.842 M613.297,358.014 C613.297,361.131 611.173,363.411 608.213,363.411 C606.055,363.411 604.609,362.001 604.609,359.895 C604.609,356.935 606.664,354.515 609.693,354.515 C611.974,354.515 613.297,356.081 613.297,358.014" fill="#000000"/>
    <path d="M614.049,363.22 L615.128,357.475 C615.337,356.395 615.477,355.455 615.581,354.706 L617.81,354.706 L617.635,356.116 L617.67,356.116 C618.471,355.002 619.533,354.515 620.664,354.515 C622.058,354.515 622.841,355.368 622.841,356.83 C622.841,357.213 622.772,357.858 622.701,358.276 L621.762,363.22 L619.254,363.22 L620.143,358.502 C620.195,358.205 620.23,357.858 620.23,357.544 C620.23,356.952 620.021,356.534 619.394,356.534 C618.575,356.534 617.618,357.562 617.27,359.442 L616.556,363.22 z" fill="#000000"/>
    <path d="M625.873,359.407 C625.891,359.25 625.907,359.094 625.942,358.954 C626.064,358.013 626.552,357.092 627.51,356.081 C628.188,355.333 628.902,354.741 628.902,354.132 C628.902,353.678 628.676,353.313 627.875,353.296 C627.109,353.296 626.465,353.487 625.995,353.783 L625.664,352.025 C626.309,351.624 627.301,351.276 628.606,351.276 C630.277,351.276 631.496,352.217 631.496,353.644 C631.496,355.037 630.573,355.942 629.581,356.934 C628.902,357.613 628.571,358.205 628.397,358.989 C628.38,359.128 628.345,359.25 628.311,359.407 z M626.5,363.411 C625.682,363.411 625.124,362.802 625.124,361.983 C625.124,361.06 625.804,360.242 626.796,360.242 C627.648,360.242 628.224,360.851 628.224,361.705 C628.224,362.697 627.51,363.411 626.517,363.411 z" fill="#000000"/>
  </g>
</svg>
