<?xml version="1.0" encoding="UTF-8"?>
<!DOCTYPE svg PUBLIC "-//W3C//DTD SVG 1.1//EN" "http://www.w3.org/Graphics/SVG/1.1/DTD/svg11.dtd">
<svg version="1.1" xmlns="http://www.w3.org/2000/svg" xmlns:xlink="http://www.w3.org/1999/xlink" x="0" y="0" width="760.654" height="231.442" viewBox="0, 0, 760.654, 231.442">
  <g id="Layer_2" transform="translate(-22.546, -25.515)">
    <g>
      <path d="M166.932,138.477 C166.932,149.707 169.179,153.524 175.69,153.524 C179.059,153.524 181.978,152.849 181.978,152.849 L183.777,155.321 L181.753,173.962 C181.753,173.962 161.992,173.512 143.351,173.512 C133.02,173.512 106.07,173.739 106.07,173.739 L107.866,154.199 C118.647,153.972 122.689,149.257 122.689,137.13 L122.689,114.222 C122.689,114.222 115.053,113.999 109.44,113.999 C104.499,113.999 84.062,116.019 84.062,116.019 L84.062,138.477 C84.062,151.054 85.409,153.972 91.249,153.972 C95.291,153.972 97.312,153.299 97.312,153.299 L99.109,155.546 L97.087,174.412 C97.087,174.412 69.912,173.512 60.704,173.512 C46.781,173.512 23.425,174.634 23.425,174.634 L25.221,155.546 C37.123,153.077 39.819,149.707 39.819,137.13 L39.819,59.425 C39.819,50.218 38.246,47.971 31.957,47.971 C29.489,47.971 26.119,48.194 26.119,48.194 L24.098,45.053 L25.894,28.208 L54.866,28.208 C68.116,28.208 99.558,27.085 99.558,27.085 L97.985,47.298 C88.329,49.095 86.531,50.891 86.083,58.975 L84.735,86.149 L103.824,86.824 C113.932,86.824 118.422,86.599 122.689,86.149 L122.689,59.425 C122.689,50.441 121.119,47.971 114.83,47.971 C112.358,47.971 108.766,48.194 108.766,48.194 L106.745,45.053 L108.541,28.208 L144.699,28.208 C154.355,28.208 184.225,27.085 184.225,27.085 L182.654,46.849 C171.873,48.645 169.626,50.441 169.179,58.975 C167.83,77.167 166.932,109.73 166.932,138.477" fill="#000000"/>
      <path d="M183.701,118.729 C183.701,104.576 192.194,95.752 206.347,95.752 C219.334,95.752 226.826,103.411 226.826,116.732 C226.826,131.051 218.335,139.876 204.514,139.876 C191.028,139.876 183.701,132.382 183.701,118.729" fill="#FE0401"/>
      <path d="M299.888,147.686 C319.202,147.686 323.245,144.092 325.94,123.881 L354.686,121.86 L357.381,125.228 C357.381,125.228 353.338,147.01 351.094,171.493 L347.724,175.085 C347.724,175.085 310.443,173.512 275.633,173.512 C252.503,173.512 228.246,175.758 228.246,175.758 L230.267,155.096 C241.497,153.299 244.866,148.807 244.866,135.333 L245.091,60.1 C245.091,50.442 243.968,47.972 239.027,47.972 C236.556,47.972 233.187,48.422 233.187,48.422 L230.492,45.277 L232.513,27.534 C232.513,27.534 264.405,28.209 284.841,28.209 C312.915,28.209 341.66,27.086 354.237,25.515 L357.158,29.107 C357.158,29.107 353.116,52.688 351.992,73.799 L321,75.819 C321,75.819 321.447,70.431 321.447,67.51 C321.447,57.403 317.63,55.159 299.439,55.159 C293.151,55.159 291.803,56.281 291.803,61.222 L290.456,86.6 C294.722,86.6 302.583,86.825 308.872,86.825 C315.608,86.825 333.576,85.477 333.576,85.477 L336.27,88.62 L333.126,114.448 C333.126,114.448 316.507,113.772 306.177,113.772 C299.664,113.772 293.375,114.672 289.334,115.122 C289.109,122.757 289.109,129.27 289.109,134.21 C289.109,145.889 290.456,147.686 299.888,147.686" fill="#000000"/>
      <path d="M367.411,118.729 C367.411,104.576 375.903,95.752 390.055,95.752 C403.042,95.752 410.536,103.411 410.536,116.732 C410.536,131.051 402.044,139.876 388.223,139.876 C374.737,139.876 367.411,132.382 367.411,118.729" fill="#FE0401"/>
      <path d="M469.674,105.914 L481.128,105.914 C484.494,105.914 488.763,105.687 492.805,105.465 L485.169,66.163 L480.23,66.163 z M560.405,154.199 L561.976,156.443 L560.18,174.187 C560.18,174.187 540.866,173.739 528.516,173.739 C507.177,173.739 485.618,174.86 485.618,174.86 L483.822,172.839 L485.169,153.973 C498.867,152.402 499.544,152.178 499.544,146.338 C499.544,145.441 499.319,144.093 499.094,142.297 L497.747,133.539 C491.683,133.31 484.72,133.089 480.453,133.089 C475.287,133.089 468.325,133.761 462.486,134.211 L460.24,144.093 C459.792,146.563 459.568,148.136 459.568,149.035 C459.568,152.85 460.466,153.524 466.529,153.524 L472.368,153.524 L474.167,155.771 L472.368,174.412 C472.368,174.412 451.483,173.739 437.783,173.739 C423.86,173.739 407.913,173.963 407.913,173.963 L409.486,154.424 C414.875,153.077 418.695,149.035 420.939,142.072 L456.65,29.331 L515.713,25.737 L519.082,28.434 C519.082,28.434 540.642,114.896 547.154,139.152 C549.85,149.258 553.442,153.524 560.405,154.199" fill="#000000"/>
      <path d="M559.848,118.729 C559.848,104.576 568.341,95.752 582.494,95.752 C595.481,95.752 602.973,103.411 602.973,116.732 C602.973,131.051 594.483,139.876 580.661,139.876 C567.175,139.876 559.848,132.382 559.848,118.729" fill="#FE0401"/>
      <path d="M681.827,96.258 C691.935,91.99 695.527,86.376 695.527,73.574 C695.527,60.773 687.667,54.934 670.149,54.934 C667.006,54.934 666.556,55.607 666.33,59.875 C665.433,71.328 664.984,82.557 664.76,94.012 z M664.087,122.309 L664.087,137.58 C664.087,151.505 665.658,153.077 680.031,153.749 L681.153,155.547 L678.908,174.412 C678.908,174.412 651.51,173.513 642.077,173.513 C625.458,173.513 603.224,175.535 603.224,175.535 L605.246,154.874 C616.25,153.077 619.844,148.361 619.844,135.783 L619.844,57.853 C619.844,50.442 618.495,47.972 614.004,47.972 C610.636,47.972 606.144,48.422 606.144,48.422 L603.897,45.726 L606.369,27.984 C606.369,27.984 629.052,28.209 638.26,28.209 C649.038,28.209 679.806,26.861 679.806,26.861 C721.129,26.861 741.791,40.785 741.791,69.082 C741.791,86.6 732.583,100.973 714.842,111.529 L728.766,134.885 C736.401,147.686 744.037,154.65 750.55,154.65 L753.02,158.242 L750.999,174.635 L716.189,177.108 C703.611,177.108 696.426,171.493 690.587,156.669 L676.662,122.309 z" fill="#000000"/>
      <path d="M31.636,212 L31.636,224.506 L42.638,224.506 L42.638,212 L51.678,212 L51.678,245.854 L42.638,245.854 L42.638,232.441 L31.636,232.441 L31.636,245.854 L22.546,245.854 L22.546,212 z" fill="#000000"/>
      <path d="M73.934,231.337 C73.983,228.524 72.779,224.154 67.804,224.154 C63.332,224.154 61.374,228.275 61.022,231.337 z M60.975,234.502 C61.073,240.481 64.891,242.942 69.313,242.942 C72.476,242.942 74.386,242.389 76.042,241.688 L76.796,244.848 C75.24,245.551 72.578,246.407 68.708,246.407 C61.223,246.407 56.753,241.435 56.753,234.102 C56.753,226.766 61.073,220.99 68.156,220.99 C76.093,220.99 78.203,227.973 78.203,232.441 C78.203,233.346 78.103,234.049 78.052,234.502 z" fill="#000000"/>
      <path d="M83.676,210.189 L88.098,210.189 L88.098,245.853 L83.676,245.853 z" fill="#000000"/>
      <path d="M99.904,235.958 C99.904,236.612 100.002,237.215 100.104,237.768 C100.908,240.832 103.57,242.942 106.737,242.942 C111.407,242.942 114.118,239.123 114.118,233.548 C114.118,228.676 111.558,224.506 106.884,224.506 C103.872,224.506 101.059,226.666 100.202,229.979 C100.053,230.534 99.904,231.187 99.904,231.792 z M95.532,229.479 C95.532,226.364 95.43,223.854 95.332,221.545 L99.3,221.545 L99.501,225.71 L99.601,225.71 C101.411,222.748 104.275,220.99 108.24,220.99 C114.118,220.99 118.539,225.964 118.539,233.346 C118.539,242.089 113.215,246.407 107.489,246.407 C104.275,246.407 101.46,245 100.002,242.59 L99.904,242.59 L99.904,255.8 L95.532,255.8 z" fill="#000000"/>
      <path d="M124.114,221.545 L128.537,221.545 L128.537,245.854 L124.114,245.854 z M124.114,245.854 M129.039,214.71 C129.089,216.218 127.983,217.423 126.227,217.423 C124.667,217.423 123.564,216.218 123.564,214.71 C123.564,213.153 124.718,211.948 126.325,211.948 C127.983,211.948 129.039,213.153 129.039,214.71" fill="#000000"/>
      <path d="M135.87,228.123 C135.87,225.61 135.821,223.551 135.67,221.545 L139.589,221.545 L139.839,225.56 L139.939,225.56 C141.145,223.248 143.958,220.99 147.978,220.99 C151.342,220.99 156.568,223 156.568,231.337 L156.568,245.853 L152.143,245.853 L152.143,231.841 C152.143,227.921 150.689,224.655 146.52,224.655 C143.607,224.655 141.346,226.716 140.591,229.178 C140.391,229.731 140.29,230.483 140.29,231.237 L140.29,245.853 L135.87,245.853 z" fill="#000000"/>
      <path d="M180.125,231.138 C180.125,230.383 180.074,229.732 179.874,229.127 C179.068,226.567 176.91,224.456 173.694,224.456 C169.475,224.456 166.46,228.024 166.46,233.649 C166.46,238.42 168.871,242.389 173.644,242.389 C176.356,242.389 178.818,240.682 179.773,237.869 C180.022,237.117 180.125,236.26 180.125,235.507 z M184.494,242.337 C184.494,247.914 183.388,251.33 181.028,253.441 C178.667,255.652 175.25,256.352 172.186,256.352 C169.274,256.352 166.06,255.652 164.099,254.344 L165.205,250.979 C166.812,251.983 169.323,252.889 172.337,252.889 C176.859,252.889 180.172,250.527 180.172,244.399 L180.172,241.688 L180.074,241.688 C178.718,243.946 176.105,245.754 172.337,245.754 C166.312,245.754 161.989,240.631 161.989,233.9 C161.989,225.661 167.364,220.991 172.94,220.991 C177.158,220.991 179.469,223.2 180.527,225.209 L180.628,225.209 L180.828,221.545 L184.695,221.545 C184.594,223.303 184.494,225.26 184.494,228.221 z" fill="#000000"/>
      <path d="M223.173,232.193 L211.018,232.193 L211.018,238.42 L224.629,238.42 L224.629,245.853 L201.924,245.853 L201.924,212 L223.925,212 L223.925,219.38 L211.018,219.38 L211.018,224.857 L223.173,224.857 z" fill="#000000"/>
      <path d="M231.914,221.545 L236.686,235.205 C237.49,237.414 238.144,239.426 238.645,241.435 L238.796,241.435 C239.348,239.426 240.052,237.414 240.857,235.205 L245.578,221.545 L250.199,221.545 L240.655,245.854 L236.436,245.854 L227.191,221.545 z" fill="#000000"/>
      <path d="M269.288,231.337 C269.339,228.524 268.135,224.154 263.16,224.154 C258.689,224.154 256.73,228.275 256.378,231.337 z M256.329,234.502 C256.427,240.481 260.246,242.942 264.667,242.942 C267.83,242.942 269.742,242.389 271.398,241.688 L272.152,244.848 C270.595,245.551 267.933,246.407 264.062,246.407 C256.579,246.407 252.109,241.435 252.109,234.102 C252.109,226.766 256.427,220.99 263.512,220.99 C271.449,220.99 273.558,227.973 273.558,232.441 C273.558,233.346 273.459,234.049 273.408,234.502 z" fill="#000000"/>
      <path d="M279.033,229.127 C279.033,226.264 278.985,223.802 278.834,221.545 L282.701,221.545 L282.85,226.315 L283.053,226.315 C284.158,223.049 286.821,220.99 289.781,220.99 C290.286,220.99 290.638,221.04 291.039,221.139 L291.039,225.31 C290.587,225.209 290.136,225.159 289.534,225.159 C286.418,225.159 284.207,227.518 283.606,230.835 C283.503,231.438 283.405,232.144 283.405,232.897 L283.405,245.854 L279.033,245.854 z" fill="#000000"/>
      <path d="M298.322,221.545 L303.648,235.908 C304.202,237.518 304.803,239.426 305.204,240.881 L305.304,240.881 C305.758,239.426 306.259,237.566 306.864,235.808 L311.686,221.545 L316.356,221.545 L309.727,238.872 C306.559,247.211 304.4,251.481 301.386,254.095 C299.227,256.003 297.068,256.756 295.96,256.957 L294.858,253.24 C295.96,252.889 297.42,252.184 298.724,251.08 C299.929,250.124 301.438,248.416 302.44,246.156 C302.64,245.703 302.793,245.352 302.793,245.1 C302.793,244.848 302.694,244.496 302.493,243.945 L293.501,221.545 z" fill="#000000"/>
      <path d="M322.586,233.75 C322.586,239.074 325.65,243.09 329.971,243.09 C334.191,243.09 337.354,239.123 337.354,233.648 C337.354,229.529 335.295,224.304 330.07,224.304 C324.847,224.304 322.586,229.127 322.586,233.75 M341.875,233.496 C341.875,242.489 335.647,246.407 329.771,246.407 C323.189,246.407 318.116,241.584 318.116,233.899 C318.116,225.762 323.44,220.99 330.173,220.99 C337.153,220.99 341.875,226.062 341.875,233.496" fill="#000000"/>
      <path d="M347.45,228.123 C347.45,225.61 347.404,223.551 347.252,221.545 L351.171,221.545 L351.421,225.56 L351.521,225.56 C352.728,223.248 355.538,220.99 359.561,220.99 C362.924,220.99 368.15,223 368.15,231.337 L368.15,245.853 L363.725,245.853 L363.725,231.841 C363.725,227.921 362.272,224.655 358.101,224.655 C355.187,224.655 352.928,226.716 352.173,229.178 C351.973,229.731 351.873,230.483 351.873,231.237 L351.873,245.853 L347.45,245.853 z" fill="#000000"/>
      <path d="M390.752,231.337 C390.802,228.524 389.597,224.154 384.624,224.154 C380.151,224.154 378.192,228.275 377.841,231.337 z M377.792,234.502 C377.893,240.481 381.712,242.942 386.132,242.942 C389.295,242.942 391.205,242.389 392.862,241.688 L393.615,244.848 C392.059,245.551 389.397,246.407 385.528,246.407 C378.042,246.407 373.572,241.435 373.572,234.102 C373.572,226.766 377.893,220.99 384.975,220.99 C392.913,220.99 395.022,227.973 395.022,232.441 C395.022,233.346 394.923,234.049 394.871,234.502 z" fill="#000000"/>
      <path d="M426.971,231.288 L425.412,225.209 C424.909,223.303 424.257,220.539 423.756,218.528 L423.655,218.528 C423.153,220.539 422.65,223.351 422.147,225.26 L420.691,231.288 z M419.485,238.018 L417.575,245.853 L408.182,245.853 L418.029,212 L430.084,212 L440.18,245.853 L430.385,245.853 L428.226,238.018 z" fill="#000000"/>
      <path d="M462.386,244.951 C461.23,245.551 458.667,246.407 455.403,246.407 C448.069,246.407 443.296,241.386 443.296,233.951 C443.296,226.463 448.422,221.04 456.356,221.04 C458.97,221.04 461.282,221.693 462.486,222.297 L461.481,225.71 C460.426,225.11 458.768,224.555 456.356,224.555 C450.78,224.555 447.766,228.676 447.766,233.75 C447.766,239.375 451.383,242.842 456.205,242.842 C458.719,242.842 460.375,242.187 461.633,241.634 z" fill="#000000"/>
      <path d="M467.558,210.189 L471.979,210.189 L471.979,225.361 L472.079,225.361 C472.783,224.104 473.888,223 475.244,222.245 C476.551,221.49 478.107,220.99 479.765,220.99 C483.03,220.99 488.254,223 488.254,231.385 L488.254,245.853 L483.834,245.853 L483.834,231.89 C483.834,227.972 482.378,224.655 478.208,224.655 C475.346,224.655 473.084,226.666 472.282,229.077 C472.029,229.679 471.979,230.334 471.979,231.187 L471.979,245.853 L467.558,245.853 z" fill="#000000"/>
      <path d="M495.437,221.545 L499.86,221.545 L499.86,245.854 L495.437,245.854 z M495.437,245.854 M500.359,214.71 C500.411,216.218 499.305,217.423 497.549,217.423 C495.991,217.423 494.887,216.218 494.887,214.71 C494.887,213.153 496.04,211.948 497.648,211.948 C499.305,211.948 500.359,213.153 500.359,214.71" fill="#000000"/>
      <path d="M522.612,231.337 C522.665,228.524 521.459,224.154 516.483,224.154 C512.013,224.154 510.054,228.275 509.703,231.337 z M509.654,234.502 C509.753,240.481 513.572,242.942 517.991,242.942 C521.156,242.942 523.065,242.389 524.721,241.688 L525.475,244.848 C523.92,245.551 521.258,246.407 517.389,246.407 C509.904,246.407 505.432,241.435 505.432,234.102 C505.432,226.766 509.753,220.99 516.835,220.99 C524.772,220.99 526.883,227.973 526.883,232.441 C526.883,233.346 526.783,234.049 526.731,234.502 z" fill="#000000"/>
      <path d="M534.065,221.545 L538.837,235.205 C539.643,237.414 540.295,239.426 540.797,241.435 L540.945,241.435 C541.5,239.426 542.203,237.414 543.005,235.205 L547.73,221.545 L552.351,221.545 L542.807,245.854 L538.588,245.854 L529.343,221.545 z" fill="#000000"/>
      <path d="M571.44,231.337 C571.49,228.524 570.288,224.154 565.31,224.154 C560.841,224.154 558.882,228.275 558.531,231.337 z M558.482,234.502 C558.581,240.481 562.401,242.942 566.82,242.942 C569.982,242.942 571.891,242.389 573.549,241.688 L574.304,244.848 C572.747,245.551 570.085,246.407 566.214,246.407 C558.732,246.407 554.26,241.435 554.26,234.102 C554.26,226.766 558.581,220.99 565.664,220.99 C573.599,220.99 575.71,227.973 575.71,232.441 C575.71,233.346 575.612,234.049 575.56,234.502 z" fill="#000000"/>
      <path d="M600.271,226.666 L602.633,226.666 C606.049,226.666 608.01,224.958 608.01,222.447 C608.01,219.885 606.352,218.478 603.336,218.429 C601.628,218.429 600.724,218.528 600.271,218.628 z M591.281,212.45 C593.841,212.049 597.713,211.747 602.229,211.747 C607.406,211.747 611.122,212.45 613.685,214.358 C615.844,216.018 617.049,218.429 617.049,221.743 C617.049,225.964 613.885,228.979 611.222,229.93 L611.222,230.132 C613.482,231.086 614.692,233.248 615.544,236.16 C616.599,239.627 617.703,244.551 618.355,245.854 L609.063,245.854 C608.56,244.848 607.708,242.237 606.703,238.068 C605.797,234 604.542,233.145 601.73,233.145 L600.271,233.145 L600.271,245.854 L591.281,245.854 z" fill="#000000"/>
      <path d="M638.25,231.337 C638.299,228.524 637.096,224.154 632.12,224.154 C627.649,224.154 625.69,228.275 625.339,231.337 z M625.291,234.502 C625.391,240.481 629.209,242.942 633.629,242.942 C636.793,242.942 638.702,242.389 640.358,241.688 L641.112,244.848 C639.557,245.551 636.895,246.407 633.026,246.407 C625.539,246.407 621.069,241.435 621.069,234.102 C621.069,226.766 625.391,220.99 632.472,220.99 C640.409,220.99 642.519,227.973 642.519,232.441 C642.519,233.346 642.42,234.049 642.37,234.502 z" fill="#000000"/>
      <path d="M647.392,241.334 C648.701,242.188 651.011,243.09 653.217,243.09 C656.434,243.09 657.943,241.484 657.943,239.475 C657.943,237.364 656.684,236.21 653.42,235.006 C649.05,233.447 646.992,231.034 646.992,228.123 C646.992,224.205 650.154,220.99 655.38,220.99 C657.84,220.99 660,221.693 661.357,222.496 L660.253,225.71 C659.296,225.11 657.539,224.304 655.278,224.304 C652.664,224.304 651.209,225.811 651.209,227.621 C651.209,229.628 652.664,230.534 655.832,231.738 C660.05,233.346 662.209,235.456 662.209,239.074 C662.209,243.343 658.895,246.407 653.119,246.407 C650.456,246.407 647.994,245.703 646.286,244.699 z" fill="#000000"/>
      <path d="M672.256,235.958 C672.256,236.612 672.359,237.215 672.459,237.768 C673.261,240.832 675.923,242.942 679.089,242.942 C683.762,242.942 686.47,239.123 686.47,233.548 C686.47,228.676 683.913,224.506 679.24,224.506 C676.227,224.506 673.413,226.666 672.559,229.979 C672.407,230.534 672.256,231.187 672.256,231.792 z M667.887,229.479 C667.887,226.364 667.786,223.854 667.687,221.545 L671.653,221.545 L671.856,225.71 L671.956,225.71 C673.765,222.748 676.63,220.99 680.597,220.99 C686.47,220.99 690.895,225.964 690.895,233.346 C690.895,242.089 685.569,246.407 679.844,246.407 C676.63,246.407 673.814,245 672.359,242.59 L672.256,242.59 L672.256,255.8 L667.887,255.8 z" fill="#000000"/>
      <path d="M711.892,231.337 C711.944,228.524 710.737,224.154 705.762,224.154 C701.291,224.154 699.332,228.275 698.981,231.337 z M698.933,234.502 C699.032,240.481 702.849,242.942 707.27,242.942 C710.435,242.942 712.344,242.389 714.001,241.688 L714.754,244.848 C713.197,245.551 710.535,246.407 706.665,246.407 C699.182,246.407 694.711,241.435 694.711,234.102 C694.711,226.766 699.032,220.99 706.114,220.99 C714.051,220.99 716.161,227.973 716.161,232.441 C716.161,233.346 716.059,234.049 716.01,234.502 z" fill="#000000"/>
      <path d="M738.965,244.951 C737.809,245.551 735.248,246.407 731.986,246.407 C724.65,246.407 719.876,241.386 719.876,233.951 C719.876,226.463 725.002,221.04 732.939,221.04 C735.551,221.04 737.862,221.693 739.068,222.297 L738.063,225.71 C737.006,225.11 735.35,224.555 732.939,224.555 C727.361,224.555 724.348,228.676 724.348,233.75 C724.348,239.375 727.965,242.842 732.787,242.842 C735.298,242.842 736.958,242.187 738.213,241.634 z" fill="#000000"/>
      <path d="M750.117,215.716 L750.117,221.545 L756.446,221.545 L756.446,224.908 L750.117,224.908 L750.117,238.019 C750.117,241.033 750.971,242.74 753.432,242.74 C754.638,242.74 755.341,242.64 755.996,242.441 L756.197,245.754 C755.341,246.106 753.984,246.407 752.276,246.407 C750.216,246.407 748.559,245.703 747.505,244.496 C746.248,243.194 745.798,241.033 745.798,238.171 L745.798,224.908 L742.029,224.908 L742.029,221.545 L745.798,221.545 L745.798,217.071 z" fill="#000000"/>
      <path d="M769.448,165.64 L770.888,165.64 C772.616,165.64 773.408,166.216 773.696,167.512 C773.984,169.168 774.272,170.248 774.632,170.68 L776.936,170.68 C776.648,170.248 776.432,169.528 776.072,167.656 C775.712,166.144 775.136,165.208 774.056,164.776 L774.056,164.632 C775.352,164.2 776.432,163.264 776.432,161.752 C776.432,160.672 775.928,159.736 775.208,159.232 C774.416,158.656 773.408,158.296 771.392,158.296 C769.736,158.296 768.44,158.44 767.216,158.656 L767.216,170.68 L769.448,170.68 z M769.448,160.168 C769.808,160.096 770.312,160.024 771.176,160.024 C773.336,160.024 774.056,160.816 774.056,161.968 C774.056,163.408 772.616,163.912 770.96,163.912 L769.448,163.912 z M771.536,152.896 C764.984,152.896 759.8,157.936 759.8,164.344 C759.8,170.896 764.984,175.936 771.536,175.936 C778.088,175.936 783.2,170.896 783.2,164.344 C783.2,157.936 778.088,152.896 771.608,152.896 z M771.536,154.912 C776.792,154.912 780.608,159.16 780.608,164.416 C780.608,169.672 776.792,173.92 771.608,173.848 C766.28,173.848 762.32,169.672 762.32,164.344 C762.32,159.16 766.28,154.912 771.464,154.912 z" fill="#000000"/>
    </g>
  </g>
</svg>
