<?xml version="1.0" encoding="UTF-8"?>
<!DOCTYPE svg PUBLIC "-//W3C//DTD SVG 1.1//EN" "http://www.w3.org/Graphics/SVG/1.1/DTD/svg11.dtd">
<svg version="1.1" xmlns="http://www.w3.org/2000/svg" xmlns:xlink="http://www.w3.org/1999/xlink" x="0" y="0" width="357.405" height="109.442" viewBox="0, 0, 357.405, 109.442">
  <defs>
    <clipPath id="Clip_1">
      <path d="M253.351,64.284 L332.694,64.284 L332.694,137.418 L253.351,137.418 z M330.694,66.284 C330.694,66.284 316.699,66.81 312.174,66.81 L295.233,66.81 L294.391,74.703 L295.338,76.175 C295.338,76.175 297.021,76.07 298.179,76.07 C301.126,76.07 301.862,77.228 301.862,81.437 L301.862,93.959 C299.862,94.169 297.759,94.275 293.022,94.275 L284.078,93.959 L284.71,81.226 C284.92,77.438 285.762,76.597 290.286,75.755 L291.024,66.284 C291.024,66.284 276.291,66.81 270.083,66.81 L256.508,66.81 L255.667,74.703 L256.614,76.175 C256.614,76.175 258.193,76.07 259.349,76.07 C262.296,76.07 263.033,77.123 263.033,81.437 L263.033,117.846 C263.033,123.739 261.77,125.318 256.193,126.475 L255.351,135.418 C255.351,135.418 266.295,134.893 272.819,134.893 C277.133,134.893 289.866,135.314 289.866,135.314 L290.813,126.475 L289.971,125.422 C289.971,125.422 289.024,125.737 287.13,125.737 C284.394,125.737 283.763,124.37 283.763,118.477 L283.763,107.954 C283.763,107.954 293.339,107.008 295.654,107.008 C298.284,107.008 301.862,107.112 301.862,107.112 L301.862,117.846 C301.862,123.528 299.968,125.737 294.916,125.843 L294.075,134.999 C294.075,134.999 306.702,134.893 311.543,134.893 C320.277,134.893 329.536,135.103 329.536,135.103 L330.484,126.369 L329.641,125.211 C329.641,125.211 328.274,125.527 326.695,125.527 C323.645,125.527 322.592,123.739 322.592,118.477 C322.592,105.007 323.012,89.75 323.645,81.226 C323.854,77.228 324.907,76.386 329.958,75.545 L330.694,66.284 z"/>
    </clipPath>
    <filter id="Shadow_2">
      <feGaussianBlur in="SourceAlpha" stdDeviation="0"/>
      <feOffset dx="-1" dy="-1" result="offsetblur"/>
      <feFlood flood-color="#000000"/>
      <feComposite in2="offsetblur" operator="in"/>
    </filter>
    <clipPath id="Clip_3">
      <path d="M328.449,96.457 L352.655,96.457 L352.655,121.132 L328.449,121.132 z M341.06,98.458 C334.428,98.458 330.449,102.593 330.449,109.224 C330.449,115.621 333.882,119.132 340.201,119.132 C346.677,119.132 350.655,114.997 350.655,108.288 C350.655,102.047 347.145,98.458 341.06,98.457 z"/>
    </clipPath>
    <filter id="Shadow_4">
      <feGaussianBlur in="SourceAlpha" stdDeviation="0"/>
      <feOffset dx="-1" dy="-1" result="offsetblur"/>
      <feFlood flood-color="#000000"/>
      <feComposite in2="offsetblur" operator="in"/>
    </filter>
    <clipPath id="Clip_5">
      <path d="M349.32,63.548 L413.827,63.548 L413.827,137.944 L349.32,137.944 z M410.354,65.548 C404.461,66.284 390.992,66.81 377.838,66.81 C368.263,66.81 353.32,66.494 353.32,66.494 L352.373,74.807 L353.636,76.281 C353.636,76.281 355.214,76.07 356.372,76.07 C358.687,76.07 359.213,77.228 359.213,81.753 L359.108,117.004 C359.108,123.317 357.529,125.422 352.267,126.264 L351.32,135.944 C351.32,135.944 362.686,134.893 373.524,134.893 C389.834,134.893 407.302,135.629 407.302,135.629 L408.881,133.947 C409.932,122.475 411.827,112.269 411.827,112.269 L410.564,110.69 L397.095,111.637 C395.832,121.108 393.938,122.791 384.888,122.791 C380.469,122.791 379.838,121.949 379.838,116.478 C379.838,114.162 379.838,111.111 379.943,107.534 C381.837,107.323 384.783,106.901 387.835,106.901 C392.675,106.901 400.462,107.218 400.462,107.217 L401.935,95.116 L400.673,93.643 C400.673,93.643 392.254,94.275 389.098,94.275 C386.151,94.275 382.468,94.169 380.469,94.169 L381.1,82.279 C381.1,79.963 381.732,79.438 384.678,79.438 C393.201,79.438 394.99,80.49 394.99,85.225 C394.99,86.593 394.78,89.118 394.78,89.118 L409.302,88.171 C409.828,78.28 411.722,67.231 411.722,67.231 L410.353,65.548 z"/>
    </clipPath>
    <filter id="Shadow_6">
      <feGaussianBlur in="SourceAlpha" stdDeviation="0"/>
      <feOffset dx="-1" dy="-1" result="offsetblur"/>
      <feFlood flood-color="#000000"/>
      <feComposite in2="offsetblur" operator="in"/>
    </filter>
    <clipPath id="Clip_7">
      <path d="M414.526,96.457 L438.733,96.457 L438.733,121.132 L414.526,121.132 z M427.136,98.458 C420.505,98.458 416.526,102.593 416.526,109.224 C416.526,115.621 419.959,119.132 426.278,119.132 C432.754,119.132 436.733,114.997 436.733,108.288 C436.733,102.047 433.221,98.458 427.136,98.457 z"/>
    </clipPath>
    <filter id="Shadow_8">
      <feGaussianBlur in="SourceAlpha" stdDeviation="0"/>
      <feOffset dx="-1" dy="-1" result="offsetblur"/>
      <feFlood flood-color="#000000"/>
      <feComposite in2="offsetblur" operator="in"/>
    </filter>
    <clipPath id="Clip_9">
      <path d="M433.503,63.652 L509.69,63.652 L509.69,137.524 L433.503,137.524 z M471.702,84.594 L475.28,103.009 C473.386,103.113 471.386,103.219 469.808,103.219 L464.442,103.219 L469.388,84.594 L471.702,84.594 z M486.013,65.652 L458.339,67.336 L441.607,120.161 C440.555,123.424 438.766,125.317 436.241,125.949 L435.503,135.104 C435.503,135.104 442.975,134.999 449.499,134.999 C455.918,134.999 465.704,135.314 465.704,135.314 L466.547,126.58 L465.704,125.527 L462.968,125.527 C460.127,125.527 459.706,125.211 459.706,123.424 C459.706,123.002 459.811,122.265 460.021,121.108 L461.074,116.478 C463.81,116.267 467.072,115.952 469.492,115.952 C471.491,115.952 474.754,116.056 477.595,116.163 L478.226,120.267 C478.332,121.108 478.437,121.74 478.437,122.16 C478.437,124.896 478.12,125.001 471.702,125.737 L471.071,134.577 L471.912,135.524 C471.912,135.524 482.014,134.999 492.012,134.999 C497.799,134.999 506.848,135.209 506.848,135.208 L507.69,126.895 L506.954,125.843 C503.691,125.527 502.008,123.528 500.745,118.793 C497.694,107.428 487.592,66.916 487.592,66.916 L486.013,65.652 z"/>
    </clipPath>
    <filter id="Shadow_10">
      <feGaussianBlur in="SourceAlpha" stdDeviation="0"/>
      <feOffset dx="-1" dy="-1" result="offsetblur"/>
      <feFlood flood-color="#000000"/>
      <feComposite in2="offsetblur" operator="in"/>
    </filter>
    <clipPath id="Clip_11">
      <path d="M504.693,96.457 L528.899,96.457 L528.899,121.132 L504.693,121.132 z M517.303,98.458 C510.672,98.458 506.693,102.593 506.693,109.224 C506.693,115.621 510.126,119.132 516.445,119.132 C522.921,119.132 526.899,114.997 526.899,108.288 C526.899,102.047 523.388,98.458 517.303,98.457 z"/>
    </clipPath>
    <filter id="Shadow_12">
      <feGaussianBlur in="SourceAlpha" stdDeviation="0"/>
      <feOffset dx="-1" dy="-1" result="offsetblur"/>
      <feFlood flood-color="#000000"/>
      <feComposite in2="offsetblur" operator="in"/>
    </filter>
    <clipPath id="Clip_13">
      <path d="M525.017,64.179 L599.204,64.179 L599.204,138.577 L525.017,138.577 z M558.374,79.332 C566.582,79.332 570.265,82.068 570.265,88.066 C570.265,94.065 568.582,96.695 563.846,98.695 L555.849,97.642 C555.954,92.275 556.165,87.014 556.585,81.648 C556.691,79.648 556.902,79.332 558.374,79.332 z M562.899,66.179 C562.899,66.179 548.483,66.81 543.433,66.81 C539.118,66.81 528.49,66.705 528.49,66.705 L527.332,75.018 L528.385,76.281 C528.385,76.281 530.49,76.07 532.068,76.07 C534.172,76.07 534.804,77.228 534.804,80.7 L534.804,117.214 C534.804,123.108 533.12,125.317 527.964,126.159 L527.017,135.84 C527.017,135.84 537.434,134.893 545.221,134.893 C549.641,134.893 562.478,135.314 562.478,135.314 L563.53,126.475 L563.005,125.632 C556.27,125.317 555.534,124.581 555.534,118.056 L555.534,110.901 L561.426,110.901 L567.951,127 C570.687,133.946 574.053,136.577 579.946,136.577 L596.257,135.418 L597.204,127.737 L596.046,126.054 C592.995,126.054 589.417,122.791 585.839,116.793 L579.315,105.85 C587.628,100.904 591.942,94.17 591.942,85.961 C591.942,72.703 582.261,66.179 562.899,66.179 z"/>
    </clipPath>
    <filter id="Shadow_14">
      <feGaussianBlur in="SourceAlpha" stdDeviation="0"/>
      <feOffset dx="-1" dy="-1" result="offsetblur"/>
      <feFlood flood-color="#000000"/>
      <feComposite in2="offsetblur" operator="in"/>
    </filter>
    <clipPath id="Clip_15">
      <path d="M252.94,150.926 L270.589,150.926 L270.589,170.788 L252.94,170.788 z M259.199,152.926 L254.94,152.926 L254.94,168.788 L259.199,168.788 L259.199,162.503 L264.354,162.503 L264.354,168.788 L268.589,168.788 L268.589,152.926 L264.354,152.926 L264.354,158.786 L259.199,158.786 L259.199,152.926 z"/>
    </clipPath>
    <filter id="Shadow_16">
      <feGaussianBlur in="SourceAlpha" stdDeviation="0"/>
      <feOffset dx="-1" dy="-1" result="offsetblur"/>
      <feFlood flood-color="#000000"/>
      <feComposite in2="offsetblur" operator="in"/>
    </filter>
    <clipPath id="Clip_17">
      <path d="M268.967,155.138 L283.018,155.138 L283.018,171.047 L268.967,171.047 z M276.145,158.621 C278.476,158.621 279.04,160.668 279.017,161.986 L272.967,161.986 C273.132,160.551 274.05,158.621 276.145,158.62 z M276.31,157.138 C272.991,157.138 270.967,159.844 270.967,163.282 C270.967,166.718 273.062,169.047 276.569,169.047 C278.382,169.047 279.629,168.646 280.358,168.317 L280.005,166.836 C279.229,167.165 278.334,167.424 276.852,167.424 C274.78,167.424 272.991,166.271 272.945,163.469 L280.947,163.469 C280.971,163.257 281.018,162.927 281.018,162.503 C281.018,160.41 280.029,157.138 276.31,157.138 z"/>
    </clipPath>
    <filter id="Shadow_18">
      <feGaussianBlur in="SourceAlpha" stdDeviation="0"/>
      <feOffset dx="-1" dy="-1" result="offsetblur"/>
      <feFlood flood-color="#000000"/>
      <feComposite in2="offsetblur" operator="in"/>
    </filter>
    <clipPath id="Clip_19">
      <path d="M281.582,150.077 L287.654,150.077 L287.654,170.788 L281.582,170.788 z M285.654,152.077 L283.582,152.077 L283.582,168.788 L285.654,168.788 L285.654,152.077 z"/>
    </clipPath>
    <filter id="Shadow_20">
      <feGaussianBlur in="SourceAlpha" stdDeviation="0"/>
      <feOffset dx="-1" dy="-1" result="offsetblur"/>
      <feFlood flood-color="#000000"/>
      <feComposite in2="offsetblur" operator="in"/>
    </filter>
    <clipPath id="Clip_21">
      <path d="M287.044,155.138 L301.917,155.138 L301.917,175.448 L287.044,175.448 z M294.457,158.786 C296.647,158.786 297.846,160.739 297.846,163.022 C297.846,165.634 296.576,167.424 294.388,167.424 C292.904,167.424 291.656,166.435 291.28,164.999 C291.232,164.74 291.186,164.458 291.186,164.151 L291.186,162.199 C291.186,161.916 291.256,161.61 291.326,161.35 C291.727,159.798 293.045,158.786 294.456,158.786 z M295.092,157.138 C293.234,157.138 291.892,157.962 291.044,159.35 L290.997,159.35 L290.903,157.398 L289.044,157.398 C289.09,158.48 289.138,159.656 289.138,161.116 L289.138,173.448 L291.186,173.448 L291.186,167.259 L291.232,167.259 C291.915,168.388 293.234,169.047 294.74,169.047 C297.423,169.047 299.917,167.024 299.917,162.928 C299.917,159.469 297.846,157.138 295.092,157.138 z"/>
    </clipPath>
    <filter id="Shadow_22">
      <feGaussianBlur in="SourceAlpha" stdDeviation="0"/>
      <feOffset dx="-1" dy="-1" result="offsetblur"/>
      <feFlood flood-color="#000000"/>
      <feComposite in2="offsetblur" operator="in"/>
    </filter>
    <clipPath id="Clip_23">
      <path d="M300.272,150.901 L306.838,150.901 L306.838,170.788 L300.272,170.788 z M303.565,152.901 C302.812,152.901 302.272,153.466 302.272,154.196 C302.272,154.902 302.789,155.467 303.52,155.467 C304.342,155.467 304.861,154.902 304.837,154.196 C304.837,153.466 304.342,152.901 303.565,152.901 z M304.602,157.398 L302.529,157.398 L302.529,168.788 L304.602,168.788 L304.602,157.398 z"/>
    </clipPath>
    <filter id="Shadow_24">
      <feGaussianBlur in="SourceAlpha" stdDeviation="0"/>
      <feOffset dx="-1" dy="-1" result="offsetblur"/>
      <feFlood flood-color="#000000"/>
      <feComposite in2="offsetblur" operator="in"/>
    </filter>
    <clipPath id="Clip_25">
      <path d="M305.944,155.138 L319.736,155.138 L319.736,170.788 L305.944,170.788 z M313.711,157.138 C311.827,157.138 310.509,158.196 309.944,159.279 L309.897,159.279 L309.78,157.398 L307.944,157.398 C308.015,158.338 308.038,159.303 308.038,160.48 L308.038,168.788 L310.108,168.788 L310.109,161.939 C310.109,161.586 310.156,161.234 310.25,160.975 C310.603,159.821 311.663,158.855 313.028,158.855 C314.981,158.855 315.662,160.386 315.662,162.222 L315.662,168.788 L317.736,168.788 L317.736,161.986 C317.736,158.08 315.287,157.138 313.711,157.138 z"/>
    </clipPath>
    <filter id="Shadow_26">
      <feGaussianBlur in="SourceAlpha" stdDeviation="0"/>
      <feOffset dx="-1" dy="-1" result="offsetblur"/>
      <feFlood flood-color="#000000"/>
      <feComposite in2="offsetblur" operator="in"/>
    </filter>
    <clipPath id="Clip_27">
      <path d="M318.276,155.138 L332.915,155.138 L332.915,175.707 L318.276,175.707 z M325.76,158.762 C327.267,158.762 328.278,159.751 328.656,160.951 C328.75,161.234 328.774,161.539 328.774,161.893 L328.774,163.94 C328.774,164.293 328.725,164.694 328.609,165.047 C328.161,166.365 327.008,167.164 325.737,167.164 C323.501,167.164 322.371,165.305 322.371,163.069 C322.371,160.434 323.784,158.762 325.76,158.762 z M325.407,157.138 C322.794,157.138 320.276,159.327 320.276,163.187 C320.276,166.341 322.302,168.741 325.125,168.741 C326.89,168.741 328.114,167.894 328.75,166.836 L328.796,166.836 L328.796,168.106 C328.796,170.978 327.243,172.084 325.125,172.084 C323.712,172.084 322.536,171.66 321.783,171.189 L321.265,172.766 C322.184,173.379 323.689,173.707 325.054,173.707 C326.49,173.707 328.091,173.379 329.197,172.343 C330.303,171.354 330.821,169.753 330.821,167.14 L330.821,160.526 C330.821,159.139 330.868,158.222 330.915,157.398 L329.103,157.398 L329.009,159.115 L328.962,159.115 C328.466,158.173 327.383,157.138 325.407,157.138 z"/>
    </clipPath>
    <filter id="Shadow_28">
      <feGaussianBlur in="SourceAlpha" stdDeviation="0"/>
      <feOffset dx="-1" dy="-1" result="offsetblur"/>
      <feFlood flood-color="#000000"/>
      <feComposite in2="offsetblur" operator="in"/>
    </filter>
    <clipPath id="Clip_29">
      <path d="M336.987,150.926 L351.626,150.926 L351.626,170.788 L336.987,170.788 z M349.296,152.926 L338.987,152.926 L338.987,168.788 L349.626,168.788 L349.626,165.305 L343.248,165.305 L343.248,162.387 L348.944,162.387 L348.944,158.95 L343.248,158.95 L343.248,156.384 L349.296,156.384 L349.296,152.926 z"/>
    </clipPath>
    <filter id="Shadow_30">
      <feGaussianBlur in="SourceAlpha" stdDeviation="0"/>
      <feOffset dx="-1" dy="-1" result="offsetblur"/>
      <feFlood flood-color="#000000"/>
      <feComposite in2="offsetblur" operator="in"/>
    </filter>
    <clipPath id="Clip_31">
      <path d="M348.826,155.398 L363.607,155.398 L363.607,170.788 L348.826,170.788 z M353.039,157.398 L350.826,157.398 L355.158,168.788 L357.135,168.788 L361.607,157.398 L359.441,157.398 L357.229,163.798 C356.852,164.834 356.522,165.776 356.264,166.717 L356.193,166.718 C355.958,165.776 355.652,164.834 355.275,163.798 L353.039,157.398 z"/>
    </clipPath>
    <filter id="Shadow_32">
      <feGaussianBlur in="SourceAlpha" stdDeviation="0"/>
      <feOffset dx="-1" dy="-1" result="offsetblur"/>
      <feFlood flood-color="#000000"/>
      <feComposite in2="offsetblur" operator="in"/>
    </filter>
    <clipPath id="Clip_33">
      <path d="M360.501,155.138 L374.551,155.138 L374.551,171.047 L360.501,171.047 z M367.679,158.621 C370.01,158.621 370.574,160.668 370.551,161.986 L364.502,161.986 C364.667,160.551 365.584,158.621 367.679,158.62 z M367.844,157.138 C364.525,157.138 362.501,159.844 362.501,163.282 C362.501,166.718 364.596,169.047 368.102,169.047 C369.916,169.047 371.163,168.646 371.892,168.317 L371.539,166.836 C370.763,167.165 369.867,167.424 368.385,167.424 C366.314,167.424 364.525,166.271 364.479,163.469 L372.481,163.469 C372.505,163.257 372.551,162.927 372.551,162.503 C372.551,160.41 371.563,157.138 367.844,157.138 z"/>
    </clipPath>
    <filter id="Shadow_34">
      <feGaussianBlur in="SourceAlpha" stdDeviation="0"/>
      <feOffset dx="-1" dy="-1" result="offsetblur"/>
      <feFlood flood-color="#000000"/>
      <feComposite in2="offsetblur" operator="in"/>
    </filter>
    <clipPath id="Clip_35">
      <path d="M373.023,155.138 L382.742,155.138 L382.742,170.788 L373.023,170.788 z M380.153,157.138 C378.766,157.138 377.518,158.103 377,159.633 L376.905,159.633 L376.835,157.398 L375.023,157.398 C375.094,158.456 375.117,159.609 375.117,160.951 L375.117,168.788 L377.165,168.788 L377.165,162.717 C377.165,162.364 377.211,162.034 377.259,161.751 C377.541,160.197 378.577,159.091 380.037,159.091 C380.319,159.091 380.53,159.115 380.742,159.162 L380.742,157.208 C380.554,157.162 380.389,157.138 380.153,157.138 z"/>
    </clipPath>
    <filter id="Shadow_36">
      <feGaussianBlur in="SourceAlpha" stdDeviation="0"/>
      <feOffset dx="-1" dy="-1" result="offsetblur"/>
      <feFlood flood-color="#000000"/>
      <feComposite in2="offsetblur" operator="in"/>
    </filter>
    <clipPath id="Clip_37">
      <path d="M379.896,155.398 L394.604,155.398 L394.604,175.99 L379.896,175.99 z M384.155,157.398 L381.896,157.398 L386.109,167.894 C386.203,168.152 386.249,168.317 386.249,168.435 C386.249,168.553 386.178,168.717 386.084,168.93 C385.615,169.989 384.908,170.789 384.343,171.237 C383.732,171.754 383.048,172.084 382.531,172.249 L383.048,173.99 C383.567,173.896 384.579,173.543 385.59,172.649 C387.002,171.425 388.014,169.424 389.498,165.517 L392.604,157.398 L390.416,157.398 L388.157,164.081 C387.873,164.905 387.639,165.776 387.426,166.458 L387.379,166.458 C387.191,165.776 386.91,164.882 386.65,164.128 L384.155,157.398 z"/>
    </clipPath>
    <filter id="Shadow_38">
      <feGaussianBlur in="SourceAlpha" stdDeviation="0"/>
      <feOffset dx="-1" dy="-1" result="offsetblur"/>
      <feFlood flood-color="#000000"/>
      <feComposite in2="offsetblur" operator="in"/>
    </filter>
    <clipPath id="Clip_39">
      <path d="M391.429,155.138 L406.561,155.138 L406.561,171.047 L391.429,171.047 z M399.03,158.691 C401.478,158.691 402.443,161.139 402.443,163.069 C402.443,165.634 400.961,167.493 398.984,167.493 C396.959,167.493 395.524,165.611 395.524,163.117 C395.524,160.951 396.583,158.691 399.03,158.691 z M399.078,157.138 C395.924,157.138 393.429,159.374 393.429,163.187 C393.429,166.787 395.806,169.047 398.89,169.047 C401.643,169.047 404.561,167.211 404.561,162.998 C404.561,159.515 402.349,157.138 399.078,157.138 z"/>
    </clipPath>
    <filter id="Shadow_40">
      <feGaussianBlur in="SourceAlpha" stdDeviation="0"/>
      <feOffset dx="-1" dy="-1" result="offsetblur"/>
      <feFlood flood-color="#000000"/>
      <feComposite in2="offsetblur" operator="in"/>
    </filter>
    <clipPath id="Clip_41">
      <path d="M405.081,155.138 L418.872,155.138 L418.872,170.788 L405.081,170.788 z M412.848,157.138 C410.963,157.138 409.646,158.196 409.081,159.279 L409.034,159.279 L408.917,157.398 L407.081,157.398 C407.152,158.338 407.173,159.303 407.173,160.48 L407.173,168.788 L409.246,168.788 L409.246,161.939 C409.246,161.586 409.293,161.234 409.386,160.975 C409.74,159.821 410.799,158.855 412.164,158.855 C414.118,158.855 414.799,160.386 414.799,162.222 L414.799,168.788 L416.872,168.788 L416.872,161.986 C416.872,158.08 414.424,157.138 412.848,157.138 z"/>
    </clipPath>
    <filter id="Shadow_42">
      <feGaussianBlur in="SourceAlpha" stdDeviation="0"/>
      <feOffset dx="-1" dy="-1" result="offsetblur"/>
      <feFlood flood-color="#000000"/>
      <feComposite in2="offsetblur" operator="in"/>
    </filter>
    <clipPath id="Clip_43">
      <path d="M417.413,155.138 L431.464,155.138 L431.464,171.047 L417.413,171.047 z M424.591,158.621 C426.922,158.621 427.486,160.668 427.463,161.986 L421.413,161.986 C421.578,160.551 422.496,158.621 424.591,158.62 z M424.756,157.138 C421.438,157.138 419.413,159.844 419.413,163.282 C419.413,166.718 421.508,169.047 425.015,169.047 C426.828,169.047 428.075,168.646 428.804,168.317 L428.451,166.836 C427.675,167.165 426.78,167.424 425.298,167.424 C423.227,167.424 421.438,166.271 421.39,163.469 L429.393,163.469 C429.417,163.257 429.464,162.927 429.464,162.503 C429.464,160.41 428.475,157.138 424.756,157.138 z"/>
    </clipPath>
    <filter id="Shadow_44">
      <feGaussianBlur in="SourceAlpha" stdDeviation="0"/>
      <feOffset dx="-1" dy="-1" result="offsetblur"/>
      <feFlood flood-color="#000000"/>
      <feComposite in2="offsetblur" operator="in"/>
    </filter>
    <clipPath id="Clip_45">
      <path d="M433.629,150.926 L452.622,150.926 L452.622,170.788 L433.629,170.788 z M442.927,155.985 C443.161,156.927 443.467,158.222 443.703,159.115 L444.433,161.963 L441.491,161.963 L442.173,159.139 C442.408,158.244 442.644,156.927 442.879,155.984 L442.927,155.984 z M445.892,152.926 L440.243,152.926 L435.629,168.788 L440.03,168.788 L440.926,165.117 L445.021,165.117 L446.033,168.788 L450.622,168.788 L445.892,152.926 z"/>
    </clipPath>
    <filter id="Shadow_46">
      <feGaussianBlur in="SourceAlpha" stdDeviation="0"/>
      <feOffset dx="-1" dy="-1" result="offsetblur"/>
      <feFlood flood-color="#000000"/>
      <feComposite in2="offsetblur" operator="in"/>
    </filter>
    <clipPath id="Clip_47">
      <path d="M450.082,155.162 L463.074,155.162 L463.074,171.047 L450.082,171.047 z M458.201,157.162 C454.484,157.162 452.082,159.703 452.082,163.211 C452.082,166.695 454.319,169.047 457.755,169.047 C459.284,169.047 460.485,168.646 461.027,168.365 L460.674,166.811 C460.085,167.07 459.309,167.377 458.131,167.377 C455.871,167.377 454.177,165.752 454.177,163.117 C454.177,160.739 455.589,158.809 458.201,158.809 C459.332,158.809 460.108,159.069 460.603,159.35 L461.074,157.751 C460.509,157.468 459.426,157.162 458.201,157.162 z"/>
    </clipPath>
    <filter id="Shadow_48">
      <feGaussianBlur in="SourceAlpha" stdDeviation="0"/>
      <feOffset dx="-1" dy="-1" result="offsetblur"/>
      <feFlood flood-color="#000000"/>
      <feComposite in2="offsetblur" operator="in"/>
    </filter>
    <clipPath id="Clip_49">
      <path d="M461.45,150.077 L475.147,150.077 L475.147,170.788 L461.45,170.788 z M465.522,152.077 L463.45,152.077 L463.45,168.788 L465.522,168.788 L465.522,161.916 C465.522,161.516 465.545,161.21 465.663,160.927 C466.039,159.798 467.099,158.856 468.44,158.856 C470.394,158.856 471.076,160.41 471.076,162.245 L471.076,168.788 L473.147,168.788 L473.147,162.009 C473.147,158.08 470.699,157.138 469.17,157.138 C468.393,157.138 467.664,157.373 467.051,157.726 C466.416,158.08 465.898,158.597 465.568,159.186 L465.522,159.186 L465.522,152.077 z"/>
    </clipPath>
    <filter id="Shadow_50">
      <feGaussianBlur in="SourceAlpha" stdDeviation="0"/>
      <feOffset dx="-1" dy="-1" result="offsetblur"/>
      <feFlood flood-color="#000000"/>
      <feComposite in2="offsetblur" operator="in"/>
    </filter>
    <clipPath id="Clip_51">
      <path d="M474.255,150.901 L480.82,150.901 L480.82,170.788 L474.255,170.788 z M477.549,152.901 C476.796,152.901 476.255,153.466 476.255,154.196 C476.255,154.902 476.773,155.467 477.503,155.467 C478.325,155.467 478.844,154.902 478.819,154.196 C478.819,153.466 478.325,152.901 477.549,152.901 z M478.585,157.398 L476.513,157.398 L476.513,168.788 L478.585,168.788 L478.585,157.398 z"/>
    </clipPath>
    <filter id="Shadow_52">
      <feGaussianBlur in="SourceAlpha" stdDeviation="0"/>
      <feOffset dx="-1" dy="-1" result="offsetblur"/>
      <feFlood flood-color="#000000"/>
      <feComposite in2="offsetblur" operator="in"/>
    </filter>
    <clipPath id="Clip_53">
      <path d="M479.196,155.138 L493.247,155.138 L493.247,171.047 L479.196,171.047 z M486.374,158.621 C488.706,158.621 489.271,160.668 489.246,161.986 L483.197,161.986 C483.362,160.551 484.28,158.621 486.374,158.62 z M486.539,157.138 C483.221,157.138 481.196,159.844 481.196,163.282 C481.196,166.718 483.292,169.047 486.799,169.047 C488.612,169.047 489.859,168.646 490.587,168.317 L490.234,166.836 C489.458,167.165 488.564,167.424 487.081,167.424 C485.01,167.424 483.221,166.271 483.174,163.469 L491.176,163.469 C491.2,163.257 491.247,162.927 491.247,162.503 C491.247,160.41 490.258,157.138 486.539,157.138 z"/>
    </clipPath>
    <filter id="Shadow_54">
      <feGaussianBlur in="SourceAlpha" stdDeviation="0"/>
      <feOffset dx="-1" dy="-1" result="offsetblur"/>
      <feFlood flood-color="#000000"/>
      <feComposite in2="offsetblur" operator="in"/>
    </filter>
    <clipPath id="Clip_55">
      <path d="M490.4,155.398 L505.18,155.398 L505.18,170.788 L490.4,170.788 z M494.612,157.398 L492.4,157.398 L496.732,168.788 L498.708,168.788 L503.18,157.398 L501.015,157.398 L498.801,163.798 C498.425,164.834 498.096,165.776 497.836,166.717 L497.767,166.718 C497.531,165.776 497.226,164.834 496.848,163.798 L494.612,157.398 z"/>
    </clipPath>
    <filter id="Shadow_56">
      <feGaussianBlur in="SourceAlpha" stdDeviation="0"/>
      <feOffset dx="-1" dy="-1" result="offsetblur"/>
      <feFlood flood-color="#000000"/>
      <feComposite in2="offsetblur" operator="in"/>
    </filter>
    <clipPath id="Clip_57">
      <path d="M502.075,155.138 L516.125,155.138 L516.125,171.047 L502.075,171.047 z M509.252,158.621 C511.584,158.621 512.147,160.668 512.124,161.986 L506.075,161.986 C506.24,160.551 507.158,158.621 509.252,158.62 z M509.418,157.138 C506.099,157.138 504.075,159.844 504.075,163.282 C504.075,166.718 506.17,169.047 509.676,169.047 C511.489,169.047 512.736,168.646 513.466,168.317 L513.113,166.836 C512.336,167.165 511.441,167.424 509.959,167.424 C507.889,167.424 506.099,166.271 506.052,163.469 L514.054,163.469 C514.079,163.257 514.125,162.927 514.125,162.503 C514.125,160.41 513.136,157.138 509.418,157.138 z"/>
    </clipPath>
    <filter id="Shadow_58">
      <feGaussianBlur in="SourceAlpha" stdDeviation="0"/>
      <feOffset dx="-1" dy="-1" result="offsetblur"/>
      <feFlood flood-color="#000000"/>
      <feComposite in2="offsetblur" operator="in"/>
    </filter>
    <clipPath id="Clip_59">
      <path d="M519.421,150.807 L536.106,150.807 L536.106,170.788 L519.421,170.788 z M527.069,155.938 C528.482,155.961 529.259,156.62 529.259,157.821 C529.259,158.997 528.34,159.798 526.739,159.798 L525.633,159.798 L525.633,156.031 C525.845,155.985 526.269,155.938 527.069,155.938 z M526.551,152.807 C524.434,152.807 522.62,152.949 521.421,153.137 L521.421,168.788 L525.633,168.788 L525.633,162.833 L526.317,162.833 C527.634,162.833 528.222,163.234 528.647,165.14 C529.117,167.093 529.517,168.317 529.753,168.788 L534.106,168.788 C533.801,168.178 533.283,165.87 532.789,164.246 C532.39,162.882 531.823,161.869 530.764,161.421 L530.764,161.327 C532.012,160.881 533.494,159.469 533.494,157.491 C533.494,155.938 532.93,154.808 531.918,154.031 C530.717,153.137 528.976,152.807 526.551,152.807 z"/>
    </clipPath>
    <filter id="Shadow_60">
      <feGaussianBlur in="SourceAlpha" stdDeviation="0"/>
      <feOffset dx="-1" dy="-1" result="offsetblur"/>
      <feFlood flood-color="#000000"/>
      <feComposite in2="offsetblur" operator="in"/>
    </filter>
    <clipPath id="Clip_61">
      <path d="M533.378,155.138 L547.428,155.138 L547.428,171.047 L533.378,171.047 z M540.556,158.621 C542.887,158.621 543.451,160.668 543.428,161.986 L537.379,161.986 C537.543,160.551 538.461,158.621 540.556,158.62 z M540.721,157.138 C537.403,157.138 535.378,159.844 535.378,163.282 C535.378,166.718 537.472,169.047 540.98,169.047 C542.793,169.047 544.04,168.646 544.769,168.317 L544.416,166.836 C543.64,167.165 542.745,167.424 541.263,167.424 C539.192,167.424 537.403,166.271 537.356,163.469 L545.358,163.469 C545.382,163.257 545.428,162.927 545.428,162.503 C545.428,160.41 544.44,157.138 540.721,157.138 z"/>
    </clipPath>
    <filter id="Shadow_62">
      <feGaussianBlur in="SourceAlpha" stdDeviation="0"/>
      <feOffset dx="-1" dy="-1" result="offsetblur"/>
      <feFlood flood-color="#000000"/>
      <feComposite in2="offsetblur" operator="in"/>
    </filter>
    <clipPath id="Clip_63">
      <path d="M545.193,155.138 L556.654,155.138 L556.654,171.047 L545.193,171.047 z M551.454,157.138 C549.005,157.138 547.524,158.644 547.524,160.48 C547.524,161.844 548.488,162.975 550.536,163.705 C552.065,164.269 552.655,164.81 552.655,165.799 C552.655,166.741 551.948,167.493 550.441,167.493 C549.407,167.493 548.325,167.07 547.711,166.67 L547.193,168.247 C547.993,168.717 549.147,169.047 550.395,169.047 C553.101,169.047 554.654,167.612 554.654,165.611 C554.654,163.916 553.642,162.928 551.666,162.174 C550.182,161.61 549.5,161.185 549.5,160.245 C549.5,159.397 550.182,158.691 551.406,158.691 C552.466,158.691 553.289,159.069 553.737,159.35 L554.255,157.844 C553.619,157.467 552.607,157.138 551.454,157.138 z"/>
    </clipPath>
    <filter id="Shadow_64">
      <feGaussianBlur in="SourceAlpha" stdDeviation="0"/>
      <feOffset dx="-1" dy="-1" result="offsetblur"/>
      <feFlood flood-color="#000000"/>
      <feComposite in2="offsetblur" operator="in"/>
    </filter>
    <clipPath id="Clip_65">
      <path d="M555.221,155.138 L570.095,155.138 L570.095,175.448 L555.221,175.448 z M562.634,158.786 C564.823,158.786 566.022,160.739 566.022,163.022 C566.022,165.634 564.753,167.424 562.563,167.424 C561.08,167.424 559.832,166.435 559.457,164.999 C559.41,164.74 559.362,164.458 559.362,164.151 L559.362,162.199 C559.362,161.916 559.432,161.61 559.504,161.35 C559.904,159.798 561.222,158.786 562.634,158.786 z M563.27,157.138 C561.411,157.138 560.069,157.962 559.221,159.35 L559.174,159.35 L559.079,157.398 L557.221,157.398 C557.267,158.48 557.314,159.656 557.314,161.116 L557.314,173.448 L559.362,173.448 L559.362,167.259 L559.41,167.259 C560.092,168.388 561.411,169.047 562.917,169.047 C565.599,169.047 568.095,167.024 568.095,162.928 C568.095,159.469 566.022,157.138 563.27,157.138 z"/>
    </clipPath>
    <filter id="Shadow_66">
      <feGaussianBlur in="SourceAlpha" stdDeviation="0"/>
      <feOffset dx="-1" dy="-1" result="offsetblur"/>
      <feFlood flood-color="#000000"/>
      <feComposite in2="offsetblur" operator="in"/>
    </filter>
    <clipPath id="Clip_67">
      <path d="M567.883,155.138 L581.933,155.138 L581.933,171.047 L567.883,171.047 z M575.061,158.621 C577.392,158.621 577.957,160.668 577.933,161.986 L571.883,161.986 C572.048,160.551 572.966,158.621 575.061,158.62 z M575.226,157.138 C571.907,157.138 569.883,159.844 569.883,163.282 C569.883,166.718 571.978,169.047 575.484,169.047 C577.297,169.047 578.544,168.646 579.274,168.317 L578.921,166.836 C578.145,167.165 577.25,167.424 575.767,167.424 C573.696,167.424 571.907,166.271 571.861,163.469 L579.862,163.469 C579.885,163.257 579.933,162.927 579.933,162.503 C579.933,160.41 578.944,157.138 575.226,157.138 z"/>
    </clipPath>
    <filter id="Shadow_68">
      <feGaussianBlur in="SourceAlpha" stdDeviation="0"/>
      <feOffset dx="-1" dy="-1" result="offsetblur"/>
      <feFlood flood-color="#000000"/>
      <feComposite in2="offsetblur" operator="in"/>
    </filter>
    <clipPath id="Clip_69">
      <path d="M579.674,155.162 L592.666,155.162 L592.666,171.047 L579.674,171.047 z M587.794,157.162 C584.076,157.162 581.674,159.703 581.674,163.211 C581.674,166.695 583.911,169.047 587.348,169.047 C588.876,169.047 590.076,168.646 590.618,168.365 L590.266,166.811 C589.678,167.07 588.9,167.377 587.723,167.377 C585.464,167.377 583.769,165.752 583.769,163.117 C583.769,160.739 585.181,158.809 587.794,158.809 C588.924,158.809 589.7,159.069 590.195,159.35 L590.666,157.751 C590.101,157.468 589.018,157.162 587.794,157.162 z"/>
    </clipPath>
    <filter id="Shadow_70">
      <feGaussianBlur in="SourceAlpha" stdDeviation="0"/>
      <feOffset dx="-1" dy="-1" result="offsetblur"/>
      <feFlood flood-color="#000000"/>
      <feComposite in2="offsetblur" operator="in"/>
    </filter>
    <clipPath id="Clip_71">
      <path d="M590.054,152.667 L600.809,152.667 L600.809,171.047 L590.054,171.047 z M595.843,154.667 L593.82,155.302 L593.82,157.398 L592.054,157.398 L592.054,158.974 L593.82,158.974 L593.82,165.188 C593.82,166.529 594.031,167.542 594.62,168.152 C595.113,168.717 595.89,169.047 596.855,169.047 C597.655,169.047 598.291,168.906 598.692,168.741 L598.598,167.189 C598.291,167.282 597.962,167.329 597.397,167.329 C596.244,167.329 595.843,166.529 595.843,165.117 L595.843,158.974 L598.809,158.974 L598.809,157.398 L595.843,157.398 L595.843,154.667 z"/>
    </clipPath>
    <filter id="Shadow_72">
      <feGaussianBlur in="SourceAlpha" stdDeviation="0"/>
      <feOffset dx="-1" dy="-1" result="offsetblur"/>
      <feFlood flood-color="#000000"/>
      <feComposite in2="offsetblur" operator="in"/>
    </filter>
    <clipPath id="Clip_73">
      <path d="M598.38,123.233 L613.344,123.233 L613.344,138.028 L598.38,138.028 z M605.711,128.572 C606.723,128.572 607.06,128.944 607.06,129.483 C607.06,130.158 606.385,130.394 605.609,130.394 L604.901,130.394 L604.901,128.64 C605.07,128.606 605.306,128.572 605.711,128.572 z M605.812,127.763 C605.036,127.763 604.429,127.83 603.855,127.931 L603.855,133.565 L604.901,133.565 L604.901,131.204 L605.576,131.204 C606.385,131.204 606.756,131.474 606.891,132.081 C607.026,132.857 607.161,133.363 607.33,133.565 L608.409,133.565 C608.274,133.363 608.173,133.026 608.005,132.148 C607.836,131.44 607.566,131.001 607.06,130.799 L607.06,130.732 C607.667,130.529 608.173,130.091 608.173,129.382 C608.173,128.876 607.937,128.438 607.6,128.201 C607.229,127.931 606.756,127.763 605.812,127.763 z M605.879,126.177 C608.342,126.177 610.13,128.168 610.13,130.63 C610.13,133.093 608.342,135.083 605.913,135.05 C603.417,135.05 601.561,133.093 601.561,130.597 C601.561,128.168 603.417,126.177 605.845,126.177 L605.879,126.177 z M605.913,125.233 L605.879,125.233 C602.809,125.233 600.38,127.594 600.38,130.597 C600.38,133.667 602.809,136.028 605.879,136.028 C608.949,136.028 611.344,133.667 611.344,130.597 C611.344,127.594 608.949,125.233 605.913,125.233 z"/>
    </clipPath>
    <filter id="Shadow_74">
      <feGaussianBlur in="SourceAlpha" stdDeviation="0"/>
      <feOffset dx="-1" dy="-1" result="offsetblur"/>
      <feFlood flood-color="#000000"/>
      <feComposite in2="offsetblur" operator="in"/>
    </filter>
  </defs>
  <g id="Layer_3" transform="translate(-253.94, -64.548)">
    <g>
      <g>
        <path d="M330.694,66.284 L329.958,75.545 C324.907,76.386 323.854,77.228 323.645,81.226 C323.012,89.75 322.592,105.007 322.592,118.477 C322.592,123.739 323.645,125.527 326.695,125.527 C328.274,125.527 329.641,125.211 329.641,125.211 L330.484,126.369 L329.536,135.103 C329.536,135.103 320.277,134.893 311.543,134.893 C306.702,134.893 294.075,134.999 294.075,134.999 L294.916,125.843 C299.968,125.737 301.862,123.528 301.862,117.846 L301.862,107.112 C301.862,107.112 298.284,107.008 295.654,107.008 C293.339,107.008 283.763,107.954 283.763,107.954 L283.763,118.477 C283.763,124.37 284.394,125.737 287.13,125.737 C289.024,125.737 289.971,125.422 289.971,125.422 L290.813,126.475 L289.866,135.314 C289.866,135.314 277.133,134.893 272.819,134.893 C266.295,134.893 255.351,135.418 255.351,135.418 L256.193,126.475 C261.77,125.318 263.033,123.739 263.033,117.846 L263.033,81.437 C263.033,77.123 262.296,76.07 259.349,76.07 C258.193,76.07 256.614,76.175 256.614,76.175 L255.667,74.703 L256.508,66.81 L270.083,66.81 C276.291,66.81 291.024,66.284 291.024,66.284 L290.286,75.755 C285.762,76.597 284.92,77.438 284.71,81.226 L284.078,93.959 L293.022,94.275 C297.759,94.275 299.862,94.169 301.862,93.959 L301.862,81.437 C301.862,77.228 301.126,76.07 298.179,76.07 C297.021,76.07 295.338,76.175 295.338,76.175 L294.391,74.703 L295.233,66.81 L312.174,66.81 C316.699,66.81 330.694,66.284 330.694,66.284 z" clip-path="url(#Clip_1)" filter="url(#Shadow_2)" fill="rgba(0,0,0,0.75)"/>
        <path d="M322.592,118.477 C322.592,123.739 323.645,125.527 326.695,125.527 C328.274,125.527 329.641,125.211 329.641,125.211 L330.484,126.369 L329.536,135.103 C329.536,135.103 320.277,134.893 311.543,134.893 C306.702,134.893 294.075,134.999 294.075,134.999 L294.916,125.843 C299.968,125.737 301.862,123.528 301.862,117.846 L301.862,107.112 C301.862,107.112 298.284,107.008 295.654,107.008 C293.339,107.008 283.763,107.954 283.763,107.954 L283.763,118.477 C283.763,124.37 284.394,125.737 287.13,125.737 C289.024,125.737 289.971,125.422 289.971,125.422 L290.813,126.475 L289.866,135.314 C289.866,135.314 277.133,134.893 272.819,134.893 C266.295,134.893 255.351,135.418 255.351,135.418 L256.193,126.475 C261.77,125.318 263.033,123.739 263.033,117.846 L263.033,81.437 C263.033,77.123 262.296,76.07 259.349,76.07 C258.193,76.07 256.614,76.175 256.614,76.175 L255.667,74.703 L256.508,66.81 L270.083,66.81 C276.291,66.81 291.024,66.284 291.024,66.284 L290.287,75.755 C285.762,76.597 284.92,77.438 284.71,81.226 L284.078,93.959 L293.022,94.275 C297.759,94.275 299.862,94.169 301.862,93.959 L301.862,81.437 C301.862,77.228 301.126,76.07 298.179,76.07 C297.021,76.07 295.338,76.175 295.338,76.175 L294.391,74.703 L295.233,66.81 L312.174,66.81 C316.699,66.81 330.694,66.284 330.694,66.284 L329.958,75.545 C324.907,76.386 323.854,77.228 323.645,81.226 C323.012,89.75 322.592,105.007 322.592,118.477" fill="#FFFFFF"/>
      </g>
      <g>
        <path d="M341.06,98.457 C347.145,98.458 350.655,102.047 350.655,108.288 C350.655,114.997 346.677,119.132 340.201,119.132 C333.882,119.132 330.449,115.621 330.449,109.224 C330.449,102.593 334.428,98.458 341.06,98.458 z" clip-path="url(#Clip_3)" filter="url(#Shadow_4)" fill="rgba(0,0,0,0.75)"/>
        <path d="M330.449,109.224 C330.449,102.593 334.428,98.458 341.06,98.458 C347.145,98.458 350.655,102.047 350.655,108.288 C350.655,114.997 346.677,119.132 340.201,119.132 C333.882,119.132 330.449,115.621 330.449,109.224" fill="#FF0703"/>
      </g>
      <g>
        <path d="M410.353,65.548 L411.722,67.231 C411.722,67.231 409.828,78.28 409.302,88.171 L394.78,89.118 C394.78,89.118 394.99,86.593 394.99,85.225 C394.99,80.49 393.201,79.438 384.678,79.438 C381.732,79.438 381.1,79.963 381.1,82.279 L380.469,94.169 C382.468,94.169 386.151,94.275 389.098,94.275 C392.254,94.275 400.673,93.643 400.673,93.643 L401.935,95.116 L400.462,107.217 C400.462,107.218 392.675,106.901 387.835,106.901 C384.783,106.901 381.837,107.323 379.943,107.534 C379.838,111.111 379.838,114.162 379.838,116.478 C379.838,121.949 380.469,122.791 384.888,122.791 C393.938,122.791 395.832,121.108 397.095,111.637 L410.564,110.69 L411.827,112.269 C411.827,112.269 409.932,122.475 408.881,133.947 L407.302,135.629 C407.302,135.629 389.834,134.893 373.524,134.893 C362.686,134.893 351.32,135.944 351.32,135.944 L352.267,126.264 C357.529,125.422 359.108,123.317 359.108,117.004 L359.213,81.753 C359.213,77.228 358.687,76.07 356.372,76.07 C355.214,76.07 353.636,76.281 353.636,76.281 L352.373,74.807 L353.32,66.494 C353.32,66.494 368.263,66.81 377.838,66.81 C390.992,66.81 404.461,66.284 410.354,65.548 z" clip-path="url(#Clip_5)" filter="url(#Shadow_6)" fill="rgba(0,0,0,0.75)"/>
        <path d="M384.888,122.791 C393.938,122.791 395.832,121.108 397.095,111.637 L410.564,110.69 L411.827,112.269 C411.827,112.269 409.932,122.475 408.881,133.947 L407.302,135.629 C407.302,135.629 389.834,134.893 373.524,134.893 C362.686,134.893 351.32,135.944 351.32,135.944 L352.267,126.264 C357.529,125.422 359.108,123.317 359.108,117.004 L359.213,81.753 C359.213,77.228 358.687,76.07 356.372,76.07 C355.214,76.07 353.636,76.281 353.636,76.281 L352.373,74.807 L353.32,66.494 C353.32,66.494 368.263,66.81 377.838,66.81 C390.992,66.81 404.461,66.284 410.354,65.548 L411.722,67.231 C411.722,67.231 409.828,78.28 409.302,88.171 L394.78,89.118 C394.78,89.118 394.99,86.593 394.99,85.225 C394.99,80.49 393.201,79.438 384.678,79.438 C381.732,79.438 381.1,79.963 381.1,82.279 L380.469,94.169 C382.468,94.169 386.151,94.275 389.098,94.275 C392.254,94.275 400.673,93.643 400.673,93.643 L401.935,95.116 L400.462,107.218 C400.462,107.218 392.675,106.901 387.835,106.901 C384.783,106.901 381.837,107.323 379.943,107.534 C379.838,111.111 379.838,114.162 379.838,116.478 C379.838,121.949 380.469,122.791 384.888,122.791" fill="#FFFFFF"/>
      </g>
      <g>
        <path d="M427.136,98.457 C433.221,98.458 436.733,102.047 436.733,108.288 C436.733,114.997 432.754,119.132 426.278,119.132 C419.959,119.132 416.526,115.621 416.526,109.224 C416.526,102.593 420.505,98.458 427.136,98.458 z" clip-path="url(#Clip_7)" filter="url(#Shadow_8)" fill="rgba(0,0,0,0.75)"/>
        <path d="M416.526,109.224 C416.526,102.593 420.505,98.458 427.136,98.458 C433.221,98.458 436.733,102.047 436.733,108.288 C436.733,114.997 432.754,119.132 426.278,119.132 C419.959,119.132 416.526,115.621 416.526,109.224" fill="#FF0703"/>
      </g>
      <g>
        <path d="M486.013,65.652 L487.592,66.916 C487.592,66.916 497.694,107.428 500.745,118.793 C502.008,123.528 503.691,125.527 506.954,125.843 L507.69,126.895 L506.848,135.208 C506.848,135.209 497.799,134.999 492.012,134.999 C482.014,134.999 471.912,135.524 471.912,135.524 L471.071,134.577 L471.702,125.737 C478.12,125.001 478.437,124.896 478.437,122.16 C478.437,121.74 478.332,121.108 478.226,120.267 L477.595,116.163 C474.754,116.056 471.491,115.952 469.492,115.952 C467.072,115.952 463.81,116.267 461.074,116.478 L460.021,121.108 C459.811,122.265 459.706,123.002 459.706,123.424 C459.706,125.211 460.127,125.527 462.968,125.527 L465.704,125.527 L466.547,126.58 L465.704,135.314 C465.704,135.314 455.918,134.999 449.499,134.999 C442.975,134.999 435.503,135.104 435.503,135.104 L436.241,125.949 C438.766,125.317 440.555,123.424 441.607,120.161 L458.339,67.336 L486.013,65.652 z M471.702,84.594 L469.388,84.594 L464.442,103.219 L469.808,103.219 C471.386,103.219 473.386,103.113 475.28,103.009 L471.702,84.594 z" clip-path="url(#Clip_9)" filter="url(#Shadow_10)" fill="rgba(0,0,0,0.75)"/>
        <path d="M464.442,103.219 L469.808,103.219 C471.386,103.219 473.386,103.113 475.28,103.009 L471.702,84.594 L469.388,84.594 z M506.954,125.843 L507.69,126.895 L506.848,135.209 C506.848,135.209 497.799,134.999 492.012,134.999 C482.014,134.999 471.912,135.524 471.912,135.524 L471.071,134.577 L471.702,125.737 C478.12,125.001 478.437,124.896 478.437,122.16 C478.437,121.74 478.332,121.108 478.226,120.267 L477.595,116.163 C474.754,116.056 471.491,115.952 469.492,115.952 C467.072,115.952 463.81,116.267 461.074,116.478 L460.021,121.108 C459.811,122.265 459.706,123.002 459.706,123.424 C459.706,125.211 460.127,125.527 462.968,125.527 L465.704,125.527 L466.547,126.58 L465.704,135.314 C465.704,135.314 455.918,134.999 449.499,134.999 C442.975,134.999 435.503,135.104 435.503,135.104 L436.241,125.949 C438.766,125.317 440.555,123.424 441.607,120.161 L458.339,67.336 L486.013,65.652 L487.592,66.916 C487.592,66.916 497.694,107.428 500.745,118.793 C502.008,123.528 503.691,125.527 506.954,125.843" fill="#FFFFFF"/>
      </g>
      <g>
        <path d="M517.303,98.457 C523.388,98.458 526.899,102.047 526.899,108.288 C526.899,114.997 522.921,119.132 516.445,119.132 C510.126,119.132 506.693,115.621 506.693,109.224 C506.693,102.593 510.672,98.458 517.303,98.458 z" clip-path="url(#Clip_11)" filter="url(#Shadow_12)" fill="rgba(0,0,0,0.75)"/>
        <path d="M506.693,109.224 C506.693,102.593 510.672,98.458 517.303,98.458 C523.388,98.458 526.899,102.047 526.899,108.288 C526.899,114.997 522.921,119.132 516.445,119.132 C510.126,119.132 506.693,115.621 506.693,109.224" fill="#FF0703"/>
      </g>
      <g>
        <path d="M562.899,66.179 C582.261,66.179 591.942,72.703 591.942,85.961 C591.942,94.17 587.628,100.904 579.315,105.85 L585.839,116.793 C589.417,122.791 592.995,126.054 596.046,126.054 L597.204,127.737 L596.257,135.418 L579.946,136.577 C574.053,136.577 570.687,133.946 567.951,127 L561.426,110.901 L555.534,110.901 L555.534,118.056 C555.534,124.581 556.27,125.317 563.005,125.632 L563.53,126.475 L562.478,135.314 C562.478,135.314 549.641,134.893 545.221,134.893 C537.434,134.893 527.017,135.84 527.017,135.84 L527.964,126.159 C533.12,125.317 534.804,123.108 534.804,117.214 L534.804,80.7 C534.804,77.228 534.172,76.07 532.068,76.07 C530.49,76.07 528.385,76.281 528.385,76.281 L527.332,75.018 L528.49,66.705 C528.49,66.705 539.118,66.81 543.433,66.81 C548.483,66.81 562.899,66.179 562.899,66.179 z M558.374,79.332 C556.902,79.332 556.691,79.648 556.585,81.648 C556.165,87.014 555.954,92.275 555.849,97.642 L563.846,98.695 C568.582,96.695 570.265,94.065 570.265,88.066 C570.265,82.068 566.582,79.332 558.374,79.332 z" clip-path="url(#Clip_13)" filter="url(#Shadow_14)" fill="rgba(0,0,0,0.75)"/>
        <path d="M563.846,98.695 C568.582,96.695 570.265,94.065 570.265,88.066 C570.265,82.068 566.582,79.332 558.374,79.332 C556.902,79.332 556.691,79.648 556.585,81.648 C556.165,87.014 555.954,92.275 555.849,97.642 z M555.534,110.901 L555.534,118.056 C555.534,124.581 556.27,125.317 563.005,125.632 L563.53,126.475 L562.478,135.314 C562.478,135.314 549.641,134.893 545.221,134.893 C537.434,134.893 527.017,135.84 527.017,135.84 L527.964,126.159 C533.12,125.317 534.804,123.108 534.804,117.214 L534.804,80.7 C534.804,77.228 534.172,76.07 532.068,76.07 C530.49,76.07 528.385,76.281 528.385,76.281 L527.332,75.018 L528.49,66.705 C528.49,66.705 539.118,66.81 543.433,66.81 C548.483,66.81 562.899,66.179 562.899,66.179 C582.261,66.179 591.942,72.703 591.942,85.961 C591.942,94.17 587.628,100.904 579.315,105.85 L585.839,116.793 C589.417,122.791 592.995,126.054 596.046,126.054 L597.204,127.737 L596.257,135.418 L579.946,136.577 C574.053,136.577 570.687,133.946 567.951,127 L561.426,110.901 z" fill="#FFFFFF"/>
      </g>
      <g>
        <path d="M259.199,152.926 L259.199,158.786 L264.354,158.786 L264.354,152.926 L268.589,152.926 L268.589,168.788 L264.354,168.788 L264.354,162.503 L259.199,162.503 L259.199,168.788 L254.94,168.788 L254.94,152.926 L259.199,152.926 z" clip-path="url(#Clip_15)" filter="url(#Shadow_16)" fill="rgba(0,0,0,0.75)"/>
        <path d="M259.199,152.926 L259.199,158.786 L264.354,158.786 L264.354,152.926 L268.589,152.926 L268.589,168.788 L264.354,168.788 L264.354,162.503 L259.199,162.503 L259.199,168.788 L254.94,168.788 L254.94,152.926 z" fill="#FFFFFF"/>
      </g>
      <g>
        <path d="M276.31,157.138 C280.029,157.138 281.018,160.41 281.018,162.503 C281.018,162.927 280.971,163.257 280.947,163.469 L272.945,163.469 C272.991,166.271 274.78,167.424 276.852,167.424 C278.334,167.424 279.229,167.165 280.005,166.836 L280.358,168.317 C279.629,168.646 278.382,169.047 276.569,169.047 C273.062,169.047 270.967,166.718 270.967,163.282 C270.967,159.844 272.991,157.138 276.31,157.138 z M276.145,158.62 C274.05,158.621 273.132,160.551 272.967,161.986 L279.017,161.986 C279.04,160.668 278.476,158.621 276.145,158.621 z" clip-path="url(#Clip_17)" filter="url(#Shadow_18)" fill="rgba(0,0,0,0.75)"/>
        <path d="M279.017,161.986 C279.04,160.668 278.476,158.621 276.145,158.621 C274.05,158.621 273.132,160.551 272.967,161.986 z M272.945,163.469 C272.991,166.271 274.78,167.424 276.852,167.424 C278.334,167.424 279.229,167.165 280.005,166.836 L280.358,168.317 C279.629,168.646 278.382,169.047 276.569,169.047 C273.062,169.047 270.967,166.718 270.967,163.282 C270.967,159.844 272.991,157.138 276.31,157.138 C280.029,157.138 281.018,160.41 281.018,162.503 C281.018,162.927 280.971,163.257 280.947,163.469 z" fill="#FFFFFF"/>
      </g>
      <g>
        <path d="M285.654,152.077 L285.654,168.788 L283.582,168.788 L283.582,152.077 L285.654,152.077 z" clip-path="url(#Clip_19)" filter="url(#Shadow_20)" fill="rgba(0,0,0,0.75)"/>
        <path d="M283.582,152.077 L285.654,152.077 L285.654,168.788 L283.582,168.788 z" fill="#FFFFFF"/>
      </g>
      <g>
        <path d="M295.092,157.138 C297.846,157.138 299.917,159.469 299.917,162.928 C299.917,167.024 297.423,169.047 294.74,169.047 C293.234,169.047 291.915,168.388 291.232,167.259 L291.186,167.259 L291.186,173.448 L289.138,173.448 L289.138,161.116 C289.138,159.656 289.09,158.48 289.044,157.398 L290.903,157.398 L290.997,159.35 L291.044,159.35 C291.892,157.962 293.234,157.138 295.092,157.138 z M294.456,158.786 C293.045,158.786 291.727,159.798 291.326,161.35 C291.256,161.61 291.186,161.916 291.186,162.199 L291.186,164.151 C291.186,164.458 291.232,164.74 291.28,164.999 C291.656,166.435 292.904,167.424 294.388,167.424 C296.576,167.424 297.846,165.634 297.846,163.022 C297.846,160.739 296.647,158.786 294.457,158.786 z" clip-path="url(#Clip_21)" filter="url(#Shadow_22)" fill="rgba(0,0,0,0.75)"/>
        <path d="M291.186,164.151 C291.186,164.458 291.232,164.74 291.28,164.999 C291.656,166.435 292.904,167.424 294.388,167.424 C296.576,167.424 297.846,165.634 297.846,163.022 C297.846,160.739 296.647,158.786 294.457,158.786 C293.045,158.786 291.727,159.798 291.326,161.35 C291.256,161.61 291.186,161.916 291.186,162.199 z M289.138,161.116 C289.138,159.656 289.09,158.48 289.044,157.398 L290.903,157.398 L290.997,159.35 L291.044,159.35 C291.892,157.962 293.234,157.138 295.092,157.138 C297.846,157.138 299.917,159.469 299.917,162.928 C299.917,167.024 297.423,169.047 294.74,169.047 C293.234,169.047 291.915,168.388 291.232,167.259 L291.186,167.259 L291.186,173.448 L289.138,173.448 z" fill="#FFFFFF"/>
      </g>
      <g>
        <path d="M304.602,157.398 L304.602,168.788 L302.529,168.788 L302.529,157.398 L304.602,157.398 z M303.565,152.901 C304.342,152.901 304.837,153.466 304.837,154.196 C304.861,154.902 304.342,155.467 303.52,155.467 C302.789,155.467 302.272,154.902 302.272,154.196 C302.272,153.466 302.812,152.901 303.565,152.901 z" clip-path="url(#Clip_23)" filter="url(#Shadow_24)" fill="rgba(0,0,0,0.75)"/>
        <path d="M302.529,157.398 L304.602,157.398 L304.602,168.788 L302.529,168.788 z M302.529,168.788 M304.837,154.196 C304.861,154.902 304.342,155.467 303.52,155.467 C302.789,155.467 302.272,154.902 302.272,154.196 C302.272,153.466 302.812,152.901 303.565,152.901 C304.342,152.901 304.837,153.466 304.837,154.196" fill="#FFFFFF"/>
      </g>
      <g>
        <path d="M313.711,157.138 C315.287,157.138 317.736,158.08 317.736,161.986 L317.736,168.788 L315.662,168.788 L315.662,162.222 C315.662,160.386 314.981,158.855 313.028,158.855 C311.663,158.855 310.603,159.821 310.25,160.975 C310.156,161.234 310.109,161.586 310.109,161.939 L310.108,168.788 L308.038,168.788 L308.038,160.48 C308.038,159.303 308.015,158.338 307.944,157.398 L309.78,157.398 L309.897,159.279 L309.944,159.279 C310.509,158.196 311.827,157.138 313.711,157.138 z" clip-path="url(#Clip_25)" filter="url(#Shadow_26)" fill="rgba(0,0,0,0.75)"/>
        <path d="M308.038,160.48 C308.038,159.303 308.015,158.338 307.944,157.398 L309.78,157.398 L309.897,159.279 L309.944,159.279 C310.509,158.196 311.827,157.138 313.711,157.138 C315.287,157.138 317.736,158.08 317.736,161.986 L317.736,168.788 L315.662,168.788 L315.662,162.222 C315.662,160.386 314.981,158.855 313.028,158.855 C311.663,158.855 310.603,159.821 310.25,160.975 C310.156,161.234 310.109,161.586 310.109,161.939 L310.109,168.788 L308.038,168.788 z" fill="#FFFFFF"/>
      </g>
      <g>
        <path d="M325.407,157.138 C327.383,157.138 328.466,158.173 328.962,159.115 L329.009,159.115 L329.103,157.398 L330.915,157.398 C330.868,158.222 330.821,159.139 330.821,160.526 L330.821,167.14 C330.821,169.753 330.303,171.354 329.197,172.343 C328.091,173.379 326.49,173.707 325.054,173.707 C323.689,173.707 322.184,173.379 321.265,172.766 L321.783,171.189 C322.536,171.66 323.712,172.084 325.125,172.084 C327.243,172.084 328.796,170.978 328.796,168.106 L328.796,166.836 L328.75,166.836 C328.114,167.894 326.89,168.741 325.125,168.741 C322.302,168.741 320.276,166.341 320.276,163.187 C320.276,159.327 322.794,157.138 325.407,157.138 z M325.76,158.762 C323.784,158.762 322.371,160.434 322.371,163.069 C322.371,165.305 323.501,167.164 325.737,167.164 C327.008,167.164 328.161,166.365 328.609,165.047 C328.725,164.694 328.774,164.293 328.774,163.94 L328.774,161.893 C328.774,161.539 328.75,161.234 328.656,160.951 C328.278,159.751 327.267,158.762 325.76,158.762 z" clip-path="url(#Clip_27)" filter="url(#Shadow_28)" fill="rgba(0,0,0,0.75)"/>
        <path d="M328.774,161.893 C328.774,161.539 328.75,161.234 328.656,160.951 C328.278,159.751 327.267,158.762 325.76,158.762 C323.784,158.762 322.371,160.434 322.371,163.069 C322.371,165.305 323.501,167.164 325.737,167.164 C327.008,167.164 328.161,166.365 328.609,165.047 C328.725,164.694 328.774,164.293 328.774,163.94 z M330.821,167.14 C330.821,169.753 330.303,171.354 329.197,172.343 C328.091,173.379 326.49,173.707 325.054,173.707 C323.689,173.707 322.184,173.379 321.265,172.766 L321.783,171.189 C322.536,171.66 323.712,172.084 325.125,172.084 C327.243,172.084 328.796,170.978 328.796,168.106 L328.796,166.836 L328.75,166.836 C328.114,167.894 326.89,168.741 325.125,168.741 C322.302,168.741 320.276,166.341 320.276,163.187 C320.276,159.327 322.794,157.138 325.407,157.138 C327.383,157.138 328.466,158.173 328.962,159.115 L329.009,159.115 L329.103,157.398 L330.915,157.398 C330.868,158.222 330.821,159.139 330.821,160.526 z" fill="#FFFFFF"/>
      </g>
      <g>
        <path d="M349.296,152.926 L349.296,156.384 L343.248,156.384 L343.248,158.95 L348.944,158.95 L348.944,162.387 L343.248,162.387 L343.248,165.305 L349.626,165.305 L349.626,168.788 L338.987,168.788 L338.987,152.926 L349.296,152.926 z" clip-path="url(#Clip_29)" filter="url(#Shadow_30)" fill="rgba(0,0,0,0.75)"/>
        <path d="M348.944,162.387 L343.248,162.387 L343.248,165.305 L349.626,165.305 L349.626,168.788 L338.987,168.788 L338.987,152.926 L349.296,152.926 L349.296,156.384 L343.248,156.384 L343.248,158.95 L348.944,158.95 z" fill="#FFFFFF"/>
      </g>
      <g>
        <path d="M353.039,157.398 L355.275,163.798 C355.652,164.834 355.958,165.776 356.193,166.718 L356.264,166.717 C356.522,165.776 356.852,164.834 357.229,163.798 L359.441,157.398 L361.607,157.398 L357.135,168.788 L355.158,168.788 L350.826,157.398 L353.039,157.398 z" clip-path="url(#Clip_31)" filter="url(#Shadow_32)" fill="rgba(0,0,0,0.75)"/>
        <path d="M353.039,157.398 L355.275,163.798 C355.652,164.834 355.958,165.776 356.193,166.718 L356.264,166.718 C356.522,165.776 356.852,164.834 357.229,163.798 L359.441,157.398 L361.607,157.398 L357.135,168.788 L355.158,168.788 L350.826,157.398 z" fill="#FFFFFF"/>
      </g>
      <g>
        <path d="M367.844,157.138 C371.563,157.138 372.551,160.41 372.551,162.503 C372.551,162.927 372.505,163.257 372.481,163.469 L364.479,163.469 C364.525,166.271 366.314,167.424 368.385,167.424 C369.867,167.424 370.763,167.165 371.539,166.836 L371.892,168.317 C371.163,168.646 369.916,169.047 368.102,169.047 C364.596,169.047 362.501,166.718 362.501,163.282 C362.501,159.844 364.525,157.138 367.844,157.138 z M367.679,158.62 C365.584,158.621 364.667,160.551 364.502,161.986 L370.551,161.986 C370.574,160.668 370.01,158.621 367.679,158.621 z" clip-path="url(#Clip_33)" filter="url(#Shadow_34)" fill="rgba(0,0,0,0.75)"/>
        <path d="M370.551,161.986 C370.574,160.668 370.01,158.621 367.679,158.621 C365.584,158.621 364.667,160.551 364.502,161.986 z M364.479,163.469 C364.525,166.271 366.314,167.424 368.385,167.424 C369.867,167.424 370.763,167.165 371.539,166.836 L371.893,168.317 C371.163,168.646 369.916,169.047 368.102,169.047 C364.596,169.047 362.501,166.718 362.501,163.282 C362.501,159.844 364.525,157.138 367.844,157.138 C371.563,157.138 372.551,160.41 372.551,162.503 C372.551,162.927 372.505,163.257 372.481,163.469 z" fill="#FFFFFF"/>
      </g>
      <g>
        <path d="M380.153,157.138 C380.389,157.138 380.554,157.162 380.742,157.208 L380.742,159.162 C380.53,159.115 380.319,159.091 380.037,159.091 C378.577,159.091 377.541,160.197 377.259,161.751 C377.211,162.034 377.165,162.364 377.165,162.717 L377.165,168.788 L375.117,168.788 L375.117,160.951 C375.117,159.609 375.094,158.456 375.023,157.398 L376.835,157.398 L376.905,159.633 L377,159.633 C377.518,158.103 378.766,157.138 380.153,157.138 z" clip-path="url(#Clip_35)" filter="url(#Shadow_36)" fill="rgba(0,0,0,0.75)"/>
        <path d="M375.117,160.951 C375.117,159.609 375.094,158.456 375.023,157.398 L376.835,157.398 L376.905,159.633 L377,159.633 C377.518,158.103 378.766,157.138 380.153,157.138 C380.389,157.138 380.554,157.162 380.742,157.208 L380.742,159.162 C380.53,159.115 380.319,159.091 380.037,159.091 C378.577,159.091 377.541,160.197 377.259,161.751 C377.211,162.034 377.165,162.364 377.165,162.717 L377.165,168.788 L375.117,168.788 z" fill="#FFFFFF"/>
      </g>
      <g>
        <path d="M384.155,157.398 L386.65,164.128 C386.91,164.882 387.191,165.776 387.379,166.458 L387.426,166.458 C387.639,165.776 387.873,164.905 388.157,164.081 L390.416,157.398 L392.604,157.398 L389.498,165.517 C388.014,169.424 387.002,171.425 385.59,172.649 C384.579,173.543 383.567,173.896 383.048,173.99 L382.531,172.249 C383.048,172.084 383.732,171.754 384.343,171.237 C384.908,170.789 385.615,169.989 386.084,168.93 C386.178,168.717 386.249,168.553 386.249,168.435 C386.249,168.317 386.203,168.152 386.109,167.894 L381.896,157.398 L384.155,157.398 z" clip-path="url(#Clip_37)" filter="url(#Shadow_38)" fill="rgba(0,0,0,0.75)"/>
        <path d="M384.155,157.398 L386.65,164.128 C386.91,164.882 387.191,165.776 387.379,166.458 L387.426,166.458 C387.639,165.776 387.873,164.905 388.157,164.081 L390.416,157.398 L392.604,157.398 L389.498,165.517 C388.014,169.424 387.002,171.425 385.59,172.649 C384.579,173.543 383.567,173.896 383.048,173.99 L382.532,172.249 C383.048,172.084 383.732,171.754 384.343,171.237 C384.908,170.789 385.615,169.989 386.084,168.93 C386.178,168.717 386.249,168.553 386.249,168.435 C386.249,168.317 386.203,168.152 386.109,167.894 L381.896,157.398 z" fill="#FFFFFF"/>
      </g>
      <g>
        <path d="M399.078,157.138 C402.349,157.138 404.561,159.515 404.561,162.998 C404.561,167.211 401.643,169.047 398.89,169.047 C395.806,169.047 393.429,166.787 393.429,163.187 C393.429,159.374 395.924,157.138 399.078,157.138 z M399.03,158.691 C396.583,158.691 395.524,160.951 395.524,163.117 C395.524,165.611 396.959,167.493 398.984,167.493 C400.961,167.493 402.443,165.634 402.443,163.069 C402.443,161.139 401.478,158.691 399.03,158.691 z" clip-path="url(#Clip_39)" filter="url(#Shadow_40)" fill="rgba(0,0,0,0.75)"/>
        <path d="M395.524,163.117 C395.524,165.611 396.959,167.493 398.984,167.493 C400.961,167.493 402.443,165.634 402.443,163.069 C402.443,161.139 401.478,158.691 399.03,158.691 C396.583,158.691 395.524,160.951 395.524,163.117 M404.561,162.998 C404.561,167.211 401.643,169.047 398.89,169.047 C395.806,169.047 393.429,166.787 393.429,163.187 C393.429,159.374 395.924,157.138 399.078,157.138 C402.349,157.138 404.561,159.515 404.561,162.998" fill="#FFFFFF"/>
      </g>
      <g>
        <path d="M412.848,157.138 C414.424,157.138 416.872,158.08 416.872,161.986 L416.872,168.788 L414.799,168.788 L414.799,162.222 C414.799,160.386 414.118,158.855 412.164,158.855 C410.799,158.855 409.74,159.821 409.386,160.975 C409.293,161.234 409.246,161.586 409.246,161.939 L409.246,168.788 L407.173,168.788 L407.173,160.48 C407.173,159.303 407.152,158.338 407.081,157.398 L408.917,157.398 L409.034,159.279 L409.081,159.279 C409.646,158.196 410.963,157.138 412.848,157.138 z" clip-path="url(#Clip_41)" filter="url(#Shadow_42)" fill="rgba(0,0,0,0.75)"/>
        <path d="M407.173,160.48 C407.173,159.303 407.152,158.338 407.081,157.398 L408.917,157.398 L409.034,159.279 L409.081,159.279 C409.646,158.196 410.963,157.138 412.848,157.138 C414.424,157.138 416.872,158.08 416.872,161.986 L416.872,168.788 L414.799,168.788 L414.799,162.222 C414.799,160.386 414.118,158.855 412.164,158.855 C410.799,158.855 409.74,159.821 409.386,160.975 C409.293,161.234 409.246,161.586 409.246,161.939 L409.246,168.788 L407.173,168.788 z" fill="#FFFFFF"/>
      </g>
      <g>
        <path d="M424.756,157.138 C428.475,157.138 429.464,160.41 429.464,162.503 C429.464,162.927 429.417,163.257 429.393,163.469 L421.39,163.469 C421.438,166.271 423.227,167.424 425.298,167.424 C426.78,167.424 427.675,167.165 428.451,166.836 L428.804,168.317 C428.075,168.646 426.828,169.047 425.015,169.047 C421.508,169.047 419.413,166.718 419.413,163.282 C419.413,159.844 421.438,157.138 424.756,157.138 z M424.591,158.62 C422.496,158.621 421.578,160.551 421.413,161.986 L427.463,161.986 C427.486,160.668 426.922,158.621 424.591,158.621 z" clip-path="url(#Clip_43)" filter="url(#Shadow_44)" fill="rgba(0,0,0,0.75)"/>
        <path d="M427.463,161.986 C427.486,160.668 426.922,158.621 424.591,158.621 C422.496,158.621 421.578,160.551 421.413,161.986 z M421.39,163.469 C421.438,166.271 423.227,167.424 425.298,167.424 C426.78,167.424 427.675,167.165 428.451,166.836 L428.804,168.317 C428.075,168.646 426.828,169.047 425.015,169.047 C421.508,169.047 419.413,166.718 419.413,163.282 C419.413,159.844 421.438,157.138 424.756,157.138 C428.475,157.138 429.464,160.41 429.464,162.503 C429.464,162.927 429.417,163.257 429.393,163.469 z" fill="#FFFFFF"/>
      </g>
      <g>
        <path d="M445.892,152.926 L450.622,168.788 L446.033,168.788 L445.021,165.117 L440.926,165.117 L440.03,168.788 L435.629,168.788 L440.243,152.926 L445.892,152.926 z M442.927,155.984 L442.879,155.984 C442.644,156.927 442.408,158.244 442.173,159.139 L441.491,161.963 L444.433,161.963 L443.703,159.115 C443.467,158.222 443.161,156.927 442.927,155.985 z" clip-path="url(#Clip_45)" filter="url(#Shadow_46)" fill="rgba(0,0,0,0.75)"/>
        <path d="M444.433,161.963 L443.703,159.115 C443.467,158.222 443.161,156.927 442.927,155.985 L442.879,155.985 C442.644,156.927 442.408,158.244 442.173,159.139 L441.491,161.963 z M440.926,165.117 L440.031,168.788 L435.629,168.788 L440.243,152.926 L445.892,152.926 L450.622,168.788 L446.033,168.788 L445.021,165.117 z" fill="#FFFFFF"/>
      </g>
      <g>
        <path d="M458.201,157.162 C459.426,157.162 460.509,157.468 461.074,157.751 L460.603,159.35 C460.108,159.069 459.332,158.809 458.201,158.809 C455.589,158.809 454.177,160.739 454.177,163.117 C454.177,165.752 455.871,167.377 458.131,167.377 C459.309,167.377 460.085,167.07 460.674,166.811 L461.027,168.365 C460.485,168.646 459.284,169.047 457.755,169.047 C454.319,169.047 452.082,166.695 452.082,163.211 C452.082,159.703 454.484,157.162 458.201,157.162 z" clip-path="url(#Clip_47)" filter="url(#Shadow_48)" fill="rgba(0,0,0,0.75)"/>
        <path d="M461.027,168.365 C460.485,168.646 459.284,169.047 457.755,169.047 C454.319,169.047 452.082,166.695 452.082,163.211 C452.082,159.703 454.484,157.162 458.201,157.162 C459.426,157.162 460.509,157.468 461.074,157.751 L460.603,159.35 C460.108,159.069 459.332,158.809 458.201,158.809 C455.589,158.809 454.177,160.739 454.177,163.117 C454.177,165.752 455.871,167.377 458.131,167.377 C459.309,167.377 460.085,167.07 460.674,166.811 z" fill="#FFFFFF"/>
      </g>
      <g>
        <path d="M465.522,152.077 L465.522,159.186 L465.568,159.186 C465.898,158.597 466.416,158.08 467.051,157.726 C467.664,157.373 468.393,157.138 469.17,157.138 C470.699,157.138 473.147,158.08 473.147,162.009 L473.147,168.788 L471.076,168.788 L471.076,162.245 C471.076,160.41 470.394,158.856 468.44,158.856 C467.099,158.856 466.039,159.798 465.663,160.927 C465.545,161.21 465.522,161.516 465.522,161.916 L465.522,168.788 L463.45,168.788 L463.45,152.077 L465.522,152.077 z" clip-path="url(#Clip_49)" filter="url(#Shadow_50)" fill="rgba(0,0,0,0.75)"/>
        <path d="M463.45,152.078 L465.522,152.078 L465.522,159.186 L465.568,159.186 C465.898,158.597 466.416,158.08 467.051,157.726 C467.664,157.373 468.393,157.138 469.17,157.138 C470.699,157.138 473.147,158.08 473.147,162.009 L473.147,168.788 L471.076,168.788 L471.076,162.246 C471.076,160.41 470.394,158.856 468.44,158.856 C467.099,158.856 466.039,159.798 465.663,160.927 C465.545,161.21 465.522,161.516 465.522,161.916 L465.522,168.788 L463.45,168.788 z" fill="#FFFFFF"/>
      </g>
      <g>
        <path d="M478.585,157.398 L478.585,168.788 L476.513,168.788 L476.513,157.398 L478.585,157.398 z M477.549,152.901 C478.325,152.901 478.819,153.466 478.819,154.196 C478.844,154.902 478.325,155.467 477.503,155.467 C476.773,155.467 476.255,154.902 476.255,154.196 C476.255,153.466 476.796,152.901 477.549,152.901 z" clip-path="url(#Clip_51)" filter="url(#Shadow_52)" fill="rgba(0,0,0,0.75)"/>
        <path d="M476.513,157.398 L478.585,157.398 L478.585,168.788 L476.513,168.788 z M476.513,168.788 M478.819,154.196 C478.844,154.902 478.325,155.467 477.503,155.467 C476.773,155.467 476.255,154.902 476.255,154.196 C476.255,153.466 476.796,152.901 477.549,152.901 C478.325,152.901 478.819,153.466 478.819,154.196" fill="#FFFFFF"/>
      </g>
      <g>
        <path d="M486.539,157.138 C490.258,157.138 491.247,160.41 491.247,162.503 C491.247,162.927 491.2,163.257 491.176,163.469 L483.174,163.469 C483.221,166.271 485.01,167.424 487.081,167.424 C488.564,167.424 489.458,167.165 490.234,166.836 L490.587,168.317 C489.859,168.646 488.612,169.047 486.799,169.047 C483.292,169.047 481.196,166.718 481.196,163.282 C481.196,159.844 483.221,157.138 486.539,157.138 z M486.374,158.62 C484.28,158.621 483.362,160.551 483.197,161.986 L489.246,161.986 C489.271,160.668 488.706,158.621 486.374,158.621 z" clip-path="url(#Clip_53)" filter="url(#Shadow_54)" fill="rgba(0,0,0,0.75)"/>
        <path d="M489.246,161.986 C489.271,160.668 488.706,158.621 486.374,158.621 C484.28,158.621 483.362,160.551 483.197,161.986 z M483.174,163.469 C483.221,166.271 485.01,167.424 487.081,167.424 C488.564,167.424 489.458,167.165 490.234,166.836 L490.587,168.317 C489.859,168.646 488.612,169.047 486.799,169.047 C483.292,169.047 481.196,166.718 481.196,163.282 C481.196,159.844 483.221,157.138 486.539,157.138 C490.258,157.138 491.247,160.41 491.247,162.503 C491.247,162.927 491.2,163.257 491.176,163.469 z" fill="#FFFFFF"/>
      </g>
      <g>
        <path d="M494.612,157.398 L496.848,163.798 C497.226,164.834 497.531,165.776 497.767,166.718 L497.836,166.717 C498.096,165.776 498.425,164.834 498.801,163.798 L501.015,157.398 L503.18,157.398 L498.708,168.788 L496.732,168.788 L492.4,157.398 L494.612,157.398 z" clip-path="url(#Clip_55)" filter="url(#Shadow_56)" fill="rgba(0,0,0,0.75)"/>
        <path d="M494.612,157.398 L496.848,163.798 C497.226,164.834 497.531,165.776 497.767,166.718 L497.836,166.718 C498.096,165.776 498.425,164.834 498.801,163.798 L501.015,157.398 L503.18,157.398 L498.708,168.788 L496.732,168.788 L492.4,157.398 z" fill="#FFFFFF"/>
      </g>
      <g>
        <path d="M509.418,157.138 C513.136,157.138 514.125,160.41 514.125,162.503 C514.125,162.927 514.079,163.257 514.054,163.469 L506.052,163.469 C506.099,166.271 507.889,167.424 509.959,167.424 C511.441,167.424 512.336,167.165 513.113,166.836 L513.466,168.317 C512.736,168.646 511.489,169.047 509.676,169.047 C506.17,169.047 504.075,166.718 504.075,163.282 C504.075,159.844 506.099,157.138 509.418,157.138 z M509.252,158.62 C507.158,158.621 506.24,160.551 506.075,161.986 L512.124,161.986 C512.147,160.668 511.584,158.621 509.252,158.621 z" clip-path="url(#Clip_57)" filter="url(#Shadow_58)" fill="rgba(0,0,0,0.75)"/>
        <path d="M512.124,161.986 C512.147,160.668 511.584,158.621 509.252,158.621 C507.158,158.621 506.24,160.551 506.075,161.986 z M506.053,163.469 C506.099,166.271 507.889,167.424 509.959,167.424 C511.441,167.424 512.336,167.165 513.113,166.836 L513.466,168.317 C512.736,168.646 511.489,169.047 509.676,169.047 C506.17,169.047 504.075,166.718 504.075,163.282 C504.075,159.844 506.099,157.138 509.418,157.138 C513.136,157.138 514.125,160.41 514.125,162.503 C514.125,162.927 514.079,163.257 514.054,163.469 z" fill="#FFFFFF"/>
      </g>
      <g>
        <path d="M526.551,152.807 C528.976,152.807 530.717,153.137 531.918,154.031 C532.93,154.808 533.494,155.938 533.494,157.491 C533.494,159.469 532.012,160.881 530.764,161.327 L530.764,161.421 C531.823,161.869 532.39,162.882 532.789,164.246 C533.283,165.87 533.801,168.178 534.106,168.788 L529.753,168.788 C529.517,168.317 529.117,167.093 528.647,165.14 C528.222,163.234 527.634,162.833 526.317,162.833 L525.633,162.833 L525.633,168.788 L521.421,168.788 L521.421,153.137 C522.62,152.949 524.434,152.807 526.551,152.807 z M527.069,155.938 C526.269,155.938 525.845,155.985 525.633,156.031 L525.633,159.798 L526.739,159.798 C528.34,159.798 529.259,158.997 529.259,157.821 C529.259,156.62 528.482,155.961 527.069,155.938 z" clip-path="url(#Clip_59)" filter="url(#Shadow_60)" fill="rgba(0,0,0,0.75)"/>
        <path d="M525.633,159.798 L526.739,159.798 C528.34,159.798 529.259,158.997 529.259,157.821 C529.259,156.62 528.482,155.961 527.069,155.938 C526.269,155.938 525.845,155.985 525.633,156.031 z M521.421,153.137 C522.62,152.949 524.434,152.807 526.551,152.807 C528.976,152.807 530.717,153.137 531.918,154.031 C532.93,154.808 533.494,155.938 533.494,157.491 C533.494,159.469 532.012,160.881 530.764,161.327 L530.764,161.422 C531.823,161.869 532.39,162.882 532.789,164.246 C533.283,165.87 533.801,168.178 534.106,168.788 L529.753,168.788 C529.517,168.317 529.117,167.093 528.647,165.14 C528.222,163.234 527.634,162.833 526.317,162.833 L525.633,162.833 L525.633,168.788 L521.421,168.788 z" fill="#FFFFFF"/>
      </g>
      <g>
        <path d="M540.721,157.138 C544.44,157.138 545.428,160.41 545.428,162.503 C545.428,162.927 545.382,163.257 545.358,163.469 L537.356,163.469 C537.403,166.271 539.192,167.424 541.263,167.424 C542.745,167.424 543.64,167.165 544.416,166.836 L544.769,168.317 C544.04,168.646 542.793,169.047 540.98,169.047 C537.472,169.047 535.378,166.718 535.378,163.282 C535.378,159.844 537.403,157.138 540.721,157.138 z M540.556,158.62 C538.461,158.621 537.543,160.551 537.379,161.986 L543.428,161.986 C543.451,160.668 542.887,158.621 540.556,158.621 z" clip-path="url(#Clip_61)" filter="url(#Shadow_62)" fill="rgba(0,0,0,0.75)"/>
        <path d="M543.428,161.986 C543.451,160.668 542.887,158.621 540.556,158.621 C538.461,158.621 537.543,160.551 537.379,161.986 z M537.356,163.469 C537.403,166.271 539.192,167.424 541.263,167.424 C542.745,167.424 543.64,167.165 544.416,166.836 L544.769,168.317 C544.04,168.646 542.793,169.047 540.98,169.047 C537.472,169.047 535.378,166.718 535.378,163.282 C535.378,159.844 537.403,157.138 540.721,157.138 C544.44,157.138 545.428,160.41 545.428,162.503 C545.428,162.927 545.382,163.257 545.358,163.469 z" fill="#FFFFFF"/>
      </g>
      <g>
        <path d="M551.454,157.138 C552.607,157.138 553.619,157.467 554.255,157.844 L553.737,159.35 C553.289,159.069 552.466,158.691 551.406,158.691 C550.182,158.691 549.5,159.397 549.5,160.245 C549.5,161.185 550.182,161.61 551.666,162.174 C553.642,162.928 554.654,163.916 554.654,165.611 C554.654,167.612 553.101,169.047 550.395,169.047 C549.147,169.047 547.993,168.717 547.193,168.247 L547.711,166.67 C548.325,167.07 549.407,167.493 550.441,167.493 C551.948,167.493 552.655,166.741 552.655,165.799 C552.655,164.81 552.065,164.269 550.536,163.705 C548.488,162.975 547.524,161.844 547.524,160.48 C547.524,158.644 549.005,157.138 551.454,157.138 z" clip-path="url(#Clip_63)" filter="url(#Shadow_64)" fill="rgba(0,0,0,0.75)"/>
        <path d="M547.711,166.67 C548.325,167.07 549.407,167.493 550.441,167.493 C551.948,167.493 552.655,166.741 552.655,165.799 C552.655,164.81 552.065,164.269 550.536,163.705 C548.488,162.975 547.524,161.844 547.524,160.48 C547.524,158.644 549.005,157.138 551.454,157.138 C552.607,157.138 553.619,157.467 554.255,157.844 L553.737,159.35 C553.289,159.069 552.466,158.691 551.406,158.691 C550.182,158.691 549.5,159.397 549.5,160.245 C549.5,161.185 550.182,161.61 551.666,162.174 C553.642,162.928 554.654,163.916 554.654,165.611 C554.654,167.612 553.101,169.047 550.395,169.047 C549.147,169.047 547.993,168.717 547.193,168.247 z" fill="#FFFFFF"/>
      </g>
      <g>
        <path d="M563.27,157.138 C566.022,157.138 568.095,159.469 568.095,162.928 C568.095,167.024 565.599,169.047 562.917,169.047 C561.411,169.047 560.092,168.388 559.41,167.259 L559.362,167.259 L559.362,173.448 L557.314,173.448 L557.314,161.116 C557.314,159.656 557.267,158.48 557.221,157.398 L559.079,157.398 L559.174,159.35 L559.221,159.35 C560.069,157.962 561.411,157.138 563.27,157.138 z M562.634,158.786 C561.222,158.786 559.904,159.798 559.504,161.35 C559.432,161.61 559.362,161.916 559.362,162.199 L559.362,164.151 C559.362,164.458 559.41,164.74 559.457,164.999 C559.832,166.435 561.08,167.424 562.563,167.424 C564.753,167.424 566.022,165.634 566.022,163.022 C566.022,160.739 564.823,158.786 562.634,158.786 z" clip-path="url(#Clip_65)" filter="url(#Shadow_66)" fill="rgba(0,0,0,0.75)"/>
        <path d="M559.362,164.151 C559.362,164.458 559.41,164.74 559.457,164.999 C559.832,166.435 561.08,167.424 562.563,167.424 C564.753,167.424 566.022,165.634 566.022,163.022 C566.022,160.739 564.823,158.786 562.634,158.786 C561.222,158.786 559.904,159.798 559.504,161.35 C559.432,161.61 559.362,161.916 559.362,162.199 z M557.314,161.116 C557.314,159.656 557.267,158.48 557.221,157.398 L559.079,157.398 L559.174,159.35 L559.221,159.35 C560.069,157.962 561.411,157.138 563.27,157.138 C566.022,157.138 568.095,159.469 568.095,162.928 C568.095,167.024 565.599,169.047 562.917,169.047 C561.411,169.047 560.092,168.388 559.41,167.259 L559.362,167.259 L559.362,173.448 L557.314,173.448 z" fill="#FFFFFF"/>
      </g>
      <g>
        <path d="M575.226,157.138 C578.944,157.138 579.933,160.41 579.933,162.503 C579.933,162.927 579.885,163.257 579.862,163.469 L571.861,163.469 C571.907,166.271 573.696,167.424 575.767,167.424 C577.25,167.424 578.145,167.165 578.921,166.836 L579.274,168.317 C578.544,168.646 577.297,169.047 575.484,169.047 C571.978,169.047 569.883,166.718 569.883,163.282 C569.883,159.844 571.907,157.138 575.226,157.138 z M575.061,158.62 C572.966,158.621 572.048,160.551 571.883,161.986 L577.933,161.986 C577.957,160.668 577.392,158.621 575.061,158.621 z" clip-path="url(#Clip_67)" filter="url(#Shadow_68)" fill="rgba(0,0,0,0.75)"/>
        <path d="M577.933,161.986 C577.957,160.668 577.392,158.621 575.061,158.621 C572.966,158.621 572.048,160.551 571.883,161.986 z M571.861,163.469 C571.907,166.271 573.696,167.424 575.767,167.424 C577.25,167.424 578.145,167.165 578.921,166.836 L579.274,168.317 C578.544,168.646 577.297,169.047 575.484,169.047 C571.978,169.047 569.883,166.718 569.883,163.282 C569.883,159.844 571.907,157.138 575.226,157.138 C578.944,157.138 579.933,160.41 579.933,162.503 C579.933,162.927 579.885,163.257 579.862,163.469 z" fill="#FFFFFF"/>
      </g>
      <g>
        <path d="M587.794,157.162 C589.018,157.162 590.101,157.468 590.666,157.751 L590.195,159.35 C589.7,159.069 588.924,158.809 587.794,158.809 C585.181,158.809 583.769,160.739 583.769,163.117 C583.769,165.752 585.464,167.377 587.723,167.377 C588.9,167.377 589.678,167.07 590.266,166.811 L590.618,168.365 C590.076,168.646 588.876,169.047 587.348,169.047 C583.911,169.047 581.674,166.695 581.674,163.211 C581.674,159.703 584.076,157.162 587.794,157.162 z" clip-path="url(#Clip_69)" filter="url(#Shadow_70)" fill="rgba(0,0,0,0.75)"/>
        <path d="M590.618,168.365 C590.076,168.646 588.876,169.047 587.348,169.047 C583.911,169.047 581.674,166.695 581.674,163.211 C581.674,159.703 584.076,157.162 587.794,157.162 C589.018,157.162 590.101,157.468 590.666,157.751 L590.195,159.35 C589.7,159.069 588.924,158.809 587.794,158.809 C585.181,158.809 583.769,160.739 583.769,163.117 C583.769,165.752 585.464,167.377 587.723,167.377 C588.9,167.377 589.678,167.07 590.266,166.811 z" fill="#FFFFFF"/>
      </g>
      <g>
        <path d="M595.843,154.667 L595.843,157.398 L598.809,157.398 L598.809,158.974 L595.843,158.974 L595.843,165.117 C595.843,166.529 596.244,167.329 597.397,167.329 C597.962,167.329 598.291,167.282 598.598,167.189 L598.692,168.741 C598.291,168.906 597.655,169.047 596.855,169.047 C595.89,169.047 595.113,168.717 594.62,168.152 C594.031,167.542 593.82,166.529 593.82,165.188 L593.82,158.974 L592.054,158.974 L592.054,157.398 L593.82,157.398 L593.82,155.302 L595.843,154.667 z" clip-path="url(#Clip_71)" filter="url(#Shadow_72)" fill="rgba(0,0,0,0.75)"/>
        <path d="M595.843,154.667 L595.843,157.398 L598.809,157.398 L598.809,158.974 L595.843,158.974 L595.843,165.117 C595.843,166.529 596.244,167.329 597.397,167.329 C597.962,167.329 598.291,167.282 598.598,167.189 L598.692,168.741 C598.291,168.906 597.655,169.047 596.855,169.047 C595.89,169.047 595.113,168.717 594.62,168.152 C594.031,167.542 593.82,166.529 593.82,165.188 L593.82,158.974 L592.054,158.974 L592.054,157.398 L593.82,157.398 L593.82,155.302 z" fill="#FFFFFF"/>
      </g>
      <g>
        <path d="M605.913,125.233 C608.949,125.233 611.344,127.594 611.344,130.597 C611.344,133.667 608.949,136.028 605.879,136.028 C602.809,136.028 600.38,133.667 600.38,130.597 C600.38,127.594 602.809,125.233 605.879,125.233 L605.913,125.233 z M605.879,126.177 L605.845,126.177 C603.417,126.177 601.561,128.168 601.561,130.597 C601.561,133.093 603.417,135.05 605.913,135.05 C608.342,135.083 610.13,133.093 610.13,130.63 C610.13,128.168 608.342,126.177 605.879,126.177 z M605.812,127.763 C606.756,127.763 607.229,127.931 607.6,128.201 C607.937,128.438 608.173,128.876 608.173,129.382 C608.173,130.091 607.667,130.529 607.06,130.732 L607.06,130.799 C607.566,131.001 607.836,131.44 608.005,132.148 C608.173,133.026 608.274,133.363 608.409,133.565 L607.33,133.565 C607.161,133.363 607.026,132.857 606.891,132.081 C606.756,131.474 606.385,131.204 605.576,131.204 L604.901,131.204 L604.901,133.565 L603.855,133.565 L603.855,127.931 C604.429,127.83 605.036,127.763 605.812,127.763 z M605.711,128.572 C605.306,128.572 605.07,128.606 604.901,128.64 L604.901,130.394 L605.609,130.394 C606.385,130.394 607.06,130.158 607.06,129.483 C607.06,128.944 606.723,128.572 605.711,128.572 z" clip-path="url(#Clip_73)" filter="url(#Shadow_74)" fill="rgba(0,0,0,0.75)"/>
        <path d="M604.901,131.204 L605.576,131.204 C606.385,131.204 606.756,131.474 606.891,132.081 C607.026,132.857 607.161,133.363 607.33,133.565 L608.409,133.565 C608.274,133.363 608.173,133.026 608.005,132.148 C607.836,131.44 607.566,131.001 607.06,130.799 L607.06,130.732 C607.667,130.529 608.173,130.091 608.173,129.382 C608.173,128.876 607.937,128.438 607.6,128.201 C607.229,127.931 606.756,127.763 605.812,127.763 C605.036,127.763 604.429,127.83 603.855,127.931 L603.855,133.565 L604.901,133.565 z M604.901,128.64 C605.07,128.606 605.306,128.572 605.711,128.572 C606.723,128.572 607.06,128.944 607.06,129.483 C607.06,130.158 606.385,130.394 605.609,130.394 L604.901,130.394 z M605.879,125.233 C602.809,125.233 600.38,127.594 600.38,130.597 C600.38,133.667 602.809,136.028 605.879,136.028 C608.949,136.028 611.344,133.667 611.344,130.597 C611.344,127.594 608.949,125.233 605.913,125.233 z M605.879,126.177 C608.342,126.177 610.13,128.168 610.13,130.63 C610.13,133.093 608.342,135.083 605.913,135.05 C603.417,135.05 601.561,133.093 601.561,130.597 C601.561,128.168 603.417,126.177 605.845,126.177 z" fill="#FFFFFF"/>
      </g>
    </g>
  </g>
</svg>
