<?xml version="1.0" encoding="UTF-8"?>
<!DOCTYPE svg PUBLIC "-//W3C//DTD SVG 1.1//EN" "http://www.w3.org/Graphics/SVG/1.1/DTD/svg11.dtd">
<svg version="1.1" xmlns="http://www.w3.org/2000/svg" xmlns:xlink="http://www.w3.org/1999/xlink" x="0" y="0" width="357.993" height="72.029" viewBox="0, 0, 357.993, 72.029">
  <defs>
    <clipPath id="Clip_1">
      <path d="M252.351,64.284 L331.694,64.284 L331.694,137.418 L252.351,137.418 z M329.694,66.284 C329.694,66.284 315.699,66.81 311.174,66.81 L294.233,66.81 L293.391,74.703 L294.338,76.175 C294.338,76.175 296.021,76.07 297.179,76.07 C300.126,76.07 300.862,77.228 300.862,81.437 L300.862,93.959 C298.862,94.169 296.759,94.275 292.022,94.275 L283.078,93.959 L283.71,81.226 C283.92,77.438 284.762,76.597 289.286,75.755 L290.024,66.284 C290.024,66.284 275.291,66.81 269.083,66.81 L255.508,66.81 L254.667,74.703 L255.614,76.175 C255.614,76.175 257.193,76.07 258.349,76.07 C261.296,76.07 262.033,77.123 262.033,81.437 L262.033,117.846 C262.033,123.739 260.77,125.318 255.193,126.475 L254.351,135.418 C254.351,135.418 265.295,134.893 271.819,134.893 C276.133,134.893 288.866,135.314 288.866,135.314 L289.813,126.475 L288.971,125.422 C288.971,125.422 288.024,125.737 286.13,125.737 C283.394,125.737 282.763,124.37 282.763,118.477 L282.763,107.954 C282.763,107.954 292.339,107.008 294.654,107.008 C297.284,107.008 300.862,107.112 300.862,107.112 L300.862,117.846 C300.862,123.528 298.968,125.737 293.916,125.843 L293.075,134.999 C293.075,134.999 305.702,134.893 310.543,134.893 C319.277,134.893 328.536,135.103 328.536,135.103 L329.484,126.369 L328.641,125.211 C328.641,125.211 327.274,125.527 325.695,125.527 C322.645,125.527 321.592,123.739 321.592,118.477 C321.592,105.007 322.012,89.75 322.645,81.226 C322.854,77.228 323.907,76.386 328.958,75.545 L329.694,66.284 z"/>
    </clipPath>
    <filter id="Shadow_2">
      <feGaussianBlur in="SourceAlpha" stdDeviation="0"/>
      <feOffset dx="-1" dy="-1" result="offsetblur"/>
      <feFlood flood-color="#000000"/>
      <feComposite in2="offsetblur" operator="in"/>
    </filter>
    <clipPath id="Clip_3">
      <path d="M328.449,96.457 L352.655,96.457 L352.655,121.132 L328.449,121.132 z M341.06,98.458 C334.428,98.458 330.449,102.593 330.449,109.224 C330.449,115.621 333.882,119.132 340.201,119.132 C346.677,119.132 350.655,114.997 350.655,108.288 C350.655,102.047 347.145,98.458 341.06,98.457 z"/>
    </clipPath>
    <filter id="Shadow_4">
      <feGaussianBlur in="SourceAlpha" stdDeviation="0"/>
      <feOffset dx="-1" dy="-1" result="offsetblur"/>
      <feFlood flood-color="#000000"/>
      <feComposite in2="offsetblur" operator="in"/>
    </filter>
    <clipPath id="Clip_5">
      <path d="M349.32,63.548 L413.827,63.548 L413.827,137.944 L349.32,137.944 z M410.354,65.548 C404.461,66.284 390.992,66.81 377.838,66.81 C368.263,66.81 353.32,66.494 353.32,66.494 L352.373,74.807 L353.636,76.281 C353.636,76.281 355.214,76.07 356.372,76.07 C358.687,76.07 359.213,77.228 359.213,81.753 L359.108,117.004 C359.108,123.317 357.529,125.422 352.267,126.264 L351.32,135.944 C351.32,135.944 362.686,134.893 373.524,134.893 C389.834,134.893 407.302,135.629 407.302,135.629 L408.881,133.947 C409.932,122.475 411.827,112.269 411.827,112.269 L410.564,110.69 L397.095,111.637 C395.832,121.108 393.938,122.791 384.888,122.791 C380.469,122.791 379.838,121.949 379.838,116.478 C379.838,114.162 379.838,111.111 379.943,107.534 C381.837,107.323 384.783,106.901 387.835,106.901 C392.675,106.901 400.462,107.218 400.462,107.217 L401.935,95.116 L400.673,93.643 C400.673,93.643 392.254,94.275 389.098,94.275 C386.151,94.275 382.468,94.169 380.469,94.169 L381.1,82.279 C381.1,79.963 381.732,79.438 384.678,79.438 C393.201,79.438 394.99,80.49 394.99,85.225 C394.99,86.593 394.78,89.118 394.78,89.118 L409.302,88.171 C409.828,78.28 411.722,67.231 411.722,67.231 L410.353,65.548 z"/>
    </clipPath>
    <filter id="Shadow_6">
      <feGaussianBlur in="SourceAlpha" stdDeviation="0"/>
      <feOffset dx="-1" dy="-1" result="offsetblur"/>
      <feFlood flood-color="#000000"/>
      <feComposite in2="offsetblur" operator="in"/>
    </filter>
    <clipPath id="Clip_7">
      <path d="M414.526,96.457 L438.733,96.457 L438.733,121.132 L414.526,121.132 z M427.136,98.458 C420.505,98.458 416.526,102.593 416.526,109.224 C416.526,115.621 419.959,119.132 426.278,119.132 C432.754,119.132 436.733,114.997 436.733,108.288 C436.733,102.047 433.221,98.458 427.136,98.457 z"/>
    </clipPath>
    <filter id="Shadow_8">
      <feGaussianBlur in="SourceAlpha" stdDeviation="0"/>
      <feOffset dx="-1" dy="-1" result="offsetblur"/>
      <feFlood flood-color="#000000"/>
      <feComposite in2="offsetblur" operator="in"/>
    </filter>
    <clipPath id="Clip_9">
      <path d="M433.503,63.652 L509.69,63.652 L509.69,137.524 L433.503,137.524 z M471.702,84.594 L475.28,103.009 C473.386,103.113 471.386,103.219 469.808,103.219 L464.442,103.219 L469.388,84.594 L471.702,84.594 z M486.013,65.652 L458.339,67.336 L441.607,120.161 C440.555,123.424 438.766,125.317 436.241,125.949 L435.503,135.104 C435.503,135.104 442.975,134.999 449.499,134.999 C455.918,134.999 465.704,135.314 465.704,135.314 L466.547,126.58 L465.704,125.527 L462.968,125.527 C460.127,125.527 459.706,125.211 459.706,123.424 C459.706,123.002 459.811,122.265 460.021,121.108 L461.074,116.478 C463.81,116.267 467.072,115.952 469.492,115.952 C471.491,115.952 474.754,116.056 477.595,116.163 L478.226,120.267 C478.332,121.108 478.437,121.74 478.437,122.16 C478.437,124.896 478.12,125.001 471.702,125.737 L471.071,134.577 L471.912,135.524 C471.912,135.524 482.014,134.999 492.012,134.999 C497.799,134.999 506.848,135.209 506.848,135.208 L507.69,126.895 L506.954,125.843 C503.691,125.527 502.008,123.528 500.745,118.793 C497.694,107.428 487.592,66.916 487.592,66.916 L486.013,65.652 z"/>
    </clipPath>
    <filter id="Shadow_10">
      <feGaussianBlur in="SourceAlpha" stdDeviation="0"/>
      <feOffset dx="-1" dy="-1" result="offsetblur"/>
      <feFlood flood-color="#000000"/>
      <feComposite in2="offsetblur" operator="in"/>
    </filter>
    <clipPath id="Clip_11">
      <path d="M504.693,96.457 L528.899,96.457 L528.899,121.132 L504.693,121.132 z M517.303,98.458 C510.672,98.458 506.693,102.593 506.693,109.224 C506.693,115.621 510.126,119.132 516.445,119.132 C522.921,119.132 526.899,114.997 526.899,108.288 C526.899,102.047 523.388,98.458 517.303,98.457 z"/>
    </clipPath>
    <filter id="Shadow_12">
      <feGaussianBlur in="SourceAlpha" stdDeviation="0"/>
      <feOffset dx="-1" dy="-1" result="offsetblur"/>
      <feFlood flood-color="#000000"/>
      <feComposite in2="offsetblur" operator="in"/>
    </filter>
    <clipPath id="Clip_13">
      <path d="M525.017,64.179 L599.204,64.179 L599.204,138.577 L525.017,138.577 z M558.374,79.332 C566.582,79.332 570.265,82.068 570.265,88.066 C570.265,94.065 568.582,96.695 563.846,98.695 L555.849,97.642 C555.954,92.275 556.165,87.014 556.585,81.648 C556.691,79.648 556.902,79.332 558.374,79.332 z M562.899,66.179 C562.899,66.179 548.483,66.81 543.433,66.81 C539.118,66.81 528.49,66.705 528.49,66.705 L527.332,75.018 L528.385,76.281 C528.385,76.281 530.49,76.07 532.068,76.07 C534.172,76.07 534.804,77.228 534.804,80.7 L534.804,117.214 C534.804,123.108 533.12,125.317 527.964,126.159 L527.017,135.84 C527.017,135.84 537.434,134.893 545.221,134.893 C549.641,134.893 562.478,135.314 562.478,135.314 L563.53,126.475 L563.005,125.632 C556.27,125.317 555.534,124.581 555.534,118.056 L555.534,110.901 L561.426,110.901 L567.951,127 C570.687,133.946 574.053,136.577 579.946,136.577 L596.257,135.418 L597.204,127.737 L596.046,126.054 C592.995,126.054 589.417,122.791 585.839,116.793 L579.315,105.85 C587.628,100.904 591.942,94.17 591.942,85.961 C591.942,72.703 582.261,66.179 562.899,66.179 z"/>
    </clipPath>
    <filter id="Shadow_14">
      <feGaussianBlur in="SourceAlpha" stdDeviation="0"/>
      <feOffset dx="-1" dy="-1" result="offsetblur"/>
      <feFlood flood-color="#000000"/>
      <feComposite in2="offsetblur" operator="in"/>
    </filter>
    <clipPath id="Clip_15">
      <path d="M598.38,123.233 L613.344,123.233 L613.344,138.028 L598.38,138.028 z M605.711,128.572 C606.723,128.572 607.06,128.944 607.06,129.483 C607.06,130.158 606.385,130.394 605.609,130.394 L604.901,130.394 L604.901,128.64 C605.07,128.606 605.306,128.572 605.711,128.572 z M605.812,127.763 C605.036,127.763 604.429,127.83 603.855,127.931 L603.855,133.565 L604.901,133.565 L604.901,131.204 L605.576,131.204 C606.385,131.204 606.756,131.474 606.891,132.081 C607.026,132.857 607.161,133.363 607.33,133.565 L608.409,133.565 C608.274,133.363 608.173,133.026 608.005,132.148 C607.836,131.44 607.566,131.001 607.06,130.799 L607.06,130.732 C607.667,130.529 608.173,130.091 608.173,129.382 C608.173,128.876 607.937,128.438 607.6,128.201 C607.229,127.931 606.756,127.763 605.812,127.763 z M605.879,126.177 C608.342,126.177 610.13,128.168 610.13,130.63 C610.13,133.093 608.342,135.083 605.913,135.05 C603.417,135.05 601.561,133.093 601.561,130.597 C601.561,128.168 603.417,126.177 605.845,126.177 L605.879,126.177 z M605.913,125.233 L605.879,125.233 C602.809,125.233 600.38,127.594 600.38,130.597 C600.38,133.667 602.809,136.028 605.879,136.028 C608.949,136.028 611.344,133.667 611.344,130.597 C611.344,127.594 608.949,125.233 605.913,125.233 z"/>
    </clipPath>
    <filter id="Shadow_16">
      <feGaussianBlur in="SourceAlpha" stdDeviation="0"/>
      <feOffset dx="-1" dy="-1" result="offsetblur"/>
      <feFlood flood-color="#000000"/>
      <feComposite in2="offsetblur" operator="in"/>
    </filter>
  </defs>
  <g id="Layer_3" transform="translate(-253.351, -64.548)">
    <g>
      <g>
        <path d="M329.694,66.284 L328.958,75.545 C323.907,76.386 322.854,77.228 322.645,81.226 C322.012,89.75 321.592,105.007 321.592,118.477 C321.592,123.739 322.645,125.527 325.695,125.527 C327.274,125.527 328.641,125.211 328.641,125.211 L329.484,126.369 L328.536,135.103 C328.536,135.103 319.277,134.893 310.543,134.893 C305.702,134.893 293.075,134.999 293.075,134.999 L293.916,125.843 C298.968,125.737 300.862,123.528 300.862,117.846 L300.862,107.112 C300.862,107.112 297.284,107.008 294.654,107.008 C292.339,107.008 282.763,107.954 282.763,107.954 L282.763,118.477 C282.763,124.37 283.394,125.737 286.13,125.737 C288.024,125.737 288.971,125.422 288.971,125.422 L289.813,126.475 L288.866,135.314 C288.866,135.314 276.133,134.893 271.819,134.893 C265.295,134.893 254.351,135.418 254.351,135.418 L255.193,126.475 C260.77,125.318 262.033,123.739 262.033,117.846 L262.033,81.437 C262.033,77.123 261.296,76.07 258.349,76.07 C257.193,76.07 255.614,76.175 255.614,76.175 L254.667,74.703 L255.508,66.81 L269.083,66.81 C275.291,66.81 290.024,66.284 290.024,66.284 L289.286,75.755 C284.762,76.597 283.92,77.438 283.71,81.226 L283.078,93.959 L292.022,94.275 C296.759,94.275 298.862,94.169 300.862,93.959 L300.862,81.437 C300.862,77.228 300.126,76.07 297.179,76.07 C296.021,76.07 294.338,76.175 294.338,76.175 L293.391,74.703 L294.233,66.81 L311.174,66.81 C315.699,66.81 329.694,66.284 329.694,66.284 z" clip-path="url(#Clip_1)" filter="url(#Shadow_2)" fill="rgba(0,0,0,0.75)"/>
        <path d="M321.592,118.477 C321.592,123.739 322.645,125.527 325.695,125.527 C327.274,125.527 328.641,125.211 328.641,125.211 L329.484,126.369 L328.536,135.103 C328.536,135.103 319.277,134.893 310.543,134.893 C305.702,134.893 293.075,134.999 293.075,134.999 L293.916,125.843 C298.968,125.737 300.862,123.528 300.862,117.846 L300.862,107.112 C300.862,107.112 297.284,107.008 294.654,107.008 C292.339,107.008 282.763,107.954 282.763,107.954 L282.763,118.477 C282.763,124.37 283.394,125.737 286.13,125.737 C288.024,125.737 288.971,125.422 288.971,125.422 L289.813,126.475 L288.866,135.314 C288.866,135.314 276.133,134.893 271.819,134.893 C265.295,134.893 254.351,135.418 254.351,135.418 L255.193,126.475 C260.77,125.318 262.033,123.739 262.033,117.846 L262.033,81.437 C262.033,77.123 261.296,76.07 258.349,76.07 C257.193,76.07 255.614,76.175 255.614,76.175 L254.667,74.703 L255.508,66.81 L269.083,66.81 C275.291,66.81 290.024,66.284 290.024,66.284 L289.287,75.755 C284.762,76.597 283.92,77.438 283.71,81.226 L283.078,93.959 L292.022,94.275 C296.759,94.275 298.862,94.169 300.862,93.959 L300.862,81.437 C300.862,77.228 300.126,76.07 297.179,76.07 C296.021,76.07 294.338,76.175 294.338,76.175 L293.391,74.703 L294.233,66.81 L311.174,66.81 C315.699,66.81 329.694,66.284 329.694,66.284 L328.958,75.545 C323.907,76.386 322.854,77.228 322.645,81.226 C322.012,89.75 321.592,105.007 321.592,118.477" fill="#FFFFFF"/>
      </g>
      <g>
        <path d="M341.06,98.457 C347.145,98.458 350.655,102.047 350.655,108.288 C350.655,114.997 346.677,119.132 340.201,119.132 C333.882,119.132 330.449,115.621 330.449,109.224 C330.449,102.593 334.428,98.458 341.06,98.458 z" clip-path="url(#Clip_3)" filter="url(#Shadow_4)" fill="rgba(0,0,0,0.75)"/>
        <path d="M330.449,109.224 C330.449,102.593 334.428,98.458 341.06,98.458 C347.145,98.458 350.655,102.047 350.655,108.288 C350.655,114.997 346.677,119.132 340.201,119.132 C333.882,119.132 330.449,115.621 330.449,109.224" fill="#FF0703"/>
      </g>
      <g>
        <path d="M410.353,65.548 L411.722,67.231 C411.722,67.231 409.828,78.28 409.302,88.171 L394.78,89.118 C394.78,89.118 394.99,86.593 394.99,85.225 C394.99,80.49 393.201,79.438 384.678,79.438 C381.732,79.438 381.1,79.963 381.1,82.279 L380.469,94.169 C382.468,94.169 386.151,94.275 389.098,94.275 C392.254,94.275 400.673,93.643 400.673,93.643 L401.935,95.116 L400.462,107.217 C400.462,107.218 392.675,106.901 387.835,106.901 C384.783,106.901 381.837,107.323 379.943,107.534 C379.838,111.111 379.838,114.162 379.838,116.478 C379.838,121.949 380.469,122.791 384.888,122.791 C393.938,122.791 395.832,121.108 397.095,111.637 L410.564,110.69 L411.827,112.269 C411.827,112.269 409.932,122.475 408.881,133.947 L407.302,135.629 C407.302,135.629 389.834,134.893 373.524,134.893 C362.686,134.893 351.32,135.944 351.32,135.944 L352.267,126.264 C357.529,125.422 359.108,123.317 359.108,117.004 L359.213,81.753 C359.213,77.228 358.687,76.07 356.372,76.07 C355.214,76.07 353.636,76.281 353.636,76.281 L352.373,74.807 L353.32,66.494 C353.32,66.494 368.263,66.81 377.838,66.81 C390.992,66.81 404.461,66.284 410.354,65.548 z" clip-path="url(#Clip_5)" filter="url(#Shadow_6)" fill="rgba(0,0,0,0.75)"/>
        <path d="M384.888,122.791 C393.938,122.791 395.832,121.108 397.095,111.637 L410.564,110.69 L411.827,112.269 C411.827,112.269 409.932,122.475 408.881,133.947 L407.302,135.629 C407.302,135.629 389.834,134.893 373.524,134.893 C362.686,134.893 351.32,135.944 351.32,135.944 L352.267,126.264 C357.529,125.422 359.108,123.317 359.108,117.004 L359.213,81.753 C359.213,77.228 358.687,76.07 356.372,76.07 C355.214,76.07 353.636,76.281 353.636,76.281 L352.373,74.807 L353.32,66.494 C353.32,66.494 368.263,66.81 377.838,66.81 C390.992,66.81 404.461,66.284 410.354,65.548 L411.722,67.231 C411.722,67.231 409.828,78.28 409.302,88.171 L394.78,89.118 C394.78,89.118 394.99,86.593 394.99,85.225 C394.99,80.49 393.201,79.438 384.678,79.438 C381.732,79.438 381.1,79.963 381.1,82.279 L380.469,94.169 C382.468,94.169 386.151,94.275 389.098,94.275 C392.254,94.275 400.673,93.643 400.673,93.643 L401.935,95.116 L400.462,107.218 C400.462,107.218 392.675,106.901 387.835,106.901 C384.783,106.901 381.837,107.323 379.943,107.534 C379.838,111.111 379.838,114.162 379.838,116.478 C379.838,121.949 380.469,122.791 384.888,122.791" fill="#FFFFFF"/>
      </g>
      <g>
        <path d="M427.136,98.457 C433.221,98.458 436.733,102.047 436.733,108.288 C436.733,114.997 432.754,119.132 426.278,119.132 C419.959,119.132 416.526,115.621 416.526,109.224 C416.526,102.593 420.505,98.458 427.136,98.458 z" clip-path="url(#Clip_7)" filter="url(#Shadow_8)" fill="rgba(0,0,0,0.75)"/>
        <path d="M416.526,109.224 C416.526,102.593 420.505,98.458 427.136,98.458 C433.221,98.458 436.733,102.047 436.733,108.288 C436.733,114.997 432.754,119.132 426.278,119.132 C419.959,119.132 416.526,115.621 416.526,109.224" fill="#FF0703"/>
      </g>
      <g>
        <path d="M486.013,65.652 L487.592,66.916 C487.592,66.916 497.694,107.428 500.745,118.793 C502.008,123.528 503.691,125.527 506.954,125.843 L507.69,126.895 L506.848,135.208 C506.848,135.209 497.799,134.999 492.012,134.999 C482.014,134.999 471.912,135.524 471.912,135.524 L471.071,134.577 L471.702,125.737 C478.12,125.001 478.437,124.896 478.437,122.16 C478.437,121.74 478.332,121.108 478.226,120.267 L477.595,116.163 C474.754,116.056 471.491,115.952 469.492,115.952 C467.072,115.952 463.81,116.267 461.074,116.478 L460.021,121.108 C459.811,122.265 459.706,123.002 459.706,123.424 C459.706,125.211 460.127,125.527 462.968,125.527 L465.704,125.527 L466.547,126.58 L465.704,135.314 C465.704,135.314 455.918,134.999 449.499,134.999 C442.975,134.999 435.503,135.104 435.503,135.104 L436.241,125.949 C438.766,125.317 440.555,123.424 441.607,120.161 L458.339,67.336 L486.013,65.652 z M471.702,84.594 L469.388,84.594 L464.442,103.219 L469.808,103.219 C471.386,103.219 473.386,103.113 475.28,103.009 L471.702,84.594 z" clip-path="url(#Clip_9)" filter="url(#Shadow_10)" fill="rgba(0,0,0,0.75)"/>
        <path d="M464.442,103.219 L469.808,103.219 C471.386,103.219 473.386,103.113 475.28,103.009 L471.702,84.594 L469.388,84.594 z M506.954,125.843 L507.69,126.895 L506.848,135.209 C506.848,135.209 497.799,134.999 492.012,134.999 C482.014,134.999 471.912,135.524 471.912,135.524 L471.071,134.577 L471.702,125.737 C478.12,125.001 478.437,124.896 478.437,122.16 C478.437,121.74 478.332,121.108 478.226,120.267 L477.595,116.163 C474.754,116.056 471.491,115.952 469.492,115.952 C467.072,115.952 463.81,116.267 461.074,116.478 L460.021,121.108 C459.811,122.265 459.706,123.002 459.706,123.424 C459.706,125.211 460.127,125.527 462.968,125.527 L465.704,125.527 L466.547,126.58 L465.704,135.314 C465.704,135.314 455.918,134.999 449.499,134.999 C442.975,134.999 435.503,135.104 435.503,135.104 L436.241,125.949 C438.766,125.317 440.555,123.424 441.607,120.161 L458.339,67.336 L486.013,65.652 L487.592,66.916 C487.592,66.916 497.694,107.428 500.745,118.793 C502.008,123.528 503.691,125.527 506.954,125.843" fill="#FFFFFF"/>
      </g>
      <g>
        <path d="M517.303,98.457 C523.388,98.458 526.899,102.047 526.899,108.288 C526.899,114.997 522.921,119.132 516.445,119.132 C510.126,119.132 506.693,115.621 506.693,109.224 C506.693,102.593 510.672,98.458 517.303,98.458 z" clip-path="url(#Clip_11)" filter="url(#Shadow_12)" fill="rgba(0,0,0,0.75)"/>
        <path d="M506.693,109.224 C506.693,102.593 510.672,98.458 517.303,98.458 C523.388,98.458 526.899,102.047 526.899,108.288 C526.899,114.997 522.921,119.132 516.445,119.132 C510.126,119.132 506.693,115.621 506.693,109.224" fill="#FF0703"/>
      </g>
      <g>
        <path d="M562.899,66.179 C582.261,66.179 591.942,72.703 591.942,85.961 C591.942,94.17 587.628,100.904 579.315,105.85 L585.839,116.793 C589.417,122.791 592.995,126.054 596.046,126.054 L597.204,127.737 L596.257,135.418 L579.946,136.577 C574.053,136.577 570.687,133.946 567.951,127 L561.426,110.901 L555.534,110.901 L555.534,118.056 C555.534,124.581 556.27,125.317 563.005,125.632 L563.53,126.475 L562.478,135.314 C562.478,135.314 549.641,134.893 545.221,134.893 C537.434,134.893 527.017,135.84 527.017,135.84 L527.964,126.159 C533.12,125.317 534.804,123.108 534.804,117.214 L534.804,80.7 C534.804,77.228 534.172,76.07 532.068,76.07 C530.49,76.07 528.385,76.281 528.385,76.281 L527.332,75.018 L528.49,66.705 C528.49,66.705 539.118,66.81 543.433,66.81 C548.483,66.81 562.899,66.179 562.899,66.179 z M558.374,79.332 C556.902,79.332 556.691,79.648 556.585,81.648 C556.165,87.014 555.954,92.275 555.849,97.642 L563.846,98.695 C568.582,96.695 570.265,94.065 570.265,88.066 C570.265,82.068 566.582,79.332 558.374,79.332 z" clip-path="url(#Clip_13)" filter="url(#Shadow_14)" fill="rgba(0,0,0,0.75)"/>
        <path d="M563.846,98.695 C568.582,96.695 570.265,94.065 570.265,88.066 C570.265,82.068 566.582,79.332 558.374,79.332 C556.902,79.332 556.691,79.648 556.585,81.648 C556.165,87.014 555.954,92.275 555.849,97.642 z M555.534,110.901 L555.534,118.056 C555.534,124.581 556.27,125.317 563.005,125.632 L563.53,126.475 L562.478,135.314 C562.478,135.314 549.641,134.893 545.221,134.893 C537.434,134.893 527.017,135.84 527.017,135.84 L527.964,126.159 C533.12,125.317 534.804,123.108 534.804,117.214 L534.804,80.7 C534.804,77.228 534.172,76.07 532.068,76.07 C530.49,76.07 528.385,76.281 528.385,76.281 L527.332,75.018 L528.49,66.705 C528.49,66.705 539.118,66.81 543.433,66.81 C548.483,66.81 562.899,66.179 562.899,66.179 C582.261,66.179 591.942,72.703 591.942,85.961 C591.942,94.17 587.628,100.904 579.315,105.85 L585.839,116.793 C589.417,122.791 592.995,126.054 596.046,126.054 L597.204,127.737 L596.257,135.418 L579.946,136.577 C574.053,136.577 570.687,133.946 567.951,127 L561.426,110.901 z" fill="#FFFFFF"/>
      </g>
      <g>
        <path d="M605.913,125.233 C608.949,125.233 611.344,127.594 611.344,130.597 C611.344,133.667 608.949,136.028 605.879,136.028 C602.809,136.028 600.38,133.667 600.38,130.597 C600.38,127.594 602.809,125.233 605.879,125.233 L605.913,125.233 z M605.879,126.177 L605.845,126.177 C603.417,126.177 601.561,128.168 601.561,130.597 C601.561,133.093 603.417,135.05 605.913,135.05 C608.342,135.083 610.13,133.093 610.13,130.63 C610.13,128.168 608.342,126.177 605.879,126.177 z M605.812,127.763 C606.756,127.763 607.229,127.931 607.6,128.201 C607.937,128.438 608.173,128.876 608.173,129.382 C608.173,130.091 607.667,130.529 607.06,130.732 L607.06,130.799 C607.566,131.001 607.836,131.44 608.005,132.148 C608.173,133.026 608.274,133.363 608.409,133.565 L607.33,133.565 C607.161,133.363 607.026,132.857 606.891,132.081 C606.756,131.474 606.385,131.204 605.576,131.204 L604.901,131.204 L604.901,133.565 L603.855,133.565 L603.855,127.931 C604.429,127.83 605.036,127.763 605.812,127.763 z M605.711,128.572 C605.306,128.572 605.07,128.606 604.901,128.64 L604.901,130.394 L605.609,130.394 C606.385,130.394 607.06,130.158 607.06,129.483 C607.06,128.944 606.723,128.572 605.711,128.572 z" clip-path="url(#Clip_15)" filter="url(#Shadow_16)" fill="rgba(0,0,0,0.75)"/>
        <path d="M604.901,131.204 L605.576,131.204 C606.385,131.204 606.756,131.474 606.891,132.081 C607.026,132.857 607.161,133.363 607.33,133.565 L608.409,133.565 C608.274,133.363 608.173,133.026 608.005,132.148 C607.836,131.44 607.566,131.001 607.06,130.799 L607.06,130.732 C607.667,130.529 608.173,130.091 608.173,129.382 C608.173,128.876 607.937,128.438 607.6,128.201 C607.229,127.931 606.756,127.763 605.812,127.763 C605.036,127.763 604.429,127.83 603.855,127.931 L603.855,133.565 L604.901,133.565 z M604.901,128.64 C605.07,128.606 605.306,128.572 605.711,128.572 C606.723,128.572 607.06,128.944 607.06,129.483 C607.06,130.158 606.385,130.394 605.609,130.394 L604.901,130.394 z M605.879,125.233 C602.809,125.233 600.38,127.594 600.38,130.597 C600.38,133.667 602.809,136.028 605.879,136.028 C608.949,136.028 611.344,133.667 611.344,130.597 C611.344,127.594 608.949,125.233 605.913,125.233 z M605.879,126.177 C608.342,126.177 610.13,128.168 610.13,130.63 C610.13,133.093 608.342,135.083 605.913,135.05 C603.417,135.05 601.561,133.093 601.561,130.597 C601.561,128.168 603.417,126.177 605.845,126.177 z" fill="#FFFFFF"/>
      </g>
    </g>
  </g>
</svg>
