<?xml version="1.0" encoding="UTF-8"?>
<!DOCTYPE svg PUBLIC "-//W3C//DTD SVG 1.1//EN" "http://www.w3.org/Graphics/SVG/1.1/DTD/svg11.dtd">
<svg version="1.1" xmlns="http://www.w3.org/2000/svg" xmlns:xlink="http://www.w3.org/1999/xlink" x="0" y="0" width="201.973" height="171.906" viewBox="0, 0, 201.973, 171.906">
  <defs>
    <clipPath id="Clip_1">
      <path d="M436.546,150.009 L436.546,100.081 L337.281,100.081 L337.281,150.009 L436.546,150.009 z"/>
    </clipPath>
  </defs>
  <g id="Layer_1" transform="translate(-282.027, -48.094)">
    <g>
      <path d="M282.953,172.666 C282.565,175.814 283.525,177.829 283.525,181.425 C283.525,184.719 283.396,188.099 285.522,190.722 C286.432,191.845 288.138,192.87 289.433,193.434 C290.108,193.727 290.954,193.855 291.577,194.239 C292.471,194.791 293.507,195.213 294.605,195.52 C295.841,195.866 295.985,196.236 297.255,196.548 C298.317,196.808 299.175,197.123 300.118,197.427 C301.529,197.88 303.031,198.41 304.492,198.78 C306.034,199.171 307.779,199.649 309.269,200.082 C310.892,200.554 312.613,201.005 314.213,201.646 C317.102,202.802 317.477,202.369 320.793,203.832 C322.983,204.798 326.154,205.302 328.493,205.874 C330.555,206.378 330.636,206.289 332.665,207.018 C334.476,207.669 336.603,208.115 338.468,208.799 C340.575,209.571 342.854,210.081 345.094,210.598 C348.865,211.468 350.348,211.978 352.737,212.835 C353.511,213.113 354.385,213.399 355.338,213.631 C356.328,213.871 357.69,214.263 358.728,214.435 C360.841,214.783 362.584,215.729 364.674,216.294 C367.706,217.114 369.156,217.484 371.202,218.027 C372.095,218.264 373.15,218.499 374.019,218.805 C374.963,219.139 375.67,219.194 376.734,219.398 C380.343,220.092 386.782,220.302 389.115,219.399 C391.21,218.588 393.726,217.718 395.375,216.358 C396.04,215.81 396.541,215.121 397.002,214.534 C397.579,213.799 397.535,213.544 398.223,213.025 C398.517,212.802 398.121,212.961 398.517,212.802 C398.53,212.644 398.836,212.296 398.87,212.14 C400.849,210.24 400.536,209.952 401.318,209.155 C402.507,207.942 403.085,206.74 403.925,205.44 C405.666,202.747 408.845,200.409 410.399,197.673 C411.354,195.991 413.572,193.523 414.281,191.916 C414.693,190.983 418.897,185.786 419.286,184.793 C419.718,183.694 426.323,172.385 426.695,171.356 C427.488,169.161 481.619,88.71 482.525,86.5 C483.212,84.823 481.223,76.484 481.381,74.872 C480.29,77.064 477.376,85.193 476.042,87.281 C474.342,89.943 442.558,134.938 440.398,137.203 C437.902,139.822 435.399,144.333 433.155,147.115 C432.234,148.256 427.473,156.006 426.293,156.836 C425.104,157.674 420.84,163.986 419.812,164.841 C418.659,165.8 411.858,174.816 410.473,175.135 C409.535,175.351 393.099,196.822 392.174,197.055 C391.633,197.191 388.71,201.396 388.13,201.439 C387.225,201.507 385.975,201.268 385.165,201.439 C383.548,201.78 382.024,203.22 380.477,203.027 C378.466,202.776 376.497,202.785 374.467,202.452 C369.883,201.699 365.292,199.538 360.742,198.824 C357.923,198.383 356.12,198.618 353.676,197.203 C352.504,196.525 351.365,196.788 350.054,196.378 C349.082,196.074 348.19,195.197 347.219,195.036 C346.261,194.879 345.087,194.615 344.196,194.3 C342.143,193.574 340.071,192.61 337.978,192.014 C336.455,191.58 334.759,191.306 333.318,190.768 C329.847,189.472 326.375,188.859 322.901,187.545 C319.034,186.082 315.497,184.45 311.397,184.021 C307.274,183.59 303.402,182.331 299.471,181.022 C297.879,180.492 296.083,180.21 294.549,179.548 C293.678,179.172 292.903,178.963 292.027,178.54 C289.884,177.506 288.417,177.331 286.597,175.878 C284.724,174.382 286.604,172.937 284.873,171.513" fill="#1B1A19"/>
      <path d="M282.967,172.262 C281.852,175.464 282.217,175.467 282.192,176.837 C282.177,177.635 281.901,178.364 282.099,179.082 C282.277,179.729 282.113,180.841 282.175,181.645 C282.292,183.149 282.153,184.719 282.733,186.071 C283.37,187.556 284.501,188.239 285.797,189.078 C287.229,190.007 288.756,190.999 290.369,191.556 C291.9,192.084 293.54,192.813 295.124,193.419 C296.697,194.022 298.337,194.711 299.922,195.141 C301.612,195.599 303.318,196.115 304.972,196.787 C309.797,198.748 312.596,198.93 316.475,200.539 C317.343,200.899 319.111,201.605 319.987,201.838 C321.085,202.13 321.147,202.212 322.186,202.59 C322.85,202.832 324.068,203.104 324.708,203.247 C325.888,203.51 326.987,203.673 328.142,204.089 C328.908,204.365 329.751,204.705 330.62,205.057 C330.903,205.172 331.298,205.211 331.596,205.323 C332.28,205.58 334.222,206.04 334.865,206.245 C337.475,207.075 337.475,207.075 339.199,207.51 C340.918,207.943 342.861,208.752 344.716,209.073 C346.928,209.455 348.856,210.509 351.063,210.809 C352.146,210.956 353.46,211.427 354.503,211.756 C355.441,212.053 356.298,212.207 357.239,212.508 C358.544,212.925 359.646,213.337 360.95,213.641 C361.773,213.833 362.6,214.171 363.41,214.404 C364.486,214.714 365.631,215.093 366.693,215.321 C367.69,215.536 368.751,215.769 369.747,216.078 C371.353,216.576 373.028,217.167 374.703,217.442 C378.238,218.023 381.564,218.58 385.287,218.58 C386.98,218.58 389.1,218.225 390.662,217.64 C391.92,217.168 393.126,216.591 394.555,215.176 C396.243,213.811 396.967,212.962 399.155,210.322 C400.47,208.735 401.001,207.826 402.219,206.181 C402.748,205.468 403.427,204.928 403.681,203.999 C403.963,202.966 403.555,200.947 403.388,199.986 C403.028,197.902 403.257,197.062 403.019,194.961 C402.046,195.281 401.993,196.326 401.735,197.042 C401.422,197.913 400.669,198.346 400.165,199.149 C398.833,201.268 398.833,201.268 397.34,203.198 C396.335,204.497 394.278,205.345 392.862,206.283 C391.096,207.453 389.688,207.501 387.571,207.864 C385.9,208.151 384.205,208.589 382.486,208.669 C381.539,208.713 380.991,208.817 379.57,208.718 C378.281,208.628 378.391,208.517 376.366,208.088 C374.019,207.591 372.302,207.302 370.012,206.591 C369.364,206.39 367.657,205.98 366.837,205.776 C365.977,205.561 364.827,205.123 363.972,204.857 C361.902,204.211 360.143,204.189 358.253,203.379 C356.408,202.587 354.233,202.187 352.208,201.57 C350.091,200.924 348.208,200.315 346.055,199.627 C344.094,199.001 341.871,198.112 339.96,197.804 C338.112,197.506 336.231,196.979 334.418,196.432 C332.41,195.826 331.776,195.396 329.24,194.919 C327.934,194.674 326.351,194.075 325.069,193.834 C323.354,193.51 321.503,192.647 319.714,192.344 C318.466,192.132 317.367,191.603 316.176,191.126 C314.782,190.566 313.488,190.474 312.073,189.948 C308.923,188.777 306.065,187.747 302.785,187.142 C300.822,186.781 299.133,186.057 297.089,185.601 C296.189,185.4 295.781,185.082 294.951,184.699 C293.828,184.179 292.613,183.868 291.541,183.488 C291.056,183.317 290.417,183.279 289.982,183.047 C289.153,182.606 288.304,182.307 287.501,181.839 C286.043,180.991 284.012,180.281 283.602,178.556 C282.782,175.112 282.613,174.55 283.548,172.262 C282.833,172.596 282.967,173.313 282.967,172.262" fill="#CDCECA"/>
      <path d="M289.776,186.183 C290.151,186.265 290.434,186.532 290.792,186.662 C291.126,186.783 291.439,186.845 291.754,186.975 C292.345,187.218 292.822,187.638 293.472,187.807 C293.864,187.908 294.063,187.998 294.414,188.184 C294.72,188.345 295.002,188.368 295.32,188.516 C296.02,188.841 296.712,189.174 297.448,189.462 C298.788,189.985 300.453,190.12 301.597,190.954 C302.074,191.301 301.997,191.456 301.997,192.061 C301.997,192.575 302.045,193.126 301.982,193.634 C301.721,193.141 300.853,192.725 300.358,192.441 C299.463,191.927 298.381,191.553 297.387,191.255 C296.696,191.047 296.131,190.575 295.418,190.403 C294.636,190.214 293.758,190.062 292.993,189.736 C292.199,189.398 291.478,189.003 290.679,188.729 C290.168,188.553 289.6,188.368 289.097,188.164 C288.553,187.944 288.72,187.69 288.942,187.224 C289.176,186.735 289.172,186.366 289.172,185.806" fill="#1B1A19"/>
      <path d="M310.974,191.916 C311.614,192.057 312.188,192.278 312.808,192.469 C313.424,192.658 313.995,192.756 314.597,192.974 C315.6,193.337 316.755,193.495 317.665,193.968 C318.772,194.543 320.074,194.275 321.138,194.896 C322.464,195.671 323.929,195.819 325.409,196.155 C327.013,196.52 328.648,197.198 330.261,197.581 C331.121,197.785 332.035,198.11 332.834,198.473 C333.533,198.789 334.205,198.838 334.945,199.087 C336.455,199.595 337.975,200.151 339.548,200.38 C341.063,200.6 342.509,200.864 343.901,201.499 C344.676,201.853 345.508,202.077 346.284,202.419 C346.915,202.698 347.518,202.943 348.215,202.989 C349.627,203.083 350.91,203.537 352.187,204.135 C352.857,204.449 353.103,204.419 353.162,205.173 C353.196,205.625 353.296,206.046 353.295,206.51 C353.294,207.3 353.314,208.094 353.293,208.883 C352.787,208.954 352.59,208.792 352.168,208.525 C351.307,207.978 350.384,207.521 349.477,207.056 C348.706,206.66 347.866,206.495 347.045,206.22 C346.421,206.011 345.734,205.897 345.087,205.786 C344.469,205.681 343.861,205.105 343.24,205.039 C341.934,204.9 340.685,204.375 339.403,204.056 C338.86,203.921 338.329,203.937 337.778,203.877 C337.165,203.811 336.658,203.617 336.078,203.453 C335.231,203.213 334.257,202.856 333.382,202.734 C332.827,202.655 332.235,202.641 331.7,202.473 C331.15,202.3 330.664,201.988 330.145,201.75 C328.966,201.211 327.742,201.061 326.524,200.619 C324.066,199.726 321.668,198.833 319.107,198.317 C317.857,198.065 316.6,197.911 315.375,197.534 C314.532,197.275 313.616,197.131 312.808,196.821 C312.421,196.673 312.018,196.488 311.62,196.384 C311.447,196.339 311.024,196.37 310.889,196.238 C310.665,196.019 310.856,195.217 310.898,194.93 C310.974,194.417 311.794,192.418 311.351,192.067" fill="#1B1A19"/>
      <path d="M362.348,208.437 C363.563,208.811 364.815,209.466 366.044,209.727 C366.854,209.899 367.493,210.259 368.336,210.472 C371.298,211.223 371.747,211.113 374.634,211.712 C374.642,211.773 374.649,211.834 374.655,211.895 C374.908,211.986 375.101,212.175 375.389,212.133 C375.475,212.656 375.323,213.281 375.324,213.819 C375.324,214.123 375.402,214.569 375.264,214.83 C374.481,214.639 373.707,214.42 372.919,214.246 C371.87,214.013 371.039,213.656 370.058,213.208 C369.331,212.876 368.689,212.789 367.95,212.585 C367.127,212.357 366.329,212.202 365.499,212.07 C364.867,211.969 364.214,211.56 363.589,211.44 C363.358,211.395 363.18,211.25 362.974,211.186 C362.736,211.113 362.162,211.174 361.992,211.011 C361.713,210.746 361.972,209.72 361.971,209.309 C361.97,208.863 361.914,208.409 362.122,208.06" fill="#1B1A19"/>
      <path d="M404.781,202.669 C404.742,201.106 404.554,199.465 404.422,197.87 C404.32,196.633 403.474,194.311 403.893,193.086 C404.122,192.416 405.189,191.483 405.568,190.834 C406.132,189.867 406.861,189.597 407.498,188.674 C408.526,187.183 409.488,185.578 410.533,184.111 C411.449,182.825 411.906,182.444 413.402,180.156 C414.297,178.786 415.429,177.941 416.39,176.473 C417.377,174.965 418.3,173.644 419.148,172.093 C419.882,170.752 421.077,169.896 422.187,167.887 C422.513,167.298 423.03,166.837 423.441,166.248 C423.924,165.555 424.186,165.251 424.643,164.535 C425.312,163.488 426.25,162.216 426.844,161.143 C427.601,159.779 428.616,158.57 429.5,157.176 C430.365,155.812 431.544,154.743 432.267,153.349 C432.994,151.949 433.72,151.078 434.708,149.9 C435.309,149.183 435.859,148.204 436.31,147.404 C436.725,146.669 437.08,146.029 437.61,145.444 C439.783,143.046 441.267,140.237 443.223,137.647 C444.554,135.886 445.663,135.185 447.541,131.977 C448.032,131.548 448.381,130.803 448.749,130.381 C449.35,129.692 450.251,128.679 450.798,127.875 C451.424,126.956 452.12,126.129 452.892,124.6 C453.71,123.123 453.71,123.123 454.192,122.539 C454.784,121.823 455.307,121.33 455.758,120.475 C456.09,119.846 456.764,119.046 457.089,118.48 C457.587,117.61 457.954,116.981 458.516,116.195 C459.553,114.745 460.793,113.457 461.841,111.995 C462.838,110.604 463.921,109.164 464.976,107.762 C467.6,104.276 468.282,102.985 470.31,99.877 C472.143,97.069 474.2,94.442 476.02,91.598 C476.69,90.552 477.296,89.568 477.954,88.657 C478.616,87.74 478.95,87.033 479.662,86.21 C480.398,85.362 481.229,84.07 481.684,83.258 C482.324,82.116 482.347,81.575 482.738,80.197 C483.872,80.853 483.804,83.077 483.802,84.23 C483.799,85.773 483.986,87.261 483.986,88.835 C483.986,89.547 484.065,90.294 483.846,90.944 C483.508,91.946 482.755,92.762 482.184,93.633 C481.149,95.215 480.671,96.764 479.555,98.187 C477.538,100.757 470.432,111.206 468.513,113.661 C467.569,114.869 466.942,116.29 466.027,117.441 C464.877,118.886 463.634,120.37 462.662,122.072 C462.238,122.814 456.958,130.105 456.403,131.02 C454.109,134.805 452.351,137.092 450.328,140.032 C447.621,143.968 445.751,145.709 443.734,148.889 C442.573,150.721 434.476,163.025 433.695,163.844 C432.914,164.662 425.719,175.153 425.242,175.957 C424.627,176.99 423.18,178.973 421.422,181.255 C421.352,181.412 417.61,186.395 417.132,187.103 C415.838,189.02 415.838,189.02 413.913,191.916 C412.826,193.55 410.168,197.134 408.921,198.635 C408.127,199.59 408.127,199.59 405.131,202.788 C405.153,202.381 405.151,203.077 405.149,202.669" fill="#CDCECA"/>
      <path d="M282.798,172.751 C282.795,175.895 286.374,177.24 288.679,178.293 C290.075,178.932 291.564,179.542 293.046,180.101 C293.809,180.389 294.525,180.683 295.397,180.921 C296.275,181.16 297.152,181.215 298.026,181.57 C298.739,181.86 299.469,181.861 300.166,182.083 C300.958,182.336 301.726,182.763 302.544,182.998 C303.221,183.192 303.85,183.348 304.521,183.565 C305.468,183.87 306.326,183.942 307.287,184.196 C308.817,184.602 310.489,185.24 312.058,185.711 C312.844,185.946 313.6,186.013 314.377,186.197 C315.075,186.362 315.592,186.842 316.28,187.041 C317.144,187.291 318.034,187.331 318.932,187.633 C319.936,187.97 320.841,188.537 321.831,188.883 C323.234,189.372 324.606,189.695 326.036,190.115 C326.818,190.344 327.648,190.504 328.429,190.797 C329.34,191.139 330.947,191.818 331.917,192.081 C333.51,192.513 334.456,192.785 336.111,193.2 C336.711,193.35 337.373,193.586 337.964,193.757 C338.392,193.881 338.693,194.007 339.2,194.07 C340.057,194.177 340.258,194.379 341.077,194.681 C342.043,195.037 342.778,194.792 343.669,195.271 C344.508,195.722 345.382,195.931 346.231,196.192 C347.116,196.464 348.06,196.942 348.917,197.202 C349.824,197.477 350.392,197.604 351.328,197.733 C353.088,197.975 354.521,198.804 356.242,199.337 C361.494,200.963 359.984,200.19 362.491,200.966 C363.146,201.168 365.494,201.491 366.111,201.753 C367.053,202.153 367.552,202.198 368.512,202.284 C369.068,202.334 369.556,202.565 370.082,202.74 C370.791,202.976 371.412,203.337 372.166,203.444 C374.869,203.827 377.27,204.537 380.005,204.891 C381.514,205.086 384.734,204.69 385.582,203.494 C386.562,202.112 385.197,200.448 385.61,198.724 C384.478,198.3 382.257,198.671 381.145,198.671 C377.584,198.67 374.023,198.671 370.462,198.671 C368.9,198.671 367.301,198.7 365.753,198.535 C364.255,198.376 362.884,197.65 361.426,197.291 C358.469,196.562 355.626,195.106 352.849,193.883 C347.719,191.623 342.386,190.148 336.939,188.924 C335.474,188.595 334.012,188.195 332.545,187.858 C330.4,187.365 328.14,187.191 326.027,186.588 C321.18,185.204 316.578,183.138 311.784,181.606 C308.996,180.716 306.036,180.148 303.366,179.042 C302.363,178.625 301.285,178.524 300.285,178.074 C299.229,177.599 298.294,176.87 297.246,176.387 C294.298,175.026 290.816,174.867 287.726,174.095 C286.766,173.856 285.453,174.253 284.611,173.776 C284.21,173.549 283.949,173.026 283.563,172.747 C283.06,172.383 283.105,173.022 282.966,172.433 C282.886,172.957 282.412,173.029 282.865,173.354" fill="#9FA2A1"/>
      <path d="M384.55,205.617 C386.379,205.617 387.747,205.525 389.38,204.921 C390.073,204.665 390.651,204.331 391.232,204.051 C391.785,203.786 397.169,199.135 397.624,198.623 C398.153,198.025 405.201,189.024 405.692,188.299 C406.141,187.638 408.878,183.601 409.836,182.311 C410.804,181.009 417.202,172.051 417.747,171.402 C418.976,169.94 419.662,169.053 420.33,167.861 C421.757,165.318 423.603,162.314 425.115,160.351 C426.033,159.159 432.447,149.766 432.949,149.014 C433.915,147.563 435.323,146.233 436.259,144.776 C438.089,141.927 440.106,139.453 442.015,136.727 C442.797,135.611 443.566,134.463 444.373,133.273 C444.699,132.794 450.346,125.067 451.966,122.605 C452.57,121.687 455.093,118.137 455.789,117.346 C456.562,116.468 464.142,105.696 465.229,104.344 C467.532,101.481 473.267,93.161 473.604,92.801 C473.993,92.385 474.476,91.857 474.779,91.469 C475.175,90.964 476.757,88.554 477.16,87.919 C478.808,85.327 481.198,82.953 482.17,80.007 C482.482,79.06 482.47,78.409 482.539,77.42 C482.639,75.982 480.763,75.249 480.287,75.155 C478.687,74.837 477.48,74.379 475.914,74.65 C474.775,74.847 474.551,75.365 473.894,76.498 C472.71,78.539 471.776,80.687 470.557,82.728 C469.068,85.221 466.503,87.697 465.892,90.594 C465.675,91.626 465.804,92.519 465.255,93.47 C464.514,94.753 463.649,96.004 462.871,97.277 C461.481,99.548 459.653,101.495 458.053,103.609 C455.229,107.338 453.447,111.786 450.994,115.764 C447.529,121.383 443.019,126.192 438.784,131.218 C435.105,135.584 431.589,140.352 427.562,144.397 C424.161,147.813 421.439,151.439 419.156,155.676 C417.633,158.503 416.805,161.573 414.659,164.05 C412.503,166.537 410.358,169.055 408.284,171.61 C407.661,172.377 407.072,173.167 406.49,173.961 C405.331,175.542 404.199,177.135 402.87,178.586 C401.432,180.156 400.23,181.915 398.766,183.461 C397.491,184.809 396.205,185.954 395.122,187.473 C393.615,189.585 391.746,191.406 390.363,193.595 C389.983,194.198 389.62,195.046 389.227,195.57 C388.574,196.44 387.641,197.09 386.928,197.986 C386.085,199.047 385.209,199.889 384.139,200.783 C382.041,202.535 379.974,203.036 377.377,202.693 C378.034,203.786 379.519,204.373 380.692,204.879" fill="#9FA2A1"/>
      <path d="M376.739,202.853 C378.019,202.853 381.855,203.601 382.978,203.602 C385.19,203.604 387.415,203.746 389.15,202.854 C393.91,200.408 395.584,197.897 398.644,194.111 C399.055,193.603 402.05,189.729 402.736,188.876 C404.191,187.067 405.252,184.952 406.876,183.38 C407.59,182.688 410.21,179.014 410.868,177.876 C411.937,176.029 413.406,174.725 414.416,172.828 C415.459,170.87 417.345,169.412 418.916,167.553 C420.352,165.856 421.537,164.01 422.847,162.11 C424.225,160.113 425.34,158.057 426.648,155.952 C428.012,153.76 429.36,152.681 430.834,150.624 C433.361,147.099 435.82,143.618 437.891,139.961 C438.949,138.094 440.048,136.702 441.359,134.981 C442.018,134.116 442.573,133.249 443.32,132.424 C443.934,131.746 448.028,126.293 449.183,124.287 C450.236,122.457 451.644,120.775 452.852,119.003 C454.413,116.712 456.127,114.221 457.788,112.133 C458.532,111.199 463.667,103.95 464.339,103.107 C465.086,102.17 472.59,92.078 473.774,90.739 C475.035,89.313 479.828,82.366 480.586,80.568 C480.774,80.124 481.752,78.065 481.934,77.568 C482.206,76.819 482.036,75.438 481.807,74.573 C481.544,73.576 481.167,73.107 480.235,72.508 C478.632,71.475 477.538,70.612 476.881,70.355 C476.512,70.21 472.368,68.688 471.514,68.272 C470.15,67.606 454.922,64.152 448.876,62.855 C444.721,61.963 429.709,57.699 426.415,56.969 C422.943,56.2 419.777,55.126 416.45,54.169 C410.271,52.391 396.048,48.966 393.96,48.617 C387.867,47.596 381.945,47.789 378.479,51.794 C376.87,53.652 374.967,55.43 373.549,57.358 C372.212,59.177 371.106,60.677 369.695,62.394 C368.86,63.411 366.02,67.755 364.989,68.777 C363.224,70.526 358.064,77.941 356.786,79.524 C355.158,81.54 348.013,88.743 346.602,90.857 C345.262,92.865 338.942,99.037 338.068,99.987 C337.522,100.583 330.763,109.25 329.631,110.523 C327.079,113.396 321.277,121.145 320.333,122.247 C319.266,123.495 311.744,132.638 311.356,133.174 C310.745,134.019 286.042,165.863 285.67,166.408 C283.621,169.409 283.011,172.043 283.263,172.847 C283.863,174.767 284.721,174.978 286.337,175.956 C288.591,177.319 290.58,177.983 293.101,178.973 C298.503,181.097 301.262,181.506 304.949,182.576 C316.079,185.806 319.691,187.029 330.044,190.332 C331.915,190.929 333.784,191.37 335.648,191.93 C337.703,192.546 341.047,193.346 343.129,193.994 C348.836,195.772 351.08,196.594 355.701,197.731 C357.668,198.215 357.282,198.183 360.478,198.96 C362.502,199.453 366.846,200.76 368.903,201.244 C372.914,202.189 374.912,202.19 378.236,203.103" fill="#1B1A19"/>
      <path d="M340.076,176.613 C340.275,176.521 340.367,176.371 340.555,176.256 C340.813,176.098 341.109,176.127 341.412,176.137 C341.745,176.147 342.269,176.272 342.577,176.423 C342.81,176.538 342.922,176.65 343.192,176.707 C343.381,176.746 343.548,176.778 343.718,176.851 C343.946,176.949 344.145,177.044 344.348,177.157 C344.665,177.333 345.019,177.44 345.38,177.542 C345.952,177.703 346.427,177.756 346.836,178.201 C347.394,178.809 347.32,180.344 346.746,180.956 C346.585,181.126 346.354,181.246 346.175,181.391 C345.943,181.577 345.802,181.784 345.608,181.997 C345.204,182.442 344.918,182.687 344.427,182.962 C344.142,183.122 344.003,183.217 343.651,183.228 C343.288,183.24 342.943,183.281 342.574,183.281 C342.329,183.281 342.052,183.318 341.812,183.272 C341.456,183.203 341.228,182.923 340.871,182.834 C340.12,182.647 339.406,182.346 338.697,181.983 C338.464,181.863 338.172,181.746 337.933,181.665 C337.664,181.575 337.403,181.621 337.192,181.431 C336.814,181.091 336.944,180.558 337.059,180.161 C337.193,179.701 337.468,179.318 337.769,178.939 C338.079,178.548 338.468,178.084 338.872,177.735 C339.024,177.603 339.18,177.48 339.347,177.363 C339.307,177.391 339.722,177.226 339.638,177.231 C339.795,177.222 339.816,177.243 339.98,177.351 C340.286,177.551 340.495,177.923 340.857,178.027 C340.559,178.319 340.147,178.479 339.916,178.846 C339.751,179.108 339.576,179.471 339.239,179.584 C339.197,179.816 339.047,179.957 339.069,180.212 C339.1,180.573 339.408,180.675 339.706,180.805 C340.245,181.042 340.797,181.291 341.33,181.496 C341.933,181.728 342.639,181.945 343.221,181.59 C343.463,181.443 343.61,181.172 343.82,181.003 C344.038,180.827 344.311,180.69 344.522,180.487 C344.864,180.155 345.219,179.687 345.383,179.215 C345.627,178.509 345.129,178.399 344.554,178.186 C344.261,178.077 343.912,178.013 343.621,177.875 C343.376,177.76 343.188,177.602 342.933,177.514 C342.684,177.428 342.437,177.338 342.181,177.313 C341.79,177.273 341.62,177.343 341.291,177.461 C341.212,177.489 341.158,177.503 341.095,177.557 C340.992,177.354 340.676,177.169 340.5,177.039 C340.408,176.971 340.202,176.89 340.13,176.824 C340.018,176.72 339.997,176.644 339.917,176.507" fill="#9FA2A1"/>
      <path d="M345.899,186.889 C346.354,186.764 349.085,185.517 349.444,185.266 C349.857,184.977 352.173,183.708 352.871,183.27 C353.823,182.673 354.657,181.774 355.041,180.727 C355.425,179.679 355.393,178.456 355.306,177.329 C355.271,176.871 355.198,176.414 355.079,175.979 C354.88,175.248 354.341,174.709 353.954,174.073 C353.499,173.325 352.795,172.96 352.165,172.387 C351.739,172 351.083,171.752 350.517,171.676 C349.626,171.557 348.767,171.36 347.891,171.169 C347.32,171.045 346.704,171.121 346.125,171.041 C345.536,170.96 344.939,171.058 344.353,170.979 C343.73,170.896 343.13,170.897 342.497,170.897 C342.016,170.897 339.034,170.767 339.238,171.632 C339.978,171.682 340.742,171.64 341.485,171.638 C342.539,171.636 343.582,172.308 344.627,172.434 C346.642,172.676 346.271,172.803 347.948,173.966 C348.457,174.319 349.323,175.514 349.503,176.128 C349.711,176.837 350.422,181 350.422,181.745 C350.422,182.647 346.106,186.029 345.899,186.889" fill="#3B3A39"/>
      <path d="M413.205,63.151 C412.547,62.893 411.2,62.502 410.776,63.409 C410.653,63.672 410.748,64.159 410.748,64.45 C410.748,65.04 410.635,65.284 411.189,65.589 C411.676,65.857 412.213,66.098 412.641,65.834 C412.842,65.711 413.333,65.405 413.469,65.206 C413.666,64.921 413.612,64.22 413.563,63.902 C413.489,63.436 413.219,63.396 412.982,63.077" fill="#3B3A39"/>
      <path d="M421.693,67.618 C422.289,67.552 422.858,67.964 423.405,68.142 C423.871,68.293 424.224,68.334 424.625,68.597 C425.427,69.123 426.553,69.319 427.475,69.55 C428.142,69.717 428.759,70.087 429.444,70.192 C429.984,70.275 430.5,70.322 431.017,70.443 C431.499,70.556 431.977,70.672 432.467,70.728 C432.993,70.79 433.341,70.969 433.835,71.138 C434.673,71.424 435.646,71.616 436.505,71.783 C437.314,71.941 438.07,72.278 438.892,72.381 C439.428,72.448 439.246,72.43 439.589,72.165 C439.96,71.877 440.276,71.624 440.435,71.171 C440.574,70.77 440.486,70.395 440.525,69.977 C440.547,69.739 440.634,69.586 440.594,69.332 C440.549,69.053 440.335,68.899 440.363,68.59 C439.513,68.553 439.017,68.502 438.686,69.279 C438.492,69.73 438.478,69.869 437.926,69.909 C435.865,70.061 434.082,68.915 432.117,68.419 C431.237,68.197 430.35,68.303 429.48,68.052 C428.526,67.776 427.604,67.363 426.641,67.114 C425.94,66.933 425.401,66.59 424.654,66.516 C423.941,66.445 422.944,66.509 422.293,66.212 C422.363,65.814 421.788,65.212 421.543,64.921 C421.126,64.426 420.449,63.953 419.841,63.752 C419.723,64.437 420.475,64.779 420.647,65.321 C420.76,65.677 420.582,66.021 420.464,66.319 C420.23,66.901 420.46,66.806 421.031,67.044 C421.349,67.177 421.732,67.3 421.99,67.544" fill="#8B8E8D"/>
      <path d="M303.027,153.431 C303.9,152.799 304.625,151.946 305.089,151.051 C305.607,150.052 306.322,149.4 307.135,148.522 C308.714,146.816 309.763,144.961 311.371,143.317 C313.443,141.199 321.993,131.243 322.943,129.801 C326.214,124.831 330.908,120.776 333.978,115.712 C334.77,114.404 335.711,113.261 336.815,112.168 C338.117,110.879 339.198,109.396 340.216,107.847 C340.955,106.721 345.082,101.369 346.528,99.824 C348.037,98.213 349.472,96.48 350.875,94.821 C352.099,93.373 353.461,92.263 354.443,90.616 C356.02,87.969 358.043,85.775 359.963,83.46 C361.606,81.479 363.278,79.584 364.897,77.555 C366.269,75.836 367.202,73.878 368.74,72.343 C369.348,71.736 369.964,71.227 370.551,70.626 C371.115,70.047 371.396,69.384 371.911,68.854 C373.815,66.895 375.588,68.291 377.64,68.939 C380.352,69.795 392.006,72.359 393.298,72.693 C396.611,73.549 408.548,76.962 411.003,77.741 C413.798,78.629 416.772,79.184 419.577,80.072 C422.199,80.902 442.586,85.966 443.873,86.297 C448.515,87.491 463.462,92.283 463.802,92.475 C464.419,92.824 464.124,92.835 464.466,93.411 C465.031,94.357 465.648,94.438 465.254,95.44 C464.779,96.647 459.677,103.065 459.063,104.139 C457.83,106.294 451.174,114.688 450.592,115.799 C450.114,116.711 441.852,127.809 441.255,128.559 C440.708,129.246 435.919,134.81 435.31,135.892 C433.792,138.592 432.224,141.342 430.187,143.664 C429.278,144.701 428.678,145.996 427.686,146.925 C426.483,148.051 425.597,149.275 424.71,150.538 C423.896,151.694 415.349,162.207 413.306,164.844 C411.496,167.181 405.459,177.846 403.558,180.549 C402.762,181.681 402.443,182.539 401.092,182.763 C398.937,183.121 387.902,180.099 386.946,179.865 C385.833,179.593 381.07,177.912 379.792,177.601 C377.876,177.134 347.773,167.986 346.449,167.482 C344.98,166.923 343.496,166.486 342.087,165.807 C340.684,165.131 320.598,159.542 319.79,159.283 C318.867,158.986 309.093,156.58 306.16,155.771 C305.199,155.506 303.94,155.286 303.061,154.813" fill="#B6B8B5"/>
      <g clip-path="url(#Clip_1)" opacity="0.4">
        <path d="M360.512,100.112 C355.929,99.84 349.028,109.458 347.069,111.562 C344.156,114.691 338.732,119.132 337.498,123.567 C336.074,128.682 341.966,127.825 345.444,129.087 C349.736,130.644 376.106,136.833 377.525,138.422 C375.511,140.837 372.952,143.744 370.008,144.431 C365.502,145.482 360.073,144.917 355.402,144.917 C356.867,144.301 361.188,146.668 363.62,146.908 C366.862,147.228 369.405,147.811 372.447,147.904 C376.807,148.037 383.361,145.835 384.094,140.9 C386.597,140.84 397.625,144.634 400.547,145.461 C403.156,146.2 414.4,150.752 417.263,149.905 C420.052,149.08 422.145,143.907 424.223,141.416 C425.861,139.452 431.362,132.349 432.574,130.479 C434.561,127.415 438.682,122.709 435.187,120.025 C430.697,116.577 420.356,115.039 398.323,109.883 C380.494,105.71 364.615,99.59 360.512,100.112" fill="#0A0B09"/>
      </g>
      <path d="M358.97,98.569 C354.387,98.297 347.486,107.914 345.527,110.019 C342.614,113.148 337.19,117.589 335.956,122.024 C334.532,127.139 340.424,126.282 343.902,127.544 C348.194,129.101 374.564,135.29 375.983,136.879 C373.969,139.294 371.41,142.201 368.466,142.888 C363.96,143.939 358.531,143.374 353.86,143.374 C355.325,142.758 359.646,145.125 362.078,145.365 C365.32,145.685 367.863,146.267 370.905,146.361 C375.265,146.494 381.819,144.292 382.552,139.357 C385.055,139.297 396.083,143.091 399.005,143.918 C401.614,144.657 412.858,149.209 415.721,148.362 C418.51,147.537 420.603,142.364 422.681,139.873 C424.319,137.909 429.82,130.806 431.032,128.936 C433.019,125.872 437.14,121.166 433.645,118.482 C429.155,115.034 418.814,113.496 396.781,108.34 C378.952,104.167 363.073,98.047 358.97,98.569" fill="#F3F4F1"/>
      <path d="M363.768,111.475 C363.616,111.667 363.442,111.817 363.245,111.925 C363.049,112.033 362.864,112.093 362.691,112.105 C362.517,112.117 362.373,112.075 362.258,111.98 C362.143,111.885 362.098,111.728 362.122,111.507 C362.138,111.327 362.195,111.152 362.29,110.98 C362.385,110.809 362.483,110.63 362.583,110.443 C362.694,110.239 362.788,110.058 362.863,109.902 C362.939,109.746 363.028,109.565 363.131,109.357 C363.407,108.79 363.67,108.227 363.92,107.669 C364.169,107.111 364.409,106.546 364.637,105.976 C364.184,106.379 363.741,106.781 363.31,107.18 C362.878,107.58 362.443,107.984 362.006,108.393 C361.677,108.693 361.348,108.997 361.02,109.303 C360.692,109.61 360.352,109.899 360.003,110.171 C359.884,110.265 359.745,110.329 359.587,110.362 C359.43,110.395 359.282,110.396 359.146,110.365 C359.01,110.333 358.9,110.276 358.818,110.19 C358.736,110.106 358.704,109.995 358.722,109.86 C358.853,108.999 358.986,108.144 359.12,107.294 C359.253,106.445 359.39,105.591 359.53,104.732 C359.192,105.182 358.858,105.636 358.526,106.093 C358.194,106.551 357.86,107.005 357.522,107.455 C357.421,107.597 357.3,107.772 357.158,107.978 C357.016,108.184 356.867,108.391 356.71,108.598 C356.553,108.805 356.398,109.002 356.244,109.188 C356.09,109.374 355.946,109.512 355.811,109.6 C355.597,109.752 355.393,109.831 355.199,109.836 C355.005,109.842 354.847,109.798 354.725,109.707 C354.603,109.615 354.536,109.483 354.525,109.311 C354.512,109.139 354.58,108.945 354.728,108.73 C354.982,108.363 355.246,108.004 355.519,107.654 C355.793,107.304 356.065,106.947 356.336,106.585 C356.918,105.797 357.5,105.015 358.081,104.238 C358.661,103.461 359.246,102.674 359.834,101.877 C360.001,101.646 360.183,101.442 360.381,101.263 C360.578,101.085 360.817,100.99 361.098,100.979 C361.211,100.97 361.313,100.985 361.405,101.024 C361.498,101.063 361.567,101.123 361.614,101.202 C361.712,101.384 361.741,101.602 361.701,101.856 C361.66,102.11 361.621,102.35 361.583,102.577 C361.529,102.952 361.469,103.327 361.404,103.703 C361.339,104.08 361.275,104.454 361.213,104.826 C361.125,105.298 361.044,105.765 360.969,106.225 C360.894,106.685 360.824,107.15 360.758,107.618 C360.895,107.497 361.028,107.375 361.161,107.253 C361.292,107.131 361.427,107.009 361.563,106.888 C361.804,106.68 362.04,106.467 362.271,106.251 C362.503,106.034 362.735,105.82 362.968,105.609 C363.28,105.336 363.582,105.065 363.876,104.797 C364.169,104.529 364.464,104.256 364.76,103.977 C364.987,103.776 365.221,103.554 365.463,103.314 C365.705,103.073 365.966,102.887 366.245,102.756 C366.447,102.655 366.624,102.611 366.776,102.625 C366.928,102.639 367.047,102.69 367.133,102.776 C367.22,102.862 367.272,102.979 367.29,103.126 C367.308,103.272 367.289,103.429 367.231,103.596 C367.146,103.82 367.052,104.073 366.949,104.357 C366.846,104.64 366.752,104.893 366.667,105.117 C366.513,105.526 366.355,105.925 366.193,106.315 C366.031,106.705 365.861,107.101 365.682,107.502 C365.396,108.163 365.099,108.813 364.792,109.452 C364.486,110.091 364.165,110.734 363.829,111.38 z" fill="#0A0B09"/>
      <path d="M366.148,112.173 C366.015,112.35 365.855,112.493 365.667,112.603 C365.479,112.714 365.302,112.782 365.134,112.806 C364.967,112.831 364.822,112.802 364.698,112.721 C364.574,112.639 364.508,112.5 364.498,112.301 C364.491,112.19 364.509,112.074 364.553,111.952 C364.597,111.829 364.655,111.706 364.725,111.581 C364.795,111.456 364.872,111.333 364.954,111.212 C365.037,111.09 365.11,110.98 365.174,110.88 C365.509,110.342 365.846,109.811 366.187,109.286 C366.528,108.761 366.866,108.229 367.201,107.691 C367.341,107.473 367.469,107.25 367.587,107.019 C367.705,106.79 367.858,106.573 368.047,106.371 C368.192,106.22 368.353,106.101 368.531,106.015 C368.708,105.928 368.875,105.881 369.031,105.875 C369.186,105.869 369.32,105.904 369.431,105.982 C369.543,106.06 369.598,106.19 369.597,106.375 C369.611,106.596 369.562,106.796 369.449,106.973 C369.335,107.149 369.197,107.365 369.035,107.619 C368.837,107.928 368.639,108.236 368.442,108.545 C368.244,108.853 368.054,109.158 367.87,109.46 C367.599,109.899 367.325,110.335 367.046,110.771 C366.767,111.206 366.488,111.642 366.209,112.078 z M369.491,103.931 C369.739,103.606 370.001,103.39 370.278,103.285 C370.555,103.181 370.791,103.161 370.984,103.225 C371.176,103.29 371.304,103.43 371.367,103.644 C371.43,103.859 371.369,104.117 371.186,104.419 C371.005,104.733 370.781,104.949 370.514,105.068 C370.247,105.187 370.005,105.227 369.786,105.187 C369.568,105.147 369.415,105.026 369.329,104.826 C369.242,104.626 369.28,104.361 369.442,104.03 z" fill="#0A0B09"/>
      <path d="M371.413,112.211 C371.71,112.129 371.944,112.125 372.116,112.199 C372.289,112.274 372.394,112.39 372.434,112.549 C372.474,112.708 372.435,112.892 372.316,113.099 C372.198,113.307 371.996,113.504 371.712,113.688 C371.524,113.814 371.305,113.916 371.057,113.991 C370.808,114.067 370.583,114.117 370.382,114.142 C369.906,114.213 369.491,114.183 369.135,114.052 C368.779,113.921 368.502,113.717 368.305,113.439 C368.106,113.161 367.996,112.826 367.974,112.433 C367.952,112.041 368.036,111.619 368.228,111.167 C368.587,110.301 369.123,109.526 369.834,108.843 C370.098,108.598 370.374,108.368 370.664,108.153 C370.953,107.938 371.254,107.754 371.567,107.6 C371.88,107.446 372.198,107.324 372.52,107.233 C372.842,107.142 373.151,107.109 373.447,107.135 C373.65,107.154 373.877,107.226 374.128,107.352 C374.38,107.478 374.6,107.641 374.79,107.841 C374.98,108.04 375.114,108.266 375.191,108.518 C375.269,108.77 375.237,109.031 375.092,109.302 C375.016,109.452 374.914,109.581 374.786,109.688 C374.659,109.796 374.524,109.876 374.382,109.931 C374.24,109.985 374.099,110.01 373.961,110.005 C373.822,110 373.704,109.961 373.604,109.887 C373.486,109.797 373.409,109.7 373.373,109.596 C373.336,109.493 373.29,109.356 373.233,109.186 C373.179,109.148 373.136,109.1 373.106,109.041 C373.074,108.983 373.023,108.948 372.952,108.937 L372.596,108.877 C372.515,108.896 372.442,108.911 372.375,108.923 C372.309,108.935 372.243,108.947 372.176,108.96 C371.701,109.183 371.277,109.463 370.906,109.799 C370.534,110.136 370.242,110.532 370.028,110.987 C369.889,111.281 369.82,111.537 369.822,111.755 C369.824,111.973 369.884,112.14 369.999,112.257 C370.114,112.374 370.286,112.435 370.512,112.439 C370.739,112.444 371.007,112.38 371.317,112.247 z" fill="#0A0B09"/>
      <path d="M373.83,115.324 C373.582,115.405 373.374,115.414 373.204,115.352 C373.035,115.289 372.931,115.162 372.892,114.971 C372.853,114.779 372.918,114.552 373.086,114.289 L377.932,106.721 C378.066,106.512 378.253,106.358 378.493,106.258 C378.733,106.158 378.953,106.117 379.157,106.136 C379.359,106.155 379.506,106.238 379.598,106.386 C379.688,106.533 379.655,106.745 379.497,107.023 C379.227,107.505 378.947,107.969 378.655,108.417 C378.364,108.865 378.068,109.315 377.77,109.766 C378.217,109.632 378.628,109.577 379.004,109.6 C379.38,109.623 379.693,109.722 379.943,109.896 C380.192,110.071 380.369,110.321 380.474,110.646 C380.578,110.971 380.572,111.377 380.457,111.862 C380.385,112.188 380.263,112.522 380.092,112.866 C379.921,113.21 379.728,113.553 379.515,113.894 C379.301,114.236 379.08,114.573 378.853,114.904 C378.626,115.237 378.416,115.552 378.224,115.852 C378.102,116.042 377.947,116.201 377.759,116.327 C377.57,116.454 377.386,116.533 377.204,116.564 C377.023,116.596 376.865,116.574 376.732,116.501 C376.598,116.427 376.526,116.285 376.514,116.075 C376.507,115.856 376.569,115.62 376.697,115.366 C376.825,115.112 376.984,114.849 377.174,114.576 C377.363,114.303 377.563,114.025 377.773,113.742 C377.984,113.459 378.168,113.182 378.328,112.911 C378.487,112.639 378.598,112.377 378.662,112.125 C378.726,111.874 378.702,111.643 378.591,111.436 C378.445,111.358 378.291,111.325 378.128,111.334 C377.966,111.344 377.799,111.382 377.629,111.45 C377.459,111.517 377.287,111.6 377.112,111.698 C376.936,111.796 376.759,111.894 376.58,111.991 C376.526,112.028 376.47,112.063 376.411,112.094 C376.353,112.124 376.288,112.156 376.218,112.189 L374.562,114.775 C374.322,115.06 374.078,115.242 373.83,115.324" fill="#0A0B09"/>
      <path d="M383.605,113.009 C383.342,113.069 383.108,113.174 382.906,113.323 C382.702,113.473 382.479,113.7 382.234,114.005 C382.493,113.998 382.781,113.994 383.099,113.994 C383.417,113.994 383.722,113.984 384.017,113.966 C384.312,113.949 384.576,113.91 384.809,113.851 C385.042,113.793 385.199,113.7 385.281,113.573 C385.327,113.5 385.362,113.427 385.385,113.352 C385.408,113.278 385.396,113.217 385.348,113.17 C385.177,113.009 384.953,112.918 384.673,112.897 C384.393,112.876 384.14,112.891 383.913,112.94 z M384.579,116.11 C384.809,116.116 384.984,116.167 385.104,116.263 C385.223,116.359 385.285,116.479 385.291,116.622 C385.297,116.765 385.241,116.922 385.122,117.091 C385.004,117.262 384.818,117.422 384.566,117.572 C384.361,117.694 384.13,117.78 383.872,117.831 C383.615,117.882 383.384,117.915 383.18,117.928 C382.676,117.969 382.223,117.965 381.824,117.919 C381.424,117.871 381.087,117.768 380.814,117.608 C380.54,117.448 380.331,117.226 380.185,116.943 C380.039,116.659 379.964,116.299 379.96,115.864 C379.954,115.569 380.012,115.253 380.135,114.915 C380.258,114.579 380.42,114.246 380.621,113.917 C380.822,113.587 381.053,113.273 381.313,112.973 C381.574,112.673 381.838,112.412 382.107,112.19 C382.449,111.915 382.856,111.693 383.326,111.522 C383.796,111.352 384.265,111.246 384.731,111.205 C385.197,111.163 385.629,111.19 386.027,111.285 C386.425,111.381 386.722,111.551 386.917,111.795 C387.08,111.997 387.173,112.245 387.194,112.54 C387.216,112.834 387.169,113.132 387.055,113.434 C386.94,113.735 386.764,114.02 386.528,114.29 C386.292,114.559 385.992,114.78 385.629,114.95 C385.279,115.115 384.937,115.229 384.603,115.295 C384.268,115.36 383.936,115.405 383.608,115.429 C383.28,115.453 382.956,115.46 382.636,115.448 C382.316,115.437 382.001,115.437 381.69,115.45 C381.722,115.721 381.829,115.92 382.012,116.046 C382.194,116.173 382.418,116.255 382.682,116.293 C382.946,116.33 383.236,116.33 383.554,116.292 C383.872,116.254 384.18,116.199 384.479,116.128 z" fill="#0A0B09"/>
      <path d="M387.415,118.154 C387.447,118.273 387.448,118.411 387.419,118.571 C387.391,118.73 387.333,118.881 387.247,119.023 C387.161,119.165 387.048,119.288 386.909,119.391 C386.769,119.495 386.601,119.555 386.406,119.571 C386.254,119.578 386.114,119.546 385.984,119.474 C385.855,119.401 385.745,119.302 385.654,119.177 C385.564,119.051 385.5,118.915 385.462,118.767 C385.425,118.62 385.425,118.471 385.463,118.32 C385.475,118.269 385.497,118.214 385.527,118.152 C385.556,118.091 385.585,118.037 385.615,117.992 L390.452,110.437 C390.586,110.228 390.77,110.074 391.006,109.972 C391.242,109.871 391.454,109.833 391.643,109.858 C391.73,109.875 391.809,109.915 391.88,109.98 C391.951,110.045 392.005,110.124 392.043,110.217 C392.081,110.311 392.097,110.411 392.093,110.518 C392.087,110.625 392.053,110.728 391.989,110.828 C391.838,111.064 391.637,111.377 391.387,111.767 C391.138,112.157 390.867,112.585 390.575,113.049 C390.282,113.513 389.978,113.992 389.661,114.486 C389.344,114.981 389.038,115.455 388.744,115.907 C388.449,116.36 388.182,116.774 387.94,117.151 C387.699,117.527 387.502,117.828 387.349,118.052 z" fill="#0A0B09"/>
      <path d="M390.819,119.2 C390.851,119.318 390.852,119.457 390.823,119.617 C390.794,119.776 390.737,119.927 390.651,120.069 C390.565,120.211 390.452,120.333 390.313,120.437 C390.173,120.541 390.005,120.601 389.81,120.617 C389.658,120.624 389.517,120.592 389.388,120.52 C389.258,120.447 389.149,120.348 389.058,120.223 C388.967,120.097 388.903,119.961 388.866,119.813 C388.828,119.666 388.829,119.517 388.867,119.366 C388.879,119.315 388.9,119.26 388.93,119.198 C388.96,119.137 388.989,119.083 389.018,119.038 L393.855,111.483 C393.989,111.274 394.174,111.12 394.41,111.018 C394.645,110.917 394.858,110.879 395.047,110.904 C395.134,110.921 395.213,110.961 395.284,111.026 C395.354,111.091 395.409,111.17 395.447,111.263 C395.485,111.357 395.501,111.457 395.496,111.564 C395.491,111.671 395.457,111.774 395.393,111.874 C395.242,112.11 395.041,112.423 394.791,112.813 C394.542,113.203 394.27,113.631 393.978,114.095 C393.686,114.559 393.382,115.038 393.065,115.532 C392.748,116.027 392.442,116.501 392.148,116.953 C391.853,117.405 391.586,117.82 391.344,118.197 C391.103,118.573 390.906,118.874 390.752,119.098 z" fill="#0A0B09"/>
      <path d="M396.043,116.831 C395.78,116.891 395.547,116.996 395.344,117.145 C395.14,117.295 394.917,117.522 394.672,117.827 C394.931,117.819 395.22,117.816 395.537,117.816 C395.855,117.815 396.161,117.806 396.455,117.788 C396.75,117.771 397.014,117.732 397.247,117.673 C397.48,117.615 397.637,117.522 397.719,117.395 C397.765,117.322 397.8,117.249 397.823,117.174 C397.846,117.1 397.834,117.039 397.786,116.992 C397.615,116.831 397.39,116.74 397.111,116.719 C396.831,116.698 396.578,116.713 396.351,116.762 z M397.017,119.932 C397.248,119.938 397.422,119.989 397.542,120.085 C397.661,120.181 397.723,120.301 397.729,120.444 C397.735,120.587 397.679,120.744 397.561,120.913 C397.442,121.084 397.256,121.244 397.004,121.394 C396.799,121.516 396.568,121.602 396.31,121.653 C396.053,121.704 395.822,121.737 395.618,121.75 C395.114,121.791 394.661,121.787 394.262,121.741 C393.862,121.693 393.525,121.59 393.252,121.43 C392.978,121.27 392.769,121.048 392.623,120.765 C392.477,120.481 392.403,120.121 392.398,119.686 C392.392,119.39 392.45,119.075 392.573,118.737 C392.696,118.401 392.858,118.068 393.059,117.739 C393.26,117.409 393.491,117.095 393.752,116.795 C394.012,116.495 394.276,116.234 394.545,116.012 C394.887,115.737 395.294,115.515 395.764,115.345 C396.234,115.174 396.703,115.068 397.169,115.027 C397.635,114.985 398.067,115.012 398.465,115.107 C398.863,115.202 399.16,115.373 399.355,115.617 C399.519,115.819 399.611,116.067 399.633,116.362 C399.654,116.656 399.607,116.954 399.492,117.256 C399.378,117.557 399.202,117.842 398.966,118.112 C398.73,118.381 398.43,118.602 398.067,118.772 C397.718,118.936 397.376,119.051 397.041,119.117 C396.706,119.182 396.374,119.227 396.047,119.251 C395.718,119.275 395.394,119.282 395.075,119.27 C394.754,119.259 394.439,119.259 394.128,119.272 C394.16,119.543 394.267,119.742 394.45,119.868 C394.633,119.995 394.856,120.077 395.12,120.115 C395.384,120.152 395.675,120.152 395.992,120.114 C396.309,120.076 396.618,120.021 396.918,119.95 z" fill="#0A0B09"/>
      <path d="M403.99,123.8 C403.857,123.977 403.697,124.12 403.509,124.231 C403.321,124.341 403.144,124.409 402.976,124.434 C402.809,124.458 402.663,124.43 402.54,124.348 C402.416,124.267 402.35,124.127 402.34,123.928 C402.333,123.818 402.351,123.701 402.395,123.579 C402.439,123.457 402.497,123.333 402.567,123.208 C402.637,123.083 402.714,122.96 402.796,122.839 C402.879,122.717 402.952,122.607 403.016,122.507 C403.35,121.969 403.688,121.438 404.029,120.913 C404.37,120.388 404.708,119.856 405.043,119.318 C405.183,119.1 405.311,118.877 405.429,118.647 C405.547,118.417 405.7,118.201 405.889,117.998 C406.034,117.847 406.195,117.728 406.373,117.642 C406.55,117.555 406.717,117.509 406.873,117.502 C407.028,117.496 407.162,117.531 407.273,117.609 C407.385,117.687 407.44,117.818 407.439,118.002 C407.453,118.224 407.404,118.423 407.291,118.6 C407.178,118.777 407.039,118.992 406.877,119.246 C406.679,119.555 406.482,119.863 406.284,120.172 C406.087,120.481 405.896,120.786 405.712,121.088 C405.441,121.526 405.167,121.963 404.888,122.398 C404.609,122.834 404.33,123.269 404.051,123.705 z M407.333,115.559 C407.581,115.233 407.843,115.018 408.121,114.913 C408.398,114.808 408.633,114.788 408.826,114.852 C409.019,114.917 409.147,115.057 409.209,115.272 C409.272,115.486 409.211,115.745 409.028,116.047 C408.847,116.36 408.623,116.577 408.356,116.695 C408.089,116.815 407.847,116.854 407.628,116.814 C407.41,116.774 407.257,116.654 407.171,116.454 C407.084,116.253 407.122,115.988 407.285,115.658 z" fill="#0A0B09"/>
      <path d="M405.395,123.597 C405.445,123.428 405.521,123.27 405.626,123.122 C405.73,122.975 405.852,122.85 405.991,122.746 C406.131,122.642 406.28,122.574 406.437,122.541 C406.595,122.508 406.75,122.526 406.902,122.594 C406.986,122.631 407.05,122.683 407.094,122.751 C407.138,122.819 407.171,122.894 407.191,122.976 C407.212,123.059 407.23,123.146 407.245,123.237 C407.259,123.328 407.282,123.411 407.312,123.486 C407.375,123.647 407.467,123.778 407.588,123.88 C407.708,123.982 407.844,124.073 407.998,124.153 C408.113,124.188 408.225,124.184 408.335,124.142 C408.445,124.1 408.541,124.037 408.624,123.954 C408.706,123.871 408.775,123.775 408.83,123.667 C408.884,123.559 408.907,123.465 408.899,123.387 C408.859,123.19 408.754,123.038 408.583,122.931 C408.412,122.824 408.262,122.713 408.13,122.597 C407.943,122.431 407.777,122.241 407.631,122.028 C407.484,121.814 407.415,121.563 407.425,121.273 C407.433,120.971 407.514,120.673 407.668,120.378 C407.823,120.083 408.022,119.811 408.266,119.56 C408.509,119.309 408.786,119.095 409.094,118.918 C409.402,118.742 409.717,118.616 410.039,118.541 C410.28,118.485 410.513,118.472 410.737,118.503 C410.962,118.534 411.172,118.59 411.368,118.672 C411.565,118.754 411.744,118.861 411.904,118.992 C412.064,119.122 412.204,119.255 412.323,119.389 C412.455,119.549 412.512,119.735 412.494,119.947 C412.476,120.158 412.405,120.357 412.282,120.541 C412.158,120.726 411.998,120.869 411.801,120.972 C411.603,121.074 411.399,121.093 411.186,121.027 C411.056,120.987 410.954,120.926 410.88,120.844 C410.805,120.761 410.726,120.68 410.641,120.599 C410.534,120.49 410.403,120.398 410.246,120.323 C410.089,120.248 409.943,120.216 409.808,120.229 C409.769,120.228 409.714,120.246 409.641,120.284 C409.568,120.321 409.498,120.373 409.432,120.439 C409.365,120.506 409.314,120.577 409.28,120.653 C409.245,120.73 409.25,120.802 409.295,120.87 C409.415,121.048 409.565,121.203 409.745,121.334 C409.925,121.465 410.094,121.604 410.255,121.751 C410.414,121.898 410.545,122.063 410.648,122.246 C410.75,122.43 410.787,122.658 410.758,122.932 C410.717,123.332 410.578,123.721 410.341,124.099 C410.104,124.477 409.811,124.807 409.463,125.091 C409.115,125.375 408.733,125.592 408.315,125.741 C407.898,125.889 407.495,125.931 407.107,125.866 C406.836,125.816 406.598,125.723 406.39,125.589 C406.183,125.455 406.008,125.287 405.863,125.085 C405.719,124.883 405.607,124.662 405.527,124.42 C405.448,124.178 405.399,123.935 405.379,123.69 z" fill="#0A0B09"/>
      <path d="M346.695,121.32 C346.745,121.151 346.822,120.992 346.926,120.845 C347.03,120.698 347.152,120.572 347.292,120.469 C347.431,120.365 347.58,120.296 347.738,120.264 C347.895,120.231 348.05,120.248 348.202,120.317 C348.286,120.353 348.35,120.406 348.395,120.473 C348.439,120.541 348.471,120.617 348.492,120.699 C348.512,120.781 348.53,120.868 348.545,120.959 C348.559,121.051 348.582,121.134 348.612,121.208 C348.675,121.369 348.767,121.5 348.888,121.602 C349.008,121.705 349.145,121.796 349.299,121.876 C349.413,121.911 349.525,121.907 349.635,121.865 C349.745,121.823 349.842,121.76 349.924,121.677 C350.007,121.594 350.076,121.498 350.13,121.39 C350.184,121.281 350.208,121.188 350.199,121.11 C350.16,120.913 350.054,120.761 349.883,120.654 C349.712,120.547 349.562,120.436 349.431,120.32 C349.244,120.154 349.077,119.964 348.931,119.75 C348.784,119.537 348.716,119.286 348.726,118.995 C348.733,118.694 348.815,118.395 348.969,118.101 C349.123,117.806 349.322,117.533 349.566,117.282 C349.809,117.032 350.086,116.818 350.394,116.641 C350.703,116.465 351.018,116.339 351.339,116.263 C351.58,116.207 351.813,116.195 352.038,116.226 C352.262,116.257 352.472,116.313 352.669,116.395 C352.865,116.477 353.044,116.584 353.204,116.714 C353.365,116.845 353.504,116.978 353.624,117.112 C353.755,117.272 353.813,117.458 353.794,117.669 C353.776,117.881 353.705,118.079 353.582,118.264 C353.459,118.449 353.299,118.592 353.101,118.695 C352.904,118.797 352.699,118.815 352.487,118.75 C352.356,118.71 352.254,118.649 352.18,118.566 C352.105,118.483 352.026,118.402 351.941,118.322 C351.834,118.213 351.703,118.121 351.546,118.046 C351.389,117.97 351.243,117.939 351.108,117.952 C351.069,117.951 351.014,117.969 350.941,118.006 C350.868,118.044 350.799,118.095 350.732,118.162 C350.665,118.228 350.614,118.299 350.58,118.376 C350.546,118.452 350.551,118.524 350.595,118.592 C350.716,118.771 350.866,118.925 351.045,119.057 C351.225,119.187 351.395,119.326 351.555,119.473 C351.715,119.62 351.846,119.786 351.948,119.969 C352.05,120.153 352.087,120.381 352.059,120.654 C352.017,121.055 351.878,121.444 351.641,121.821 C351.404,122.199 351.111,122.53 350.764,122.814 C350.416,123.098 350.033,123.315 349.615,123.463 C349.198,123.612 348.795,123.653 348.407,123.589 C348.137,123.538 347.898,123.446 347.691,123.312 C347.484,123.178 347.308,123.009 347.163,122.808 C347.019,122.606 346.907,122.384 346.828,122.142 C346.748,121.901 346.699,121.658 346.68,121.413 z" fill="#0A0B09"/>
      <path d="M357.381,124.424 C357.379,124.565 357.333,124.716 357.244,124.879 C357.155,125.041 357.042,125.186 356.907,125.313 C356.772,125.44 356.625,125.533 356.465,125.592 C356.305,125.651 356.146,125.651 355.988,125.593 C355.788,125.509 355.669,125.375 355.631,125.19 C355.593,125.004 355.576,124.803 355.578,124.586 C355.073,124.779 354.615,124.88 354.204,124.89 C353.793,124.899 353.444,124.822 353.158,124.658 C352.873,124.494 352.664,124.248 352.532,123.92 C352.4,123.592 352.368,123.193 352.433,122.724 C352.498,122.288 352.667,121.836 352.944,121.366 C353.22,120.897 353.495,120.455 353.771,120.04 C353.864,119.896 353.959,119.754 354.057,119.616 C354.156,119.478 354.258,119.333 354.365,119.181 C354.449,119.065 354.527,118.951 354.6,118.837 C354.672,118.724 354.747,118.619 354.823,118.523 C354.899,118.427 354.988,118.335 355.088,118.246 C355.189,118.158 355.305,118.079 355.436,118.011 C355.61,117.923 355.773,117.889 355.927,117.909 C356.08,117.929 356.202,117.986 356.294,118.079 C356.385,118.172 356.442,118.29 356.463,118.432 C356.484,118.575 356.447,118.729 356.351,118.895 C356.071,119.362 355.761,119.827 355.423,120.287 C355.083,120.748 354.789,121.211 354.539,121.677 C354.416,121.9 354.325,122.138 354.265,122.391 C354.206,122.645 354.237,122.85 354.362,123.008 C354.491,123.156 354.685,123.207 354.944,123.162 C355.202,123.117 355.439,123.04 355.655,122.933 C355.759,122.877 355.864,122.815 355.973,122.745 C356.081,122.675 356.188,122.619 356.294,122.575 C356.465,122.248 356.648,121.923 356.843,121.603 C357.038,121.284 357.242,120.966 357.453,120.651 C357.563,120.478 357.69,120.292 357.833,120.091 C357.976,119.891 358.133,119.706 358.306,119.536 C358.478,119.367 358.662,119.228 358.858,119.12 C359.054,119.012 359.262,118.969 359.481,118.993 C359.583,119.003 359.665,119.039 359.727,119.101 C359.789,119.164 359.833,119.237 359.858,119.321 C359.902,119.465 359.901,119.611 359.855,119.76 C359.809,119.908 359.736,120.06 359.637,120.214 C359.538,120.368 359.428,120.522 359.306,120.674 C359.184,120.827 359.075,120.97 358.98,121.104 C358.801,121.353 358.617,121.617 358.429,121.895 C358.241,122.174 358.069,122.458 357.913,122.747 C357.757,123.036 357.63,123.322 357.531,123.607 C357.431,123.891 357.382,124.164 357.381,124.424" fill="#0A0B09"/>
      <path d="M361.928,125.056 C362.225,124.974 362.459,124.97 362.632,125.044 C362.804,125.119 362.91,125.235 362.949,125.394 C362.989,125.553 362.95,125.737 362.832,125.944 C362.713,126.152 362.512,126.349 362.227,126.533 C362.039,126.659 361.821,126.761 361.572,126.836 C361.323,126.912 361.098,126.962 360.897,126.987 C360.421,127.058 360.006,127.028 359.65,126.897 C359.295,126.766 359.018,126.562 358.82,126.284 C358.621,126.006 358.511,125.67 358.489,125.278 C358.467,124.886 358.552,124.464 358.743,124.012 C359.103,123.145 359.638,122.371 360.349,121.688 C360.613,121.443 360.889,121.213 361.179,120.998 C361.468,120.783 361.769,120.598 362.082,120.445 C362.396,120.291 362.713,120.169 363.035,120.078 C363.357,119.987 363.666,119.954 363.962,119.98 C364.165,119.999 364.392,120.071 364.644,120.197 C364.895,120.323 365.115,120.486 365.305,120.685 C365.495,120.885 365.629,121.111 365.707,121.363 C365.784,121.615 365.752,121.876 365.608,122.147 C365.531,122.297 365.429,122.426 365.302,122.533 C365.174,122.641 365.039,122.721 364.898,122.775 C364.755,122.83 364.615,122.854 364.476,122.85 C364.338,122.845 364.218,122.806 364.119,122.732 C364.001,122.642 363.925,122.545 363.888,122.441 C363.852,122.338 363.805,122.201 363.748,122.031 C363.694,121.993 363.651,121.945 363.621,121.886 C363.589,121.828 363.539,121.794 363.467,121.783 L363.111,121.722 C363.03,121.741 362.957,121.756 362.89,121.768 C362.824,121.78 362.758,121.792 362.691,121.805 C362.216,122.028 361.793,122.308 361.421,122.644 C361.049,122.981 360.757,123.377 360.543,123.832 C360.404,124.126 360.335,124.382 360.338,124.6 C360.339,124.818 360.399,124.985 360.514,125.102 C360.629,125.219 360.801,125.28 361.027,125.284 C361.254,125.289 361.522,125.225 361.832,125.092 z" fill="#0A0B09"/>
      <path d="M364.345,128.168 C364.097,128.249 363.889,128.259 363.719,128.196 C363.55,128.133 363.446,128.006 363.407,127.815 C363.368,127.624 363.432,127.397 363.601,127.133 L368.447,119.565 C368.581,119.356 368.768,119.202 369.007,119.102 C369.247,119.002 369.468,118.961 369.671,118.98 C369.874,118.999 370.021,119.082 370.112,119.23 C370.203,119.377 370.17,119.589 370.012,119.867 C369.742,120.349 369.462,120.814 369.17,121.261 C368.878,121.709 368.583,122.159 368.284,122.61 C368.732,122.476 369.143,122.421 369.519,122.444 C369.895,122.467 370.208,122.566 370.458,122.74 C370.707,122.915 370.884,123.164 370.989,123.49 C371.093,123.815 371.087,124.221 370.972,124.706 C370.9,125.032 370.778,125.366 370.607,125.71 C370.436,126.054 370.243,126.397 370.029,126.738 C369.816,127.08 369.595,127.417 369.368,127.748 C369.14,128.081 368.931,128.396 368.739,128.696 C368.617,128.886 368.462,129.045 368.273,129.172 C368.085,129.298 367.9,129.377 367.719,129.408 C367.538,129.44 367.38,129.418 367.247,129.345 C367.113,129.271 367.04,129.129 367.029,128.919 C367.022,128.7 367.083,128.464 367.212,128.21 C367.34,127.956 367.499,127.693 367.689,127.42 C367.878,127.147 368.078,126.869 368.288,126.586 C368.499,126.303 368.683,126.026 368.843,125.755 C369.002,125.483 369.113,125.221 369.177,124.969 C369.24,124.718 369.216,124.487 369.105,124.28 C368.959,124.202 368.806,124.169 368.643,124.179 C368.481,124.188 368.314,124.227 368.144,124.294 C367.974,124.361 367.802,124.444 367.627,124.542 C367.451,124.64 367.274,124.738 367.095,124.834 C367.041,124.873 366.985,124.907 366.926,124.938 C366.867,124.968 366.803,125 366.733,125.033 L365.077,127.619 C364.836,127.904 364.592,128.087 364.345,128.168" fill="#0A0B09"/>
      <path d="M377.603,130.458 C377.734,130.422 377.88,130.383 378.044,130.341 C378.208,130.299 378.366,130.242 378.52,130.17 C378.755,129.666 379.02,129.172 379.316,128.687 C379.611,128.203 379.924,127.718 380.255,127.233 C379.84,127.193 379.397,127.268 378.923,127.459 C378.449,127.65 378.033,127.918 377.674,128.264 C377.526,128.404 377.384,128.55 377.247,128.703 C377.11,128.856 376.996,129.012 376.905,129.168 C376.78,129.38 376.717,129.569 376.717,129.737 C376.716,129.906 376.756,130.046 376.836,130.157 C376.916,130.269 377.024,130.351 377.162,130.404 C377.298,130.457 377.446,130.475 377.603,130.458 M379.806,131.868 C379.703,132.151 379.551,132.365 379.351,132.51 C379.151,132.655 378.952,132.732 378.755,132.742 C378.559,132.752 378.39,132.692 378.248,132.562 C378.107,132.432 378.037,132.236 378.038,131.976 C377.687,132.097 377.379,132.162 377.113,132.173 C376.848,132.183 376.573,132.151 376.29,132.074 C375.862,131.964 375.524,131.798 375.276,131.575 C375.028,131.353 374.87,131.084 374.802,130.77 C374.735,130.456 374.766,130.099 374.895,129.699 C375.024,129.299 375.259,128.864 375.6,128.393 C375.744,128.198 375.899,128.012 376.066,127.836 C376.233,127.659 376.403,127.488 376.577,127.324 C376.77,127.145 376.998,126.96 377.262,126.769 C377.525,126.579 377.771,126.421 377.998,126.295 C378.822,125.832 379.649,125.57 380.479,125.51 C380.622,125.499 380.803,125.506 381.022,125.53 C381.241,125.554 381.449,125.599 381.647,125.665 C381.843,125.731 382.016,125.819 382.165,125.93 C382.314,126.041 382.39,126.178 382.392,126.342 C382.396,126.474 382.388,126.585 382.369,126.677 C382.349,126.768 382.312,126.861 382.258,126.952 C382.204,127.044 382.142,127.142 382.07,127.245 C381.999,127.348 381.915,127.477 381.816,127.631 C381.653,127.885 381.493,128.132 381.335,128.371 C381.177,128.61 381.023,128.854 380.875,129.101 C380.822,129.183 380.754,129.289 380.67,129.421 C380.585,129.553 380.501,129.692 380.416,129.84 C380.331,129.988 380.253,130.129 380.181,130.265 C380.109,130.4 380.059,130.512 380.031,130.601 z" fill="#0A0B09"/>
      <path d="M364.557,80.768 C361.558,84.629 372.131,71.318 372.438,69.99 C373.56,69.882 374.817,69.861 375.96,69.939 C377.889,70.07 388.199,73.334 389.419,73.676 C393.1,74.709 397.038,76.106 400.972,76.483 C402.534,76.632 404.232,77.284 405.678,77.746 C407.505,78.329 415.491,80.219 416.486,80.577 C418.158,81.179 425.138,83.076 426.893,83.556 C428.91,84.107 444.84,89.027 446.605,89.433 C448.598,89.892 458.171,92.638 460.812,93.408 C462.178,93.807 461.914,94.28 461.716,96.141 C461.589,97.33 458.017,104.377 455.253,105.089 C454.16,105.37 449.483,104.387 448.331,104.182 C446.773,103.905 423.505,95.683 419.129,94.719 C416.916,94.231 395.859,87.945 391.571,87.275 C387.222,86.595 364.557,81.894 364.557,80.768" fill="#8B8E8D"/>
      <path d="M306.281,154.208 C307.069,154.208 338.595,163.368 341.551,164.563 C346.663,166.628 352.291,167.92 357.548,169.213 C362.657,170.469 382.904,176.657 387.887,178.245 C391.354,179.35 394.725,180.408 398.299,180.643 C400.24,180.771 404.03,178.893 403.06,176.236 C403.106,176.058 403.103,175.881 403.049,175.707 C400.339,174.875 386.503,171.733 382.225,170.913 C376.726,169.857 345.17,160.798 340.471,159.268 C334.977,157.48 329.651,155.842 324.216,153.882 C321.545,152.918 318.581,152.703 316.145,151.61 C314.269,150.768 311.248,148.823 309.006,149.555 C309.161,152.598 305.849,151.111 306.326,154.461 C306.502,154.541 306.686,154.556 306.877,154.506" fill="#9FA2A1"/>
    </g>
  </g>
</svg>
