<?xml version="1.0" encoding="UTF-8"?>
<!DOCTYPE svg PUBLIC "-//W3C//DTD SVG 1.1//EN" "http://www.w3.org/Graphics/SVG/1.1/DTD/svg11.dtd">
<svg version="1.1" xmlns="http://www.w3.org/2000/svg" xmlns:xlink="http://www.w3.org/1999/xlink" x="0" y="0" width="209.406" height="377.705" viewBox="0, 0, 209.406, 377.705">
  <g id="Layer_1" transform="translate(-295.381, -211.085)">
    <g>
      <path d="M325.14,403.429 C335.911,397.039 348.649,392.95 359.914,387.765 C368.144,383.979 379.51,384.746 386.914,379.309 C394.319,373.871 389.559,371.639 384.354,365.821 C377.772,358.462 371.465,350.957 367.784,342.073 C365.639,336.897 365.554,330.32 364.946,323.888 C364.239,316.411 361.082,308.915 360.932,301.666 C360.619,286.699 374.791,276.852 386.297,275.867 C400.869,274.621 415.692,272.475 426.176,286.321 C430.726,292.328 433.125,302.056 435.702,309.394 C437.751,315.235 441.074,320.259 442.316,326.314 C445.734,342.986 440.461,353.633 433.221,366.667 C430.095,372.294 428.489,379.212 425.116,384.214 C420.649,390.833 413.356,397.216 408.621,402.551 C390.396,423.092 371.685,445.975 368.536,475.95 C377.672,476.567 386.164,474.952 395.129,477.752 C400.11,479.309 405.553,481.143 411.043,482.207 C412.624,476.565 410.107,469.93 411.678,463.863 C413.264,457.731 418.608,448.586 422.068,443.349 C426.474,436.68 434.075,432.236 439.254,425.952 C441.768,422.901 443.52,418.803 446.151,415.891 C446.726,415.251 447.869,414.903 448.355,414.335 C448.891,413.707 451.455,409.968 451.522,409.91 C457.509,404.789 461.753,402.381 466.481,395.598 C470.901,389.257 475.292,384.847 480.956,379.747 C492.307,369.529 499.371,357.207 501.68,340.317 C502.734,332.599 503.264,324.984 503.26,317.139 C503.256,308.719 505.382,301.541 504.624,292.668 C503.965,284.958 504.625,275.123 502.348,267.857 C500.022,260.441 494.176,257.379 489.172,252.688 C477.659,241.891 469.365,229.448 453.977,228.781 C435.526,227.98 416.677,229.607 398.132,231.122 C388.466,231.912 381.1,232.138 372.717,237.259 C364.416,242.328 356.351,248.742 347.883,253.433 C331.416,262.557 319.803,275.98 312.17,295.68 C305.256,313.522 301.726,330.517 304.289,350.982 C305.875,363.655 310.713,376.433 314.896,388.379 C317.643,396.217 319.176,401.925 327.432,404.492" fill="#4D4D4D"/>
      <path d="M347.864,491.395 C361.085,488.12 378.609,498.959 391.766,501.768 C396.221,502.719 400.767,502.131 405.028,502.875 C406.806,503.186 406.406,505.012 408.515,505.254 C412.121,505.669 415.536,503.573 418.742,505.502 C413.594,514.448 409.574,519.442 408.957,529.896 C408.869,531.392 407.881,535.096 407.914,538.106 C407.961,542.35 407.704,546.006 407.5,550.215 C407.093,558.562 408.307,566.043 406.724,574.166 C405.692,579.463 402.94,584.185 403.341,588.791 C396.084,578.683 380.887,574.147 370.553,570.249 C363.226,567.484 352.5,560.213 344.944,561.486 C342.533,557.192 344.489,552.494 345.289,547.815 C346.881,538.489 348.05,529.315 348.252,519.831 C348.472,509.444 349.045,498.049 347.403,487.785 C346.721,487.563 346.042,487.583 345.369,487.846" fill="#4D4D4D"/>
      <path d="M315.854,388.028 C309.686,386.255 307.828,378.471 306.876,372.592 C306.346,369.305 307.127,364.786 305.876,361.706 C304.38,358.017 301.051,355.326 299.884,351.535 C296.375,340.129 295.715,325.358 295.404,313.16 C294.504,278.086 320.162,250.558 343.842,234.444 C352.068,228.847 361.225,224.446 369.951,219.668 C379.839,214.251 388.329,211.421 399.544,211.1 C407.979,210.859 415.935,213.545 424.238,214.075 C431.375,214.531 437.119,214.482 444.037,216.521 C456.333,220.144 471.188,228.808 477.91,239.773 C484.321,250.231 488.359,261.779 491.589,272.3 C493.869,279.724 497.275,290.839 497.07,298.453 C496.848,306.675 493.905,315.947 492.044,324.6 C490.858,330.114 489.677,335.953 486.139,340.736 C483.71,344.022 480.057,345.91 477.747,349.378 C474.594,354.109 472.663,359.463 469.048,364.347 C465.527,369.105 460.744,372.895 457.282,377.528 C453.582,382.482 451.802,389.728 447.859,394.498 C444.166,398.965 440.407,398.206 435.88,400.705 C430.079,403.907 425.573,413.641 421.537,419.689 C416.1,427.832 410.958,436.566 406.545,445.777 C402.718,453.767 402.474,461.166 402.919,470.557 C394.773,468.599 385.91,469.941 377.691,467.107 C373.645,465.713 370.099,464.945 366.222,463.945 C362.731,463.047 359.843,461.174 356.125,460.814 C357.542,455.507 361.945,451.135 363.569,445.378 C365.087,439.996 364.58,433.021 367.886,428.045 C369.262,425.973 372.665,424.615 374.417,422.255 C375.861,420.308 376.617,417.67 377.668,415.836 C379.331,412.936 380.148,411.624 382.659,409.174 C384.999,406.892 387.73,405.824 389.921,403.607 C398.466,394.965 402.805,381.672 411.651,372.934 C421.123,363.578 431.183,352.487 433.042,338.024 C433.886,331.445 433.581,324.032 433.576,317.187 C433.57,309.235 434.82,297.261 432.429,289.676 C430.688,284.152 426.353,282.266 422.957,278.97 C419.395,275.513 416.57,269.007 412.149,266.833 C407.076,264.34 397.071,264.16 391.626,264.275 C385.038,264.415 379.955,263.815 373.948,263.157 C361.974,261.843 355.695,275.812 350.826,286.119 C346.905,294.42 346.191,300.642 346.999,310.442 C347.69,318.828 349.496,320.636 353.06,327.36 C357.06,334.906 360.566,340.587 367.215,345.647 C372.043,349.321 376.576,354.435 382.426,356.073 C368.681,357.93 358.294,366.275 346.653,374.348 C340.486,378.625 332.482,379.696 326.429,383.282 C322.399,385.669 318.672,390.681 314.068,393.176" fill="#B3B3B3"/>
      <path d="M337.27,484.519 C352.507,483.166 367.108,489.423 381.574,490.971 C390.806,491.959 402.932,495.207 411.738,493.629 C411.393,499.942 409.242,504.867 407.516,510.985 C405.482,518.19 405.789,524.125 403.915,530.701 C402.604,535.299 400.375,540.592 399.522,545.299 C399.07,547.788 399.642,550.71 399.104,553.161 C398.768,554.694 396.695,555.399 396.54,556.493 C395.645,562.915 397.711,569.457 396.419,575.886 C392.6,576.555 386.096,571.041 382.612,569.049 C377.298,566.014 372.837,562.647 366.961,560.85 C355.797,557.438 343.134,555.502 332.074,554.509 C332.533,541.264 333.003,527.486 335.086,514.658 C336.762,504.331 339.238,495.123 338.263,483.187" fill="#B3B3B3"/>
    </g>
  </g>
</svg>
